<svg width="230" height="230" viewBox="0 0 230 230" fill="none" xmlns="http://www.w3.org/2000/svg">
<path d="M219.069 92.3736C208.451 83.9477 203.037 70.8781 204.587 57.4094C205.601 48.5991 202.587 39.9502 196.318 33.6825C190.046 27.4116 181.398 24.3974 172.589 25.4125C159.116 26.961 146.051 21.55 137.626 10.9317C132.114 3.98411 123.868 0 115 0C106.132 0 97.8859 3.98411 92.3736 10.931C83.9477 21.5485 70.8828 26.961 57.4125 25.4133C48.6022 24.3958 39.9534 27.4116 33.6833 33.6817C27.4124 39.9502 24.3982 48.5991 25.4117 57.4109C26.9625 70.8774 21.5493 83.947 10.9286 92.3744C3.98411 97.8867 0 106.133 0 115C0 123.866 3.98333 132.113 10.9302 137.626C21.5493 146.053 26.9625 159.122 25.4117 172.591C24.3982 181.401 27.4124 190.05 33.6817 196.318C39.9534 202.588 48.6085 205.604 57.4101 204.587C70.8781 203.037 83.9477 208.45 92.3736 219.068C97.8851 226.015 106.132 230 115 230C123.868 230 132.114 226.016 137.626 219.069C146.053 208.451 159.118 203.04 172.588 204.587C181.399 205.599 190.047 202.588 196.317 196.318C202.588 190.05 205.602 181.401 204.588 172.59C203.037 159.123 208.452 146.052 219.071 137.626C226.016 132.113 230 123.867 230 115C230 106.132 226.015 97.8867 219.069 92.3736Z" fill="#F9F9F9"/>
</svg>
