<svg width="120" height="120" viewBox="0 0 120 120" fill="none" xmlns="http://www.w3.org/2000/svg">
<circle cx="60" cy="60" r="20" fill="#F4B72A"/>
<path fill-rule="evenodd" clip-rule="evenodd" d="M66.1996 59.1659C64.2492 59.1659 62.4716 57.3151 62.4716 55.2826V54.4492H60.8716V55.2826C60.8716 56.7609 61.494 58.1476 62.4708 59.1659H52.5996V60.8326H62.4708C61.494 61.8509 60.8716 63.2376 60.8716 64.7159V65.5492H62.4716V64.7159C62.4716 62.6834 64.2492 60.8326 66.1996 60.8326H66.9996V59.1659H66.1996Z" fill="#133D3C"/>
<circle cx="60" cy="60" r="48" stroke="#F4B72A" stroke-width="24"/>
<path d="M67.6448 8.55519L69.5631 8.72936L65.872 13.3267L65.4721 17.3377L63.8469 17.1901L64.2468 13.1791L61.5303 8L63.4486 8.17418L65.2279 11.562L67.6448 8.55519Z" fill="#133D3C"/>
<path d="M72.3197 18.8341C71.7297 18.6664 71.2363 18.3684 70.8394 17.9402C70.4467 17.5132 70.1815 17.0136 70.0436 16.4414C69.91 15.8704 69.9356 15.2892 70.1202 14.6976C70.259 14.2529 70.4723 13.8605 70.76 13.5203C71.049 13.1761 71.3847 12.8984 71.7671 12.6873C72.155 12.4734 72.5696 12.3381 73.0108 12.2814C73.452 12.2247 73.8928 12.259 74.3331 12.3842C74.8333 12.5264 75.2588 12.7584 75.6098 13.0803C75.9664 13.3993 76.2352 13.7756 76.4164 14.2091C76.5976 14.6426 76.6844 15.1025 76.6768 15.589C76.6692 16.0754 76.5527 16.5531 76.3272 17.022L71.6398 15.6893C71.6283 15.9348 71.6623 16.1688 71.7418 16.3912C71.8226 16.6096 71.9505 16.8037 72.1256 16.9734C72.3019 17.139 72.522 17.2615 72.7858 17.341C73.0581 17.4228 73.3251 17.4321 73.5869 17.3689C73.8542 17.3027 74.0971 17.1808 74.3155 17.003L75.8013 17.8119C75.3712 18.2803 74.8434 18.6144 74.2179 18.8141C73.5936 19.0098 72.9609 19.0164 72.3197 18.8341ZM71.9381 14.5549L75.0929 15.4518C75.1223 15.1937 75.0906 14.9448 74.9979 14.7052C74.9106 14.4628 74.7744 14.2508 74.589 14.0693C74.4036 13.8878 74.1827 13.7606 73.9262 13.6876C73.6697 13.6147 73.414 13.6064 73.1591 13.6627C72.9054 13.715 72.6704 13.8192 72.4541 13.9753C72.2433 14.1286 72.0713 14.3218 71.9381 14.5549Z" fill="#133D3C"/>
<path d="M85.6866 17.1418L87.1239 17.8807L83.9509 23.5023L82.5136 22.7634L82.8422 22.033C82.5395 22.2013 82.2102 22.2956 81.8543 22.3157C81.5045 22.3341 81.1489 22.2504 80.7876 22.0647C80.3517 21.8406 79.9877 21.552 79.6956 21.1988C79.4036 20.8456 79.1905 20.4556 79.0564 20.0289C78.9263 19.6042 78.8813 19.1677 78.9216 18.7193C78.9657 18.273 79.1052 17.8419 79.34 17.4259C79.5664 17.0249 79.8555 16.6876 80.2075 16.4141C80.5635 16.1425 80.9559 15.9454 81.3849 15.8226C81.8139 15.6998 82.2534 15.6574 82.7032 15.6952C83.153 15.733 83.588 15.86 84.0082 16.076C84.397 16.2758 84.698 16.5369 84.9113 16.8593C85.1284 17.1837 85.2731 17.5288 85.3452 17.8947L85.6866 17.1418ZM81.4979 20.7255C81.8042 20.8829 82.1165 20.9492 82.4346 20.9241C82.7527 20.8991 83.0483 20.7972 83.3215 20.6185C83.5967 20.436 83.8189 20.1949 83.9882 19.8951C84.1595 19.5915 84.2482 19.2817 84.2543 18.9657C84.2625 18.646 84.1881 18.3515 84.031 18.0822C83.8779 17.8149 83.6502 17.6035 83.3478 17.4481C83.0454 17.2926 82.7262 17.2253 82.3903 17.246C82.0604 17.265 81.751 17.3598 81.4622 17.5304C81.1773 17.7031 80.9491 17.9412 80.7778 18.2448C80.6064 18.5483 80.5256 18.8621 80.5352 19.1862C80.5448 19.5103 80.6321 19.809 80.797 20.0823C80.9658 20.3577 81.1995 20.5721 81.4979 20.7255Z" fill="#133D3C"/>
<path d="M86.1303 24.948L90.2621 19.9257L91.5452 20.889L91.1822 21.3396C91.51 21.2932 91.841 21.3115 92.1754 21.3947C92.5126 21.4745 92.8249 21.6223 93.1124 21.8382C93.3052 21.9829 93.4759 22.1544 93.6246 22.3527L92.1021 23.2083C92.0102 23.058 91.8977 22.9329 91.7645 22.8329C91.5577 22.6776 91.3284 22.584 91.0766 22.5521C90.8311 22.5194 90.59 22.5469 90.3531 22.6345C90.1226 22.7214 89.926 22.8635 89.7633 23.0609L87.4134 25.9114L86.1303 24.948Z" fill="#133D3C"/>
<path d="M92.1994 30.1256C91.977 29.8694 91.7963 29.5902 91.6574 29.2882C91.5247 28.9863 91.4474 28.6815 91.4254 28.3737C91.4034 28.0659 91.4503 27.7722 91.5663 27.4924L92.9401 28.0642C92.9119 28.1597 92.9018 28.2829 92.9098 28.4337C92.9209 28.5816 92.9588 28.7347 93.0233 28.8931C93.0909 29.0546 93.1935 29.2051 93.3312 29.3445C93.4474 29.4622 93.5738 29.5591 93.7103 29.6352C93.8531 29.7115 93.9923 29.7501 94.128 29.7509C94.2667 29.7548 94.3928 29.7057 94.5064 29.6035C94.6265 29.4955 94.6793 29.372 94.6647 29.2331C94.6563 29.0943 94.6087 28.9499 94.5219 28.7999C94.4413 28.6501 94.3606 28.5063 94.2797 28.3685C94.0507 28.0187 93.8757 27.6584 93.7547 27.2876C93.6367 26.9199 93.6035 26.5667 93.655 26.2278C93.7128 25.8892 93.8878 25.5885 94.1799 25.3257C94.5013 25.0366 94.8584 24.8675 95.2512 24.8184C95.647 24.7724 96.0367 24.8225 96.4203 24.9689C96.807 25.1183 97.1502 25.3448 97.45 25.6484C97.8141 26.017 98.0664 26.4277 98.207 26.8803C98.3539 27.3332 98.37 27.7808 98.2553 28.2232L96.8145 27.8257C96.8496 27.7123 96.8614 27.5876 96.8498 27.4518C96.8415 27.313 96.8095 27.1751 96.7538 27.038C96.7013 26.898 96.6248 26.7709 96.5242 26.6566C96.393 26.5114 96.2546 26.3961 96.1089 26.3107C95.9633 26.2252 95.8163 26.1819 95.668 26.1808C95.5228 26.1827 95.3853 26.2421 95.2555 26.3588C95.1321 26.4698 95.0855 26.5995 95.1156 26.7479C95.149 26.8934 95.2137 27.0458 95.3097 27.2051C95.4088 27.3675 95.4985 27.5266 95.5789 27.6824C95.754 28.0397 95.8912 28.3989 95.9904 28.7601C96.0927 29.1243 96.1168 29.4683 96.0626 29.792C96.0083 30.1157 95.8402 30.3985 95.5582 30.6405C95.2433 30.9237 94.8787 31.0821 94.4643 31.1155C94.0532 31.1461 93.6452 31.0743 93.2404 30.9003C92.8386 30.7294 92.4916 30.4711 92.1994 30.1256Z" fill="#133D3C"/>
<path d="M98.4752 37.4634L106.784 33.3359L109.497 38.3089L108.048 39.0282L106.09 35.4373L104.404 36.2746L105.958 39.1235L104.51 39.8429L102.956 36.9939L100.677 38.126L102.636 41.7169L101.188 42.4363L98.4752 37.4634Z" fill="#133D3C"/>
<path d="M102.116 44.4053L106.036 45.7261L108.539 42.5926L109.116 44.434L107.657 46.2632L109.931 47.034L110.508 48.8754L106.613 47.5675L104.096 50.7248L103.52 48.8834L105.003 47.0205L102.693 46.2467L102.116 44.4053Z" fill="#133D3C"/>
<path d="M101.318 54.3838L101.173 52.832L111.17 51.9796L111.315 53.5314L110.468 53.6036C110.79 53.7856 111.058 54.0192 111.273 54.3043C111.493 54.5933 111.621 54.9413 111.66 55.3483C111.703 55.8147 111.653 56.2571 111.508 56.6754C111.364 57.0937 111.144 57.4694 110.848 57.8023C110.557 58.1391 110.209 58.4103 109.802 58.6159C109.397 58.8257 108.952 58.9513 108.467 58.9925C107.983 59.0338 107.52 58.9857 107.077 58.8483C106.634 58.715 106.236 58.5075 105.883 58.2256C105.535 57.9476 105.251 57.615 105.031 57.2277C104.811 56.8405 104.679 56.4136 104.635 55.9472C104.597 55.5402 104.657 55.1761 104.815 54.8549C104.978 54.5376 105.201 54.2622 105.484 54.0286L101.318 54.3838ZM110.092 55.4628C110.061 55.1405 109.946 54.8598 109.744 54.6206C109.547 54.3809 109.295 54.2015 108.988 54.0824C108.682 53.9632 108.351 53.9188 107.995 53.9491C107.64 53.9794 107.32 54.0793 107.036 54.2489C106.756 54.418 106.539 54.6374 106.385 54.9069C106.236 55.1761 106.176 55.4718 106.206 55.7941C106.237 56.1205 106.352 56.4121 106.55 56.6686C106.749 56.9252 107.002 57.1216 107.311 57.2577C107.623 57.3934 107.96 57.446 108.32 57.4153C108.675 57.385 108.992 57.2768 109.27 57.0906C109.548 56.9045 109.761 56.6684 109.909 56.3823C110.062 56.1 110.123 55.7935 110.092 55.4628Z" fill="#133D3C"/>
<path d="M104.607 64.474C104.679 63.8905 104.901 63.3753 105.275 62.9284C105.648 62.4857 106.118 62.1502 106.685 61.922C107.251 61.698 107.855 61.6218 108.498 61.6934C108.981 61.7473 109.422 61.8801 109.823 62.092C110.228 62.3043 110.573 62.572 110.857 62.8951C111.144 63.2229 111.355 63.5893 111.49 63.9943C111.624 64.3993 111.665 64.8196 111.612 65.255C111.551 65.7497 111.385 66.1898 111.113 66.5752C110.845 66.9654 110.503 67.2829 110.087 67.528C109.671 67.773 109.211 67.9339 108.708 68.0106C108.204 68.0873 107.691 68.0601 107.168 67.9289L107.736 63.2928C107.481 63.3244 107.245 63.3967 107.029 63.5097C106.818 63.6233 106.639 63.777 106.494 63.9708C106.354 64.1652 106.265 64.3931 106.229 64.6548C106.191 64.9249 106.228 65.1775 106.338 65.4127C106.452 65.6526 106.62 65.8599 106.841 66.0345L106.262 67.5708C105.705 67.2471 105.269 66.8085 104.955 66.2549C104.646 65.7018 104.53 65.1082 104.607 64.474ZM108.958 63.3777L108.576 66.498C108.848 66.4812 109.099 66.4085 109.331 66.28C109.566 66.1562 109.761 65.9916 109.917 65.786C110.072 65.5805 110.165 65.3509 110.196 65.0972C110.227 64.8435 110.192 64.6017 110.09 64.3717C109.992 64.1423 109.844 63.9393 109.646 63.7629C109.451 63.5912 109.222 63.4628 108.958 63.3777Z" fill="#133D3C"/>
<path d="M103.81 70.1388L110.232 71.9301L109.773 73.4251L109.199 73.2713C109.367 73.5443 109.472 73.8444 109.515 74.1716C109.563 74.4999 109.536 74.8316 109.433 75.1665C109.364 75.3912 109.26 75.6063 109.123 75.8118L107.724 74.7814C107.836 74.6441 107.916 74.4979 107.964 74.3427C108.038 74.1017 108.044 73.8637 107.981 73.6288C107.921 73.3992 107.805 73.1958 107.632 73.0187C107.461 72.8468 107.25 72.7255 106.997 72.6548L103.351 71.6338L103.81 70.1388Z" fill="#133D3C"/>
<path d="M108.11 78.1462L107.479 79.583L101.309 77.1135L101.94 75.6768L108.11 78.1462ZM108.585 79.1949C108.678 78.983 108.829 78.8332 109.037 78.7455C109.249 78.6596 109.466 78.661 109.688 78.7499C109.906 78.8372 110.057 78.9831 110.141 79.1876C110.225 79.3921 110.222 79.5984 110.13 79.8064C110.039 80.0145 109.888 80.1595 109.678 80.2416C109.466 80.3276 109.251 80.3269 109.033 80.2397C108.811 80.1508 108.657 80.006 108.571 79.8054C108.489 79.6065 108.494 79.403 108.585 79.1949Z" fill="#133D3C"/>
<path d="M98.7709 81.5217C99.0877 81.018 99.5127 80.6359 100.046 80.3754C100.577 80.1185 101.15 79.9975 101.765 80.0122C102.378 80.0305 102.961 80.1985 103.516 80.5162C103.933 80.755 104.278 81.0496 104.552 81.4001C104.829 81.7528 105.028 82.1321 105.147 82.538C105.268 82.9498 105.302 83.3666 105.25 83.7886C105.198 84.2105 105.054 84.6095 104.817 84.9854C104.549 85.4124 104.207 85.7482 103.794 85.9927C103.381 86.243 102.933 86.3981 102.448 86.4578C101.963 86.5176 101.474 86.4836 100.982 86.3557C100.49 86.2279 100.034 86.0015 99.6146 85.6765L102.132 81.6745C101.885 81.6029 101.64 81.5763 101.394 81.5945C101.152 81.6149 100.923 81.6849 100.708 81.8046C100.496 81.9265 100.317 82.0995 100.171 82.3236C100.02 82.555 99.9441 82.7995 99.9433 83.0572C99.944 83.3208 100.007 83.5756 100.134 83.8216L98.9434 84.9942C98.5748 84.4802 98.3669 83.9093 98.3196 83.2814C98.2761 82.6558 98.4265 82.0692 98.7709 81.5217ZM103.209 82.2321L101.515 84.9257C101.77 85.017 102.03 85.0495 102.296 85.0233C102.564 85.0029 102.813 84.9296 103.043 84.8033C103.274 84.677 103.458 84.5044 103.595 84.2854C103.733 84.0664 103.805 83.8321 103.811 83.5824C103.821 83.335 103.774 83.0918 103.669 82.8531C103.566 82.6202 103.413 82.4132 103.209 82.2321Z" fill="#133D3C"/>
<path d="M94.6475 93.4991L91.5123 90.7912L92.6078 89.636L95.4255 92.0698C95.6207 92.2383 95.841 92.3453 96.0865 92.3909C96.3354 92.4394 96.5794 92.4263 96.8187 92.3516C97.0583 92.2829 97.2664 92.1555 97.443 91.9693C97.6196 91.7831 97.7333 91.5712 97.784 91.3337C97.8351 91.1023 97.823 90.8708 97.7478 90.6393C97.6728 90.4138 97.5378 90.2168 97.3427 90.0483L94.525 87.6145L95.6205 86.4594L100.586 90.7394L99.4902 91.8945L99.0442 91.5179C99.0701 91.8331 99.0281 92.1471 98.9181 92.4597C98.8114 92.7752 98.6354 93.0623 98.3899 93.3212C98.0637 93.6652 97.6765 93.9021 97.2286 94.0319C96.7839 94.1645 96.3334 94.186 95.8771 94.0961C95.4212 94.0123 95.0113 93.8133 94.6475 93.4991Z" fill="#133D3C"/>
<path d="M87.6059 96.3481L85.9519 96.5909C85.944 96.0945 86.0481 95.616 86.2643 95.1552C86.4805 94.6945 86.8072 94.306 87.2445 93.9898C87.7351 93.635 88.2787 93.4315 88.8753 93.3793C89.4683 93.3297 90.046 93.4194 90.6083 93.6483C91.1697 93.8832 91.6458 94.2467 92.0364 94.7386C92.3327 95.1118 92.5395 95.5097 92.6568 95.9323C92.7767 96.3583 92.8128 96.7808 92.765 97.2C92.7163 97.625 92.5855 98.0241 92.3724 98.3971C92.1593 98.7702 91.8697 99.0891 91.5035 99.3539C91.0662 99.6701 90.5859 99.8652 90.0626 99.9392C89.5393 100.013 89.0257 99.976 88.5218 99.8277L89.2182 98.3787C89.4504 98.4245 89.6815 98.423 89.9114 98.3742C90.1377 98.328 90.3398 98.2407 90.5176 98.1121C90.7735 97.927 90.9507 97.6921 91.0492 97.4072C91.1503 97.1258 91.1738 96.8311 91.1196 96.5232C91.068 96.2186 90.9399 95.9374 90.7352 95.6796C90.5331 95.4251 90.2841 95.2313 89.9882 95.0982C89.6949 94.9684 89.3926 94.912 89.0813 94.9287C88.7701 94.9455 88.4864 95.0465 88.2305 95.2316C88.0456 95.3653 87.8992 95.5298 87.7914 95.7253C87.6863 95.9242 87.6245 96.1318 87.6059 96.3481Z" fill="#133D3C"/>
<path d="M80.2542 98.1873C80.807 97.9289 81.3814 97.8286 81.9773 97.8865C82.5693 97.9462 83.1193 98.1418 83.6272 98.4731C84.131 98.8063 84.5253 99.2501 84.8099 99.8044C85.0238 100.221 85.1459 100.647 85.1761 101.084C85.2083 101.524 85.1589 101.945 85.0278 102.348C84.8947 102.756 84.6861 103.124 84.4021 103.451C84.118 103.778 83.7697 104.038 83.3572 104.231C82.8885 104.45 82.4108 104.555 81.9242 104.545C81.4355 104.542 80.9705 104.439 80.5294 104.238C80.0882 104.036 79.6976 103.754 79.3575 103.392C79.0175 103.03 78.7637 102.603 78.5963 102.113L82.9884 100.059C82.8224 99.871 82.6312 99.721 82.4147 99.6089C82.2001 99.5007 81.9682 99.4408 81.719 99.4294C81.4717 99.4218 81.2229 99.4741 80.9726 99.5864C80.7142 99.7025 80.5114 99.8684 80.3639 100.084C80.2144 100.306 80.1226 100.553 80.0884 100.825L78.4215 101.192C78.4048 100.569 78.5554 99.9819 78.8733 99.4304C79.1931 98.8826 79.6534 98.4683 80.2542 98.1873ZM83.5752 101.086L80.6191 102.468C80.7809 102.677 80.981 102.839 81.2194 102.955C81.4558 103.077 81.7066 103.145 81.9718 103.158C82.237 103.171 82.4898 103.122 82.7301 103.01C82.9704 102.897 83.1643 102.738 83.3116 102.531C83.461 102.329 83.5597 102.1 83.6077 101.846C83.6537 101.596 83.6428 101.343 83.5752 101.086Z" fill="#133D3C"/>
<path d="M70.4854 107.261L71.4999 107.726L71.0017 108.709L72.1228 108.844L71.988 109.913L70.8513 109.768L71.0553 110.829L69.9496 111.023L69.7457 109.961L68.7501 110.48L68.2136 109.528L69.2248 109.02L68.3936 108.27L69.1692 107.491L69.9884 108.25L70.4854 107.261Z" fill="#133D3C"/>
<path d="M52.9373 111.506L51.0173 111.35L54.6581 106.717L55.0142 102.702L56.641 102.833L56.2848 106.848L59.0576 112L57.1375 111.845L55.3213 108.475L52.9373 111.506Z" fill="#133D3C"/>
<path d="M48.1509 101.274C48.7426 101.436 49.2393 101.729 49.6409 102.153C50.0383 102.576 50.309 103.073 50.4532 103.644C50.5931 104.213 50.574 104.795 50.3959 105.388C50.262 105.834 50.053 106.229 49.7691 106.572C49.484 106.919 49.1514 107.2 48.7713 107.415C48.3858 107.633 47.9727 107.772 47.5321 107.833C47.0916 107.894 46.6504 107.865 46.2088 107.744C45.7071 107.607 45.2789 107.379 44.9244 107.061C44.5644 106.745 44.2914 106.372 44.1054 105.94C43.9195 105.508 43.8276 105.049 43.8298 104.563C43.832 104.076 43.9433 103.597 44.1636 103.126L48.8654 104.412C48.8742 104.166 48.8376 103.933 48.7557 103.711C48.6725 103.493 48.5424 103.301 48.3655 103.133C48.1873 102.969 47.9659 102.849 47.7013 102.772C47.4281 102.693 47.1609 102.686 46.8999 102.752C46.6333 102.821 46.3918 102.945 46.1754 103.125L44.6807 102.331C45.1056 101.858 45.6297 101.519 46.253 101.313C46.875 101.111 47.5077 101.098 48.1509 101.274ZM48.5797 105.549L45.4151 104.684C45.3886 104.942 45.423 105.191 45.5184 105.43C45.6083 105.671 45.7469 105.882 45.9343 106.061C46.1216 106.241 46.344 106.366 46.6012 106.436C46.8585 106.507 47.1143 106.512 47.3686 106.454C47.6217 106.399 47.8555 106.292 48.0701 106.134C48.2792 105.978 48.449 105.784 48.5797 105.549Z" fill="#133D3C"/>
<path d="M34.8015 103.101L33.3562 102.376L36.4673 96.7232L37.9127 97.4477L37.592 98.1813C37.8929 98.01 38.2212 97.9125 38.5768 97.8888C38.9264 97.8669 39.2829 97.947 39.6462 98.1291C40.0845 98.3488 40.4517 98.6338 40.7476 98.9841C41.0436 99.3344 41.2609 99.7222 41.3996 100.148C41.5344 100.571 41.5842 101.007 41.5488 101.456C41.5096 101.902 41.3748 102.335 41.1446 102.753C40.9227 103.156 40.6372 103.497 40.2882 103.774C39.9353 104.049 39.545 104.25 39.1174 104.377C38.6897 104.504 38.2508 104.551 37.8006 104.517C37.3504 104.484 36.914 104.361 36.4915 104.15C36.1005 103.954 35.7966 103.696 35.5799 103.375C35.3592 103.053 35.2107 102.71 35.1346 102.344L34.8015 103.101ZM38.9506 99.4753C38.6426 99.321 38.3297 99.2579 38.0118 99.2861C37.694 99.3143 37.3995 99.4191 37.1284 99.6006C36.8551 99.7858 36.6356 100.029 36.4696 100.331C36.3016 100.636 36.2163 100.947 36.2137 101.263C36.209 101.582 36.2866 101.876 36.4466 102.144C36.6027 102.41 36.8328 102.619 37.1368 102.771C37.4409 102.923 37.7608 102.988 38.0965 102.964C38.4262 102.941 38.7345 102.843 39.0214 102.67C39.3044 102.494 39.5299 102.254 39.6979 101.949C39.8659 101.643 39.9434 101.329 39.9302 101.005C39.917 100.681 39.8265 100.383 39.6586 100.111C39.4867 99.8378 39.2507 99.6258 38.9506 99.4753Z" fill="#133D3C"/>
<path d="M34.2741 95.2992L30.1973 100.362L28.9038 99.4117L29.2618 98.9575C28.9346 99.0072 28.6034 98.9921 28.2681 98.9123C27.9301 98.8358 27.6161 98.6911 27.3263 98.4782C27.132 98.3353 26.9594 98.1655 26.8085 97.9687L28.3216 97.0981C28.4151 97.2474 28.529 97.3714 28.6633 97.4701C28.8718 97.6233 29.1021 97.7146 29.3542 97.7441C29.6001 97.7743 29.8409 97.7444 30.0767 97.6545C30.3063 97.5653 30.5014 97.4212 30.662 97.2222L32.9806 94.3486L34.2741 95.2992Z" fill="#133D3C"/>
<path d="M28.1489 90.1805C28.3741 90.4345 28.5578 90.7118 28.7 91.0125C28.8359 91.313 28.9166 91.6171 28.9419 91.9246C28.9673 92.2322 28.9235 92.5264 28.8106 92.8073L27.4306 92.2491C27.4578 92.1533 27.4666 92.03 27.457 91.8793C27.4442 91.7316 27.4047 91.5788 27.3385 91.421C27.2691 91.2602 27.1649 91.1108 27.0257 90.9728C26.9082 90.8562 26.7808 90.7605 26.6435 90.6858C26.4999 90.6109 26.3602 90.5737 26.2246 90.5742C26.0858 90.5717 25.9602 90.6221 25.8477 90.7254C25.7288 90.8346 25.6774 90.9586 25.6935 91.0974C25.7033 91.236 25.7525 91.3799 25.841 91.5291C25.9232 91.6781 26.0055 91.8211 26.0879 91.9581C26.3206 92.3056 26.4995 92.6641 26.6246 93.0337C26.7466 93.4002 26.7836 93.7531 26.7358 94.0924C26.6816 94.4316 26.5099 94.7341 26.2207 94.9997C25.9025 95.2919 25.5472 95.4646 25.155 95.5176C24.7597 95.5675 24.3694 95.5212 23.9843 95.3787C23.596 95.2331 23.2503 95.01 22.9472 94.7094C22.5792 94.3444 22.3224 93.9363 22.1769 93.485C22.0251 93.0337 22.0041 92.5862 22.114 92.1426L23.559 92.5259C23.5252 92.6397 23.5148 92.7644 23.5278 92.9001C23.5377 93.0388 23.5712 93.1764 23.6284 93.3129C23.6823 93.4524 23.7602 93.5788 23.8621 93.692C23.9948 93.836 24.1345 93.9499 24.2811 94.0339C24.4276 94.1179 24.5751 94.1597 24.7233 94.1594C24.8685 94.1561 25.0054 94.0953 25.134 93.9773C25.2561 93.8651 25.3013 93.735 25.2696 93.5869C25.2346 93.4417 25.1683 93.29 25.0705 93.1316C24.9697 92.9702 24.8782 92.812 24.7962 92.657C24.6172 92.3014 24.4761 91.9436 24.373 91.5834C24.2667 91.2202 24.2389 90.8765 24.2896 90.5523C24.3403 90.2281 24.5053 89.9436 24.7847 89.6988C25.0965 89.4125 25.4594 89.2506 25.8734 89.213C26.2842 89.1784 26.6929 89.2461 27.0996 89.4161C27.5032 89.5831 27.853 89.8379 28.1489 90.1805Z" fill="#133D3C"/>
<path d="M21.7934 82.9069L13.5303 87.1172L10.7635 82.1717L12.2036 81.4379L14.2015 85.009L15.8778 84.1549L14.2927 81.3217L15.7328 80.5879L17.3179 83.4211L19.5844 82.2663L17.5865 78.6952L19.0266 77.9614L21.7934 82.9069Z" fill="#133D3C"/>
<path d="M18.0749 76.003L14.141 74.7217L11.6728 77.8801L11.0755 76.0446L12.5143 74.2008L10.2322 73.453L9.63501 71.6175L13.5438 72.8862L16.0253 69.7037L16.6225 71.5392L15.1597 73.4169L17.4777 74.1675L18.0749 76.003Z" fill="#133D3C"/>
<path d="M18.7639 66.0169L18.926 67.5672L8.93946 68.5187L8.77728 66.9684L9.62281 66.8878C9.29928 66.709 9.02857 66.4781 8.81069 66.1951C8.58793 65.9083 8.45529 65.5616 8.41275 65.155C8.364 64.6891 8.40957 64.2462 8.54945 63.8265C8.68933 63.4067 8.90533 63.029 9.19743 62.6931C9.48465 62.3534 9.83023 62.0788 10.2342 61.8692C10.6376 61.6554 11.0813 61.5254 11.5651 61.4793C12.0489 61.4332 12.5129 61.4767 12.9572 61.6098C13.401 61.7386 13.8011 61.9422 14.1574 62.2205C14.5089 62.4951 14.7967 62.8249 15.0208 63.2099C15.2448 63.595 15.3812 64.0205 15.43 64.4864C15.4725 64.893 15.4165 65.2577 15.262 65.5805C15.1026 65.8994 14.8829 66.177 14.6028 66.4133L18.7639 66.0169ZM9.9793 65.025C10.013 65.3469 10.1319 65.6265 10.336 65.8637C10.5357 66.1014 10.7895 66.2783 11.0976 66.3944C11.4056 66.5105 11.7371 66.5516 12.0922 66.5178C12.4473 66.4839 12.766 66.3809 13.0483 66.2085C13.3261 66.0366 13.5405 65.8151 13.6915 65.544C13.838 65.2734 13.8944 64.9771 13.8608 64.6552C13.8266 64.329 13.7088 64.0386 13.5074 63.784C13.3059 63.5294 13.0503 63.3356 12.7405 63.2026C12.4263 63.0699 12.0894 63.0208 11.7299 63.055C11.3748 63.0888 11.0593 63.2002 10.7832 63.3891C10.5071 63.5779 10.2966 63.8162 10.1519 64.1037C10.0023 64.3875 9.94474 64.6946 9.9793 65.025Z" fill="#133D3C"/>
<path d="M15.3663 55.9568C15.3012 56.5409 15.0843 57.0583 14.7156 57.5089C14.3474 57.9553 13.8812 58.2954 13.3168 58.5292C12.753 58.7588 12.1495 58.841 11.5063 58.7757C11.0228 58.7266 10.5796 58.5982 10.1766 58.3904C9.76919 58.1821 9.42184 57.9178 9.13455 57.5975C8.84329 57.2726 8.6282 56.9083 8.48926 56.5047C8.35032 56.101 8.30513 55.6812 8.35371 55.2452C8.40889 54.7499 8.57024 54.3082 8.83777 53.9201C9.10133 53.5274 9.43987 53.2064 9.85339 52.9573C10.2669 52.7081 10.7249 52.5427 11.2275 52.461C11.73 52.3793 12.2434 52.4014 12.7676 52.5274L12.2505 57.1689C12.5055 57.1348 12.7404 57.0602 12.955 56.945C13.1653 56.8293 13.3419 56.6739 13.4847 56.4786C13.6232 56.2829 13.7092 56.054 13.7429 55.792C13.7775 55.5216 13.7383 55.2693 13.6254 55.0352C13.5084 54.7965 13.3384 54.5909 13.1154 54.4184L13.6775 52.8766C14.2386 53.1946 14.6792 53.6289 14.9991 54.1793C15.3147 54.7293 15.437 55.3218 15.3663 55.9568ZM11.0273 57.0961L11.3754 53.9722C11.104 53.9917 10.8534 54.0669 10.6235 54.1977C10.3897 54.3238 10.1962 54.4904 10.043 54.6974C9.88989 54.9045 9.79916 55.135 9.77087 55.389C9.74257 55.643 9.78071 55.8844 9.88529 56.1134C9.98543 56.3418 10.1357 56.5433 10.336 56.7177C10.5324 56.8875 10.7629 57.0136 11.0273 57.0961Z" fill="#133D3C"/>
<path d="M16.1004 50.2868L9.65883 48.5602L10.1018 47.0607L10.6768 47.2088C10.5067 46.9374 10.3981 46.6384 10.3509 46.3117C10.2995 45.9838 10.3234 45.6519 10.4227 45.316C10.4892 45.0906 10.5901 44.8745 10.7254 44.6677L12.1353 45.6839C12.0249 45.8223 11.9467 45.9693 11.9007 46.125C11.8293 46.3667 11.8262 46.6047 11.8914 46.839C11.9535 47.068 12.0722 47.2702 12.2474 47.4456C12.4196 47.6158 12.6323 47.7349 12.8856 47.8031L16.5434 48.7873L16.1004 50.2868Z" fill="#133D3C"/>
<path d="M11.7151 42.3187L12.3308 40.8757L18.5276 43.2837L17.9119 44.7267L11.7151 42.3187ZM11.2286 41.2747C11.1378 41.4876 10.9889 41.6389 10.7821 41.7286C10.5712 41.8167 10.3541 41.8174 10.131 41.7307C9.91209 41.6456 9.75937 41.5012 9.67289 41.2976C9.58641 41.0939 9.58774 40.8876 9.6769 40.6786C9.76605 40.4697 9.91527 40.3231 10.1246 40.239C10.3355 40.1509 10.5505 40.1494 10.7694 40.2345C10.9925 40.3212 11.1481 40.4644 11.2363 40.6641C11.3203 40.8622 11.3178 41.0658 11.2286 41.2747Z" fill="#133D3C"/>
<path d="M21.014 38.8521C20.7027 39.3589 20.2819 39.7453 19.7515 40.0111C19.2234 40.2732 18.6518 40.4 18.0366 40.3914C17.4237 40.3791 16.8382 40.2169 16.2803 39.9048C15.8608 39.6702 15.5123 39.379 15.2347 39.0313C14.9532 38.6814 14.7507 38.3041 14.627 37.8994C14.5017 37.4888 14.4628 37.0723 14.5103 36.6499C14.5578 36.2274 14.6977 35.8271 14.93 35.4488C15.1939 35.0191 15.5315 34.68 15.9427 34.4314C16.3523 34.177 16.7993 34.0175 17.2836 33.9529C17.768 33.8883 18.2567 33.9174 18.75 34.0404C19.2432 34.1633 19.7015 34.3852 20.1249 34.7059L17.6516 38.7328C17.8987 38.8019 18.1449 38.8261 18.3902 38.8055C18.6317 38.7827 18.8597 38.7104 19.0741 38.5886C19.2847 38.4646 19.4619 38.2898 19.6056 38.0643C19.7538 37.8314 19.8269 37.5861 19.8249 37.3284C19.8213 37.0649 19.7551 36.8107 19.6262 36.5659L20.8035 35.3816C21.1777 35.8919 21.3919 36.4607 21.446 37.0881C21.4964 37.7133 21.3523 38.3013 21.014 38.8521ZM16.5682 38.1859L18.2329 35.4757C17.9772 35.3869 17.7164 35.357 17.4505 35.3858C17.183 35.4089 16.9348 35.4847 16.7059 35.6132C16.477 35.7418 16.2949 35.9162 16.1595 36.1366C16.0242 36.3569 15.9548 36.592 15.9513 36.8417C15.9441 37.0892 15.9941 37.3319 16.1014 37.5696C16.2072 37.8014 16.3628 38.0069 16.5682 38.1859Z" fill="#133D3C"/>
<path d="M25.009 26.8354L28.1735 29.5122L27.0906 30.6781L24.2466 28.2724C24.0496 28.1058 23.8281 28.0009 23.5821 27.9578C23.3328 27.9118 23.0888 27.9273 22.8504 28.0044C22.6116 28.0754 22.4049 28.2049 22.2303 28.3928C22.0558 28.5808 21.9444 28.7937 21.8962 29.0317C21.8477 29.2637 21.8623 29.495 21.94 29.7258C22.0174 29.9505 22.1546 30.1462 22.3515 30.3128L25.1955 32.7185L24.1126 33.8844L19.1011 29.6537L20.184 28.4878L20.6341 28.86C20.6047 28.5451 20.6434 28.2307 20.7499 27.917C20.8532 27.6005 21.0261 27.3116 21.2688 27.0504C21.5913 26.7032 21.9758 26.4625 22.4223 26.3282C22.8655 26.1912 23.3157 26.1653 23.773 26.2506C24.2298 26.3299 24.6418 26.5248 25.009 26.8354Z" fill="#133D3C"/>
<path d="M32.0168 23.9187L33.6681 23.6595C33.6814 24.1558 33.5825 24.6353 33.3714 25.0982C33.1602 25.5611 32.8377 25.9528 32.4039 26.2733C31.9172 26.6329 31.3758 26.8418 30.7799 26.8999C30.1874 26.9554 29.6088 26.8715 29.044 26.6481C28.48 26.4188 28.0001 26.0601 27.6041 25.5721C27.3037 25.2018 27.0926 24.806 26.9708 24.3846C26.8462 23.9598 26.8055 23.5377 26.8487 23.1181C26.8927 22.6926 27.0192 22.2923 27.2282 21.9171C27.4372 21.542 27.7234 21.2202 28.0867 20.9518C28.5205 20.6312 28.9986 20.4314 29.5211 20.3522C30.0435 20.273 30.5575 20.3051 31.063 20.4484L30.3825 21.9042C30.1498 21.8608 29.9188 21.8646 29.6894 21.9156C29.4635 21.964 29.2624 22.0534 29.0861 22.1837C28.8322 22.3713 28.6575 22.608 28.5622 22.8938C28.4641 23.1762 28.4439 23.4711 28.5014 23.7785C28.5563 24.0826 28.6875 24.3625 28.895 24.6183C29.0998 24.8707 29.3509 25.062 29.6483 25.1922C29.943 25.319 30.2459 25.3725 30.5569 25.3526C30.868 25.3328 31.1505 25.229 31.4045 25.0414C31.5879 24.9059 31.7324 24.7398 31.8381 24.5433C31.9411 24.3434 32.0006 24.1352 32.0168 23.9187Z" fill="#133D3C"/>
<path d="M39.3482 22.0051C38.7983 22.2691 38.2251 22.3752 37.6285 22.3232C37.0359 22.2694 36.4839 22.0794 35.9724 21.7532C35.4648 21.425 35.0657 20.9852 34.7751 20.4338C34.5566 20.0193 34.4298 19.5941 34.3948 19.1583C34.3577 18.7186 34.4025 18.2968 34.5292 17.8929C34.6578 17.4833 34.8623 17.1135 35.1427 16.7835C35.4231 16.4535 35.7685 16.19 36.179 15.9929C36.6452 15.7691 37.1217 15.6595 37.6084 15.6641C38.0971 15.6629 38.5632 15.7608 39.0065 15.9578C39.4499 16.1547 39.8436 16.4327 40.1876 16.7917C40.5317 17.1507 40.7901 17.5746 40.9629 18.0635L36.5936 20.1611C36.7617 20.3473 36.9546 20.4953 37.1723 20.6053C37.388 20.7114 37.6205 20.7689 37.8699 20.7778C38.1173 20.7829 38.3655 20.7281 38.6146 20.6133C38.8716 20.4947 39.0726 20.3267 39.2177 20.1093C39.3647 19.8862 39.4539 19.6385 39.4851 19.3662L41.1478 18.9825C41.1713 19.605 41.0272 20.1936 40.7155 20.7483C40.4017 21.2992 39.9459 21.7182 39.3482 22.0051ZM35.9956 19.1402L38.9363 17.7284C38.7722 17.5213 38.5703 17.3609 38.3306 17.2472C38.0929 17.1278 37.8414 17.0628 37.5761 17.052C37.3107 17.0412 37.0585 17.0931 36.8194 17.2079C36.5804 17.3227 36.3883 17.484 36.2432 17.6919C36.0961 17.8959 35.9999 18.1255 35.9547 18.3807C35.9115 18.6302 35.9251 18.8834 35.9956 19.1402Z" fill="#133D3C"/>
<path d="M49.0251 12.8325L48.0056 12.3774L48.4931 11.3895L47.3706 11.2656L47.4938 10.1956L48.632 10.3296L48.4166 9.27022L49.5201 9.06589L49.7355 10.1252L50.7254 9.59719L51.2722 10.5431L50.2666 11.0611L51.1058 11.8033L50.3387 12.5893L49.5113 11.8384L49.0251 12.8325Z" fill="#133D3C"/>
</svg>
