<svg width="141" height="141" viewBox="0 0 141 141" fill="none" xmlns="http://www.w3.org/2000/svg">
<path d="M94.1051 70.5267C94.1051 83.4133 83.6585 93.86 70.7718 93.86C57.8852 93.86 47.4385 83.4133 47.4385 70.5267C47.4385 57.64 57.8852 47.1934 70.7718 47.1934C83.6585 47.1934 94.1051 57.64 94.1051 70.5267Z" fill="#133D3C"/>
<path fill-rule="evenodd" clip-rule="evenodd" d="M78.0053 69.5516C75.7299 69.5516 73.656 67.3923 73.656 65.0211V64.0488H71.7893V65.0211C71.7893 66.7458 72.5155 68.3636 73.6551 69.5516H62.1387V71.4961H73.6551C72.5155 72.6841 71.7893 74.3019 71.7893 76.0266V76.9988H73.656V76.0266C73.656 73.6554 75.7299 71.4961 78.0053 71.4961H78.9387V69.5516H78.0053Z" fill="white"/>
<path d="M112.771 70.5254C112.771 47.3294 93.9674 28.5254 70.7715 28.5254C47.5755 28.5254 28.7715 47.3294 28.7715 70.5254C28.7715 93.7214 47.5755 112.525 70.7715 112.525V140.525C32.1116 140.525 0.771484 109.185 0.771484 70.5254C0.771484 31.8655 32.1116 0.525391 70.7715 0.525391C109.431 0.525391 140.771 31.8655 140.771 70.5254C140.771 109.185 109.431 140.525 70.7715 140.525V112.525C93.9674 112.525 112.771 93.7214 112.771 70.5254Z" fill="#133D3C"/>
<path d="M79.6903 10.5051L81.9283 10.7083L77.622 16.0719L77.1554 20.7514L75.2594 20.5792L75.7259 15.8997L72.5566 9.85742L74.7946 10.0606L76.8706 14.0131L79.6903 10.5051Z" fill="white"/>
<path d="M85.1434 22.4985C84.4552 22.3029 83.8795 21.9552 83.4165 21.4557C82.9584 20.9575 82.6489 20.3746 82.4881 19.7071C82.3322 19.0409 82.362 18.3628 82.5774 17.6726C82.7394 17.1538 82.9882 16.696 83.3238 16.2991C83.661 15.8975 84.0526 15.5736 84.4987 15.3273C84.9513 15.0777 85.435 14.9198 85.9498 14.8537C86.4645 14.7876 86.9788 14.8276 87.4925 14.9736C88.076 15.1395 88.5725 15.4102 88.982 15.7857C89.3979 16.1579 89.7116 16.5969 89.923 17.1026C90.1343 17.6084 90.2356 18.145 90.2268 18.7125C90.2179 19.28 90.082 19.8373 89.8189 20.3843L84.3503 18.8296C84.3369 19.116 84.3766 19.3889 84.4693 19.6485C84.5635 19.9033 84.7128 20.1297 84.917 20.3277C85.1228 20.5209 85.3795 20.6639 85.6872 20.7565C86.0049 20.852 86.3165 20.8629 86.6219 20.7891C86.9338 20.7119 87.2171 20.5696 87.4719 20.3622L89.2054 21.3059C88.7036 21.8525 88.0878 22.2422 87.358 22.4752C86.6297 22.7035 85.8915 22.7112 85.1434 22.4985ZM84.6983 17.5061L88.3789 18.5525C88.4132 18.2513 88.3762 17.961 88.268 17.6815C88.1663 17.3986 88.0073 17.1513 87.791 16.9396C87.5747 16.7278 87.317 16.5794 87.0178 16.4943C86.7185 16.4092 86.4202 16.3995 86.1227 16.4653C85.8268 16.5262 85.5526 16.6478 85.3003 16.83C85.0544 17.0088 84.8537 17.2342 84.6983 17.5061Z" fill="white"/>
<path d="M100.739 20.5242L102.415 21.3861L98.7137 27.9447L97.0368 27.0827L97.4202 26.2306C97.067 26.427 96.6829 26.5369 96.2677 26.5604C95.8595 26.5818 95.4447 26.4842 95.0232 26.2676C94.5146 26.0061 94.09 25.6694 93.7492 25.2573C93.4084 24.8452 93.1598 24.3902 93.0034 23.8924C92.8516 23.3969 92.7992 22.8877 92.8461 22.3646C92.8977 21.8439 93.0604 21.3409 93.3343 20.8556C93.5984 20.3878 93.9358 19.9943 94.3464 19.6751C94.7617 19.3583 95.2195 19.1283 95.72 18.9851C96.2206 18.8419 96.7332 18.7923 97.258 18.8365C97.7828 18.8806 98.2903 19.0287 98.7806 19.2807C99.2341 19.5138 99.5853 19.8185 99.8341 20.1946C100.087 20.573 100.256 20.9757 100.34 21.4025L100.739 20.5242ZM95.8519 24.7051C96.2092 24.8888 96.5735 24.9661 96.9446 24.9369C97.3158 24.9076 97.6607 24.7888 97.9793 24.5803C98.3004 24.3674 98.5597 24.0861 98.7571 23.7363C98.957 23.3821 99.0605 23.0207 99.0676 22.6521C99.0772 22.2791 98.9904 21.9355 98.8072 21.6213C98.6285 21.3094 98.3628 21.0628 98.01 20.8815C97.6572 20.7001 97.2849 20.6215 96.8929 20.6457C96.5081 20.6679 96.1471 20.7785 95.8101 20.9775C95.4777 21.179 95.2116 21.4568 95.0117 21.8109C94.8118 22.1651 94.7175 22.5312 94.7287 22.9093C94.7399 23.2874 94.8417 23.6358 95.0341 23.9547C95.2311 24.276 95.5037 24.5261 95.8519 24.7051Z" fill="white"/>
<path d="M101.256 29.6327L106.077 23.7733L107.574 24.8972L107.15 25.4229C107.533 25.3687 107.919 25.3901 108.309 25.4872C108.702 25.5803 109.067 25.7527 109.402 26.0045C109.627 26.1734 109.826 26.3735 110 26.6049L108.223 27.603C108.116 27.4278 107.985 27.2818 107.83 27.1651C107.588 26.9839 107.321 26.8747 107.027 26.8374C106.741 26.7993 106.459 26.8314 106.183 26.9336C105.914 27.035 105.685 27.2008 105.495 27.4311L102.753 30.7566L101.256 29.6327Z" fill="white"/>
<path d="M108.337 35.6723C108.077 35.3733 107.867 35.0477 107.704 34.6953C107.55 34.3431 107.459 33.9875 107.434 33.6284C107.408 33.2693 107.463 32.9266 107.598 32.6001L109.201 33.2672C109.168 33.3787 109.156 33.5224 109.166 33.6984C109.179 33.8709 109.223 34.0495 109.298 34.2344C109.377 34.4228 109.497 34.5983 109.657 34.7609C109.793 34.8983 109.94 35.0114 110.099 35.1002C110.266 35.1892 110.429 35.2342 110.587 35.2351C110.749 35.2397 110.896 35.1824 111.028 35.0632C111.168 34.9371 111.23 34.7931 111.213 34.631C111.203 34.4691 111.148 34.3006 111.046 34.1256C110.952 33.9508 110.858 33.783 110.764 33.6223C110.497 33.2142 110.292 32.7939 110.151 32.3613C110.014 31.9323 109.975 31.5202 110.035 31.1249C110.102 30.7298 110.307 30.3789 110.647 30.0724C111.022 29.7351 111.439 29.5379 111.897 29.4805C112.359 29.4268 112.814 29.4853 113.261 29.656C113.712 29.8304 114.113 30.0947 114.463 30.4488C114.887 30.8789 115.182 31.358 115.346 31.8861C115.517 32.4144 115.536 32.9366 115.402 33.4528L113.721 32.9891C113.762 32.8567 113.776 32.7113 113.762 32.5528C113.753 32.3909 113.715 32.23 113.65 32.0701C113.589 31.9068 113.5 31.7584 113.382 31.6251C113.229 31.4557 113.068 31.3211 112.898 31.2215C112.728 31.1218 112.557 31.0713 112.384 31.0699C112.214 31.0722 112.054 31.1414 111.902 31.2777C111.758 31.4071 111.704 31.5584 111.739 31.7316C111.778 31.9013 111.853 32.0791 111.965 32.2649C112.081 32.4544 112.186 32.6401 112.28 32.8219C112.484 33.2387 112.644 33.6578 112.76 34.0791C112.879 34.5041 112.907 34.9054 112.844 35.283C112.781 35.6607 112.584 35.9907 112.255 36.273C111.888 36.6034 111.463 36.7881 110.979 36.8272C110.5 36.8628 110.024 36.7791 109.551 36.5761C109.083 36.3766 108.678 36.0754 108.337 35.6723Z" fill="white"/>
<path d="M115.659 44.2313L125.353 39.416L128.517 45.2178L126.827 46.057L124.542 41.8676L122.576 42.8444L124.389 46.1682L122.699 47.0074L120.887 43.6837L118.228 45.0044L120.513 49.1938L118.823 50.0331L115.659 44.2313Z" fill="white"/>
<path d="M119.906 52.3296L124.479 53.8705L127.399 50.2148L128.072 52.3631L126.37 54.4972L129.023 55.3964L129.696 57.5447L125.152 56.0188L122.216 59.7024L121.543 57.5541L123.274 55.3807L120.579 54.4779L119.906 52.3296Z" fill="white"/>
<path d="M118.976 63.9744L118.806 62.164L130.469 61.1696L130.638 62.98L129.651 63.0642C130.026 63.2766 130.339 63.5491 130.589 63.8817C130.846 64.2189 130.996 64.6249 131.04 65.0997C131.091 65.6439 131.033 66.16 130.864 66.648C130.696 67.1361 130.439 67.5743 130.094 67.9627C129.754 68.3556 129.348 68.672 128.874 68.9119C128.4 69.1567 127.881 69.3032 127.316 69.3513C126.751 69.3995 126.21 69.3434 125.694 69.183C125.178 69.0276 124.714 68.7854 124.301 68.4566C123.895 68.1323 123.563 67.7442 123.307 67.2924C123.05 66.8406 122.897 66.3426 122.846 65.7985C122.801 65.3236 122.871 64.8988 123.055 64.5241C123.245 64.1539 123.505 63.8325 123.835 63.5601L118.976 63.9744ZM129.211 65.2333C129.176 64.8573 129.041 64.5298 128.806 64.2507C128.576 63.9711 128.282 63.7618 127.924 63.6228C127.566 63.4838 127.18 63.432 126.765 63.4673C126.351 63.5027 125.978 63.6193 125.646 63.8171C125.32 64.0144 125.067 64.2703 124.887 64.5848C124.713 64.8988 124.643 65.2438 124.678 65.6198C124.714 66.0006 124.848 66.3408 125.08 66.6401C125.311 66.9395 125.607 67.1685 125.967 67.3273C126.332 67.4857 126.724 67.547 127.144 67.5112C127.559 67.4758 127.928 67.3496 128.253 67.1324C128.577 66.9153 128.826 66.6398 128.998 66.306C129.176 65.9767 129.247 65.6191 129.211 65.2333Z" fill="white"/>
<path d="M122.813 75.7453C122.896 75.0646 123.156 74.4636 123.591 73.9421C124.027 73.4257 124.575 73.0343 125.236 72.768C125.897 72.5067 126.602 72.4178 127.352 72.5014C127.915 72.5642 128.43 72.7192 128.898 72.9663C129.371 73.2141 129.772 73.5264 130.103 73.9033C130.439 74.2857 130.685 74.7132 130.842 75.1857C130.999 75.6582 131.047 76.1485 130.985 76.6566C130.914 77.2337 130.72 77.7471 130.403 78.1968C130.091 78.652 129.692 79.0225 129.206 79.3083C128.72 79.5942 128.184 79.7819 127.597 79.8714C127.009 79.9609 126.411 79.9292 125.801 79.7761L126.463 74.3674C126.165 74.4041 125.89 74.4885 125.638 74.6204C125.391 74.7529 125.183 74.9322 125.014 75.1583C124.85 75.3851 124.747 75.651 124.704 75.9563C124.661 76.2714 124.703 76.5662 124.832 76.8405C124.965 77.1204 125.161 77.3622 125.419 77.566L124.744 79.3583C124.093 78.9807 123.585 78.469 123.218 77.8231C122.857 77.1779 122.722 76.4853 122.813 75.7453ZM127.889 74.4664L127.443 78.1068C127.76 78.0871 128.053 78.0023 128.323 77.8524C128.598 77.708 128.825 77.5159 129.007 77.2761C129.188 77.0363 129.297 76.7684 129.333 76.4724C129.369 76.1765 129.328 75.8944 129.209 75.6261C129.095 75.3584 128.922 75.1216 128.691 74.9158C128.464 74.7155 128.196 74.5657 127.889 74.4664Z" fill="white"/>
<path d="M121.883 82.3553L129.375 84.4452L128.839 86.1894L128.17 86.0099C128.365 86.3284 128.488 86.6785 128.539 87.0602C128.595 87.4433 128.562 87.8302 128.442 88.221C128.362 88.4831 128.241 88.734 128.081 88.9737L126.449 87.7716C126.58 87.6115 126.673 87.4409 126.728 87.2598C126.815 86.9787 126.822 86.7011 126.749 86.427C126.679 86.1591 126.543 85.9218 126.341 85.7151C126.142 85.5146 125.896 85.3731 125.601 85.2906L121.347 84.0995L121.883 82.3553Z" fill="white"/>
<path d="M126.899 91.6973L126.163 93.3735L118.964 90.4925L119.701 88.8163L126.899 91.6973ZM127.454 92.9208C127.562 92.6735 127.738 92.4987 127.98 92.3965C128.227 92.2962 128.481 92.2979 128.74 92.4016C128.994 92.5034 129.171 92.6736 129.269 92.9122C129.367 93.1508 129.363 93.3915 129.256 93.6342C129.15 93.8769 128.974 94.0462 128.728 94.1419C128.481 94.2422 128.23 94.2415 127.976 94.1397C127.717 94.0359 127.537 93.8671 127.437 93.6331C127.341 93.401 127.347 93.1635 127.454 92.9208Z" fill="white"/>
<path d="M116.004 95.6331C116.373 95.0455 116.869 94.5997 117.491 94.2957C118.111 93.996 118.779 93.8548 119.497 93.8719C120.211 93.8934 120.892 94.0894 121.539 94.46C122.026 94.7386 122.429 95.0823 122.748 95.4912C123.072 95.9026 123.303 96.3452 123.442 96.8187C123.583 97.2991 123.623 97.7855 123.563 98.2777C123.502 98.77 123.334 99.2355 123.058 99.674C122.744 100.172 122.346 100.564 121.863 100.849C121.382 101.141 120.859 101.322 120.293 101.392C119.727 101.462 119.157 101.422 118.583 101.273C118.01 101.124 117.478 100.859 116.988 100.48L119.925 95.8114C119.637 95.7279 119.35 95.6967 119.064 95.718C118.782 95.7418 118.515 95.8235 118.263 95.9631C118.016 96.1053 117.807 96.3071 117.637 96.5686C117.461 96.8385 117.372 97.1238 117.371 97.4245C117.372 97.732 117.446 98.0292 117.593 98.3163L116.205 99.6843C115.775 99.0846 115.532 98.4185 115.477 97.6861C115.426 96.9561 115.602 96.2718 116.004 95.6331ZM121.181 96.4619L119.205 99.6044C119.502 99.7109 119.806 99.7488 120.117 99.7182C120.429 99.6944 120.719 99.6089 120.988 99.4616C121.257 99.3143 121.471 99.1129 121.632 98.8574C121.793 98.6019 121.877 98.3285 121.884 98.0373C121.896 97.7485 121.84 97.4649 121.718 97.1864C121.598 96.9146 121.419 96.6732 121.181 96.4619Z" fill="white"/>
<path d="M111.193 109.609L107.536 106.45L108.814 105.102L112.101 107.941C112.329 108.138 112.586 108.263 112.872 108.316C113.162 108.373 113.447 108.357 113.726 108.27C114.006 108.19 114.249 108.041 114.455 107.824C114.661 107.607 114.793 107.36 114.853 107.083C114.912 106.813 114.898 106.543 114.81 106.273C114.723 106.009 114.565 105.78 114.338 105.583L111.05 102.744L112.328 101.396L118.121 106.389L116.843 107.737L116.323 107.298C116.353 107.665 116.304 108.032 116.176 108.396C116.051 108.764 115.846 109.099 115.559 109.401C115.179 109.803 114.727 110.079 114.204 110.231C113.686 110.385 113.16 110.41 112.628 110.306C112.096 110.208 111.618 109.976 111.193 109.609Z" fill="white"/>
<path d="M102.979 112.93L101.049 113.213C101.04 112.634 101.161 112.076 101.413 111.539C101.666 111.001 102.047 110.548 102.557 110.179C103.129 109.765 103.764 109.528 104.46 109.467C105.151 109.409 105.825 109.513 106.481 109.78C107.137 110.055 107.692 110.479 108.148 111.052C108.493 111.488 108.735 111.952 108.871 112.445C109.011 112.942 109.053 113.435 108.998 113.924C108.941 114.42 108.788 114.886 108.54 115.321C108.291 115.756 107.953 116.128 107.526 116.437C107.016 116.806 106.455 117.034 105.845 117.12C105.234 117.206 104.635 117.163 104.047 116.99L104.86 115.299C105.131 115.353 105.4 115.351 105.668 115.294C105.932 115.24 106.168 115.138 106.376 114.988C106.674 114.772 106.881 114.498 106.996 114.166C107.114 113.838 107.141 113.494 107.078 113.134C107.018 112.779 106.868 112.451 106.63 112.15C106.394 111.853 106.103 111.627 105.758 111.472C105.416 111.321 105.063 111.255 104.7 111.274C104.337 111.294 104.006 111.412 103.707 111.628C103.492 111.784 103.321 111.976 103.195 112.204C103.072 112.436 103 112.678 102.979 112.93Z" fill="white"/>
<path d="M94.4004 115.076C95.0453 114.775 95.7154 114.658 96.4107 114.725C97.1014 114.795 97.743 115.023 98.3355 115.41C98.9234 115.798 99.3833 116.316 99.7153 116.963C99.9649 117.449 100.107 117.946 100.143 118.455C100.18 118.969 100.123 119.46 99.9696 119.93C99.8143 120.406 99.571 120.835 99.2396 121.217C98.9082 121.599 98.5019 121.902 98.0205 122.127C97.4738 122.383 96.9165 122.505 96.3487 122.494C95.7785 122.49 95.2361 122.37 94.7214 122.135C94.2067 121.9 93.751 121.571 93.3543 121.148C92.9575 120.726 92.6615 120.228 92.4662 119.656L97.5903 117.26C97.3966 117.041 97.1735 116.866 96.9209 116.735C96.6707 116.609 96.4001 116.539 96.1093 116.525C95.8208 116.516 95.5305 116.578 95.2385 116.709C94.9371 116.844 94.7004 117.038 94.5284 117.289C94.354 117.548 94.2468 117.836 94.2069 118.153L92.2623 118.581C92.2428 117.855 92.4185 117.17 92.7893 116.527C93.1624 115.887 93.6995 115.404 94.4004 115.076ZM98.2749 118.458L94.8261 120.07C95.0149 120.314 95.2484 120.503 95.5265 120.639C95.8023 120.781 96.0949 120.86 96.4043 120.875C96.7137 120.891 97.0086 120.833 97.289 120.702C97.5693 120.571 97.7955 120.385 97.9674 120.144C98.1416 119.908 98.2568 119.641 98.3128 119.344C98.3665 119.054 98.3538 118.758 98.2749 118.458Z" fill="white"/>
<path d="M83.0045 125.662L84.188 126.205L83.6068 127.352L84.9148 127.509L84.7575 128.756L83.4314 128.587L83.6693 129.825L82.3794 130.051L82.1415 128.813L80.9799 129.417L80.354 128.307L81.5338 127.715L80.564 126.839L81.4689 125.931L82.4247 126.817L83.0045 125.662Z" fill="white"/>
<path d="M62.5316 130.616L60.2914 130.436L64.5391 125.03L64.9546 120.346L66.8525 120.499L66.437 125.183L69.6719 131.193L67.4318 131.012L65.3129 127.081L62.5316 130.616Z" fill="white"/>
<path d="M56.9473 118.678C57.6377 118.867 58.2172 119.209 58.6857 119.703C59.1493 120.197 59.4652 120.777 59.6334 121.443C59.7966 122.107 59.7743 122.786 59.5665 123.478C59.4103 123.998 59.1665 124.459 58.8353 124.859C58.5026 125.264 58.1146 125.592 57.6712 125.842C57.2214 126.097 56.7395 126.259 56.2255 126.331C55.7115 126.402 55.1968 126.367 54.6815 126.226C54.0962 126.066 53.5968 125.8 53.1831 125.429C52.7631 125.061 52.4446 124.625 52.2277 124.122C52.0107 123.618 51.9036 123.083 51.9061 122.515C51.9087 121.947 52.0385 121.389 52.2955 120.839L57.781 122.339C57.7912 122.052 57.7485 121.78 57.6529 121.521C57.5559 121.267 57.4042 121.042 57.1977 120.847C56.9898 120.655 56.7315 120.515 56.4228 120.425C56.1041 120.333 55.7924 120.325 55.4878 120.402C55.1768 120.483 54.8951 120.628 54.6426 120.838L52.8988 119.911C53.3945 119.36 54.006 118.964 54.7331 118.724C55.4589 118.488 56.1969 118.473 56.9473 118.678ZM57.4476 123.666L53.7556 122.656C53.7246 122.958 53.7648 123.248 53.8761 123.526C53.981 123.808 54.1427 124.054 54.3613 124.263C54.5799 124.473 54.8393 124.619 55.1394 124.701C55.4396 124.783 55.738 124.79 56.0347 124.721C56.33 124.657 56.6028 124.533 56.8531 124.348C57.097 124.167 57.2952 123.939 57.4476 123.666Z" fill="white"/>
<path d="M41.3728 120.808L39.6865 119.963L43.3162 113.368L45.0024 114.213L44.6284 115.069C44.9794 114.869 45.3624 114.755 45.7773 114.728C46.1852 114.702 46.601 114.796 47.0249 115.008C47.5363 115.264 47.9646 115.597 48.3099 116.006C48.6552 116.414 48.9087 116.867 49.0706 117.363C49.2278 117.857 49.2859 118.366 49.2446 118.889C49.1988 119.41 49.0416 119.915 48.773 120.403C48.5141 120.873 48.1811 121.27 47.7739 121.593C47.3622 121.914 46.9069 122.149 46.408 122.297C45.909 122.445 45.397 122.5 44.8717 122.461C44.3464 122.422 43.8373 122.279 43.3444 122.032C42.8882 121.803 42.5337 121.502 42.2809 121.129C42.0234 120.753 41.8502 120.352 41.7613 119.926L41.3728 120.808ZM46.2134 116.579C45.854 116.399 45.489 116.325 45.1181 116.358C44.7473 116.391 44.4038 116.513 44.0874 116.725C43.7687 116.941 43.5125 117.225 43.3189 117.576C43.1229 117.933 43.0234 118.295 43.0203 118.664C43.0148 119.037 43.1054 119.38 43.2921 119.692C43.4741 120.002 43.7425 120.246 44.0973 120.424C44.452 120.601 44.8253 120.676 45.2169 120.648C45.6015 120.622 45.9612 120.508 46.296 120.306C46.6262 120.101 46.8893 119.82 47.0853 119.464C47.2813 119.108 47.3716 118.741 47.3562 118.363C47.3408 117.985 47.2352 117.638 47.0393 117.321C46.8389 117.002 46.5635 116.754 46.2134 116.579Z" fill="white"/>
<path d="M40.7578 111.709L36.0015 117.616L34.4924 116.507L34.9101 115.977C34.5284 116.035 34.1419 116.018 33.7507 115.924C33.3564 115.835 32.9902 115.666 32.6521 115.418C32.4253 115.251 32.2239 115.053 32.0479 114.823L33.8132 113.808C33.9223 113.982 34.0552 114.127 34.2118 114.242C34.4551 114.421 34.7238 114.527 35.0179 114.561C35.3047 114.597 35.5857 114.562 35.8608 114.457C36.1287 114.353 36.3563 114.185 36.5436 113.953L39.2487 110.6L40.7578 111.709Z" fill="white"/>
<path d="M33.6114 105.736C33.8741 106.032 34.0885 106.356 34.2544 106.706C34.4129 107.057 34.507 107.412 34.5366 107.77C34.5662 108.129 34.5151 108.473 34.3834 108.8L32.7734 108.149C32.8051 108.037 32.8153 107.893 32.8042 107.718C32.7892 107.545 32.7431 107.367 32.6659 107.183C32.585 106.995 32.4634 106.821 32.301 106.66C32.1639 106.524 32.0152 106.412 31.855 106.325C31.6875 106.238 31.5246 106.194 31.3663 106.195C31.2044 106.192 31.0579 106.251 30.9266 106.371C30.7879 106.499 30.7279 106.643 30.7468 106.805C30.7582 106.967 30.8156 107.135 30.9188 107.309C31.0147 107.483 31.1107 107.65 31.2068 107.81C31.4784 108.215 31.6871 108.633 31.833 109.064C31.9753 109.492 32.0186 109.904 31.9627 110.3C31.8996 110.695 31.6992 111.048 31.3618 111.358C30.9905 111.699 30.5761 111.9 30.1185 111.962C29.6573 112.021 29.202 111.967 28.7526 111.8C28.2997 111.63 27.8964 111.37 27.5428 111.019C27.1134 110.594 26.8138 110.117 26.644 109.591C26.4669 109.064 26.4425 108.542 26.5707 108.025L28.2565 108.472C28.217 108.605 28.2049 108.75 28.2201 108.909C28.2316 109.07 28.2707 109.231 28.3374 109.39C28.4004 109.553 28.4913 109.7 28.6101 109.832C28.7649 110 28.9279 110.133 29.0989 110.231C29.2699 110.329 29.4419 110.378 29.6149 110.378C29.7843 110.374 29.944 110.303 30.0939 110.165C30.2364 110.034 30.2892 109.883 30.2522 109.71C30.2114 109.54 30.134 109.363 30.0199 109.179C29.9023 108.99 29.7956 108.806 29.6999 108.625C29.4911 108.21 29.3265 107.793 29.2061 107.372C29.0822 106.949 29.0497 106.548 29.1089 106.169C29.168 105.791 29.3606 105.459 29.6865 105.174C30.0502 104.84 30.4736 104.651 30.9566 104.607C31.4359 104.567 31.9128 104.646 32.3872 104.844C32.8581 105.039 33.2662 105.336 33.6114 105.736Z" fill="white"/>
<path d="M26.197 97.2501L16.5566 102.162L13.3287 96.3923L15.0089 95.5362L17.3398 99.7026L19.2954 98.7061L17.4461 95.4007L19.1263 94.5446L20.9756 97.8501L23.6198 96.5028L21.2889 92.3364L22.9691 91.4803L26.197 97.2501Z" fill="white"/>
<path d="M21.8588 89.1968L17.2692 87.702L14.3895 91.3869L13.6928 89.2454L15.3714 87.0943L12.7089 86.2218L12.0122 84.0804L16.5724 85.5605L19.4675 81.8477L20.1643 83.9891L18.4577 86.1797L21.162 87.0554L21.8588 89.1968Z" fill="white"/>
<path d="M22.6618 77.5464L22.851 79.3551L11.2 80.4651L11.0108 78.6565L11.9972 78.5625C11.6198 78.3539 11.304 78.0845 11.0498 77.7544C10.7899 77.4198 10.6351 77.0153 10.5855 76.5409C10.5286 75.9973 10.5818 75.4806 10.745 74.9909C10.9082 74.5012 11.1602 74.0605 11.501 73.6686C11.8361 73.2724 12.2392 72.952 12.7105 72.7074C13.1812 72.4579 13.6988 72.3063 14.2632 72.2525C14.8277 72.1988 15.369 72.2495 15.8873 72.4047C16.4051 72.5551 16.8719 72.7926 17.2876 73.1173C17.6977 73.4376 18.0334 73.8224 18.2948 74.2716C18.5563 74.7208 18.7154 75.2172 18.7723 75.7608C18.8219 76.2352 18.7566 76.6607 18.5763 77.0372C18.3904 77.4093 18.134 77.7332 17.8072 78.0089L22.6618 77.5464ZM12.4132 76.3892C12.4524 76.7648 12.5912 77.0909 12.8293 77.3677C13.0623 77.645 13.3584 77.8513 13.7178 77.9868C14.0771 78.1222 14.4639 78.1702 14.8782 78.1308C15.2924 78.0913 15.6642 77.971 15.9936 77.7699C16.3178 77.5694 16.5679 77.311 16.744 76.9947C16.915 76.679 16.9808 76.3333 16.9415 75.9577C16.9017 75.5772 16.7643 75.2384 16.5292 74.9414C16.2942 74.6444 15.996 74.4183 15.6346 74.263C15.268 74.1083 14.875 74.0509 14.4555 74.0909C14.0413 74.1303 13.6731 74.2603 13.351 74.4806C13.0289 74.701 12.7834 74.9789 12.6145 75.3144C12.4399 75.6455 12.3728 76.0037 12.4132 76.3892Z" fill="white"/>
<path d="M18.6985 65.8079C18.6226 66.4895 18.3696 67.0931 17.9394 67.6188C17.5098 68.1395 16.9658 68.5363 16.3075 68.8091C15.6496 69.077 14.9455 69.1729 14.1952 69.0967C13.6311 69.0395 13.114 68.8896 12.6439 68.6471C12.1685 68.4041 11.7633 68.0958 11.4281 67.7222C11.0883 67.3431 10.8374 66.9181 10.6753 66.4472C10.5132 65.9762 10.4605 65.4864 10.5172 64.9778C10.5815 64.4 10.7698 63.8847 11.0819 63.4319C11.3894 62.9737 11.7843 62.5992 12.2668 62.3086C12.7492 62.0179 13.2836 61.8249 13.8699 61.7296C14.4562 61.6342 15.0551 61.66 15.6667 61.807L15.0634 67.2221C15.3609 67.1823 15.6349 67.0953 15.8854 66.9609C16.1307 66.8259 16.3367 66.6446 16.5033 66.4168C16.6649 66.1884 16.7652 65.9214 16.8045 65.6158C16.8449 65.3002 16.7992 65.0059 16.6674 64.7328C16.531 64.4543 16.3327 64.2144 16.0725 64.0132L16.7282 62.2144C17.3829 62.5855 17.8969 63.0921 18.2702 63.7343C18.6383 64.376 18.781 65.0672 18.6985 65.8079ZM13.6363 67.1372L14.0424 63.4926C13.7259 63.5154 13.4335 63.6031 13.1653 63.7557C12.8925 63.9028 12.6667 64.0971 12.488 64.3387C12.3094 64.5803 12.2035 64.8492 12.1705 65.1455C12.1375 65.4419 12.182 65.7236 12.304 65.9906C12.4208 66.2572 12.5961 66.4922 12.8299 66.6958C13.059 66.8938 13.3278 67.041 13.6363 67.1372Z" fill="white"/>
<path d="M19.5546 59.192L12.0395 57.1777L12.5563 55.4282L13.2271 55.601C13.0287 55.2844 12.9019 54.9356 12.8469 54.5544C12.7869 54.1719 12.8148 53.7847 12.9306 53.3927C13.0083 53.1298 13.126 52.8777 13.2838 52.6364L14.9287 53.822C14.7999 53.9834 14.7086 54.1549 14.655 54.3366C14.5717 54.6186 14.568 54.8962 14.6441 55.1696C14.7166 55.4367 14.855 55.6726 15.0595 55.8773C15.2604 56.0758 15.5086 56.2148 15.8041 56.2944L20.0715 57.4426L19.5546 59.192Z" fill="white"/>
<path d="M14.4383 49.8985L15.1566 48.215L22.3862 51.0244L21.6679 52.7078L14.4383 49.8985ZM13.8707 48.6805C13.7648 48.9289 13.5911 49.1054 13.3498 49.2101C13.1037 49.3128 12.8505 49.3136 12.5902 49.2125C12.3348 49.1132 12.1566 48.9448 12.0557 48.7072C11.9548 48.4696 11.9564 48.2289 12.0604 47.9851C12.1644 47.7413 12.3385 47.5703 12.5826 47.4722C12.8288 47.3694 13.0796 47.3677 13.335 47.4669C13.5953 47.5681 13.7768 47.7352 13.8797 47.9682C13.9777 48.1993 13.9747 48.4368 13.8707 48.6805Z" fill="white"/>
<path d="M25.2874 45.8529C24.9242 46.4442 24.4332 46.8949 23.8145 47.205C23.1983 47.5108 22.5314 47.6587 21.8137 47.6487C21.0987 47.6344 20.4157 47.4452 19.7647 47.081C19.2753 46.8072 18.8687 46.4675 18.5448 46.0618C18.2165 45.6537 17.9801 45.2135 17.8358 44.7413C17.6897 44.2623 17.6443 43.7764 17.6997 43.2836C17.7551 42.7907 17.9184 42.3236 18.1894 41.8823C18.4973 41.381 18.8911 40.9854 19.3709 40.6953C19.8488 40.3985 20.3702 40.2124 20.9353 40.1371C21.5003 40.0617 22.0706 40.0957 22.646 40.2392C23.2214 40.3826 23.7561 40.6414 24.2501 41.0157L21.3646 45.7136C21.6528 45.7943 21.9401 45.8226 22.2263 45.7985C22.5081 45.7719 22.774 45.6875 23.0242 45.5454C23.2699 45.4007 23.4765 45.1968 23.6442 44.9337C23.8171 44.662 23.9024 44.3758 23.9001 44.0752C23.8959 43.7677 23.8186 43.4712 23.6683 43.1857L25.0418 41.8039C25.4784 42.3993 25.7282 43.0629 25.7914 43.7948C25.8501 44.5242 25.6821 45.2102 25.2874 45.8529ZM20.1006 45.0756L22.0428 41.9137C21.7444 41.8101 21.4402 41.7752 21.1299 41.8089C20.8178 41.8358 20.5283 41.9242 20.2612 42.0742C19.9942 42.2241 19.7817 42.4277 19.6238 42.6847C19.4659 42.9418 19.385 43.216 19.3809 43.5073C19.3724 43.7962 19.4308 44.0792 19.5561 44.3565C19.6795 44.627 19.861 44.8667 20.1006 45.0756Z" fill="white"/>
<path d="M29.9487 31.8347L33.6405 34.9576L32.3771 36.3178L29.0592 33.5112C28.8294 33.3168 28.571 33.1944 28.284 33.1441C27.993 33.0905 27.7085 33.1086 27.4303 33.1984C27.1517 33.2813 26.9105 33.4324 26.7069 33.6516C26.5032 33.8709 26.3733 34.1194 26.3171 34.397C26.2604 34.6677 26.2775 34.9376 26.3682 35.2068C26.4584 35.4689 26.6185 35.6972 26.8482 35.8916L30.1662 38.6983L28.9028 40.0585L23.0561 35.1227L24.3195 33.7625L24.8446 34.1967C24.8103 33.8293 24.8554 33.4626 24.9798 33.0966C25.1002 32.7273 25.302 32.3903 25.585 32.0855C25.9613 31.6804 26.4099 31.3996 26.9309 31.243C27.4479 31.0831 27.9732 31.0529 28.5066 31.1524C29.0396 31.2449 29.5203 31.4723 29.9487 31.8347Z" fill="white"/>
<path d="M38.1244 28.4292L40.051 28.1269C40.0665 28.7058 39.9511 29.2653 39.7047 29.8053C39.4584 30.3453 39.0821 30.8023 38.576 31.1763C38.0082 31.5959 37.3766 31.8395 36.6813 31.9073C35.9901 31.9721 35.3151 31.8741 34.6562 31.6136C33.9982 31.3461 33.4382 30.9276 32.9763 30.3582C32.6258 29.9262 32.3795 29.4644 32.2374 28.9728C32.092 28.4772 32.0445 27.9847 32.095 27.4952C32.1463 26.9988 32.2939 26.5317 32.5378 26.094C32.7816 25.6564 33.1154 25.281 33.5393 24.9678C34.0454 24.5938 34.6032 24.3607 35.2127 24.2683C35.8223 24.176 36.4219 24.2134 37.0117 24.3806L36.2177 26.079C35.9462 26.0283 35.6767 26.0327 35.4091 26.0923C35.1456 26.1488 34.911 26.253 34.7053 26.4051C34.409 26.624 34.2052 26.9001 34.094 27.2335C33.9796 27.563 33.956 27.9071 34.0232 28.2657C34.0871 28.6204 34.2402 28.947 34.4823 29.2454C34.7213 29.5399 35.0142 29.7631 35.3612 29.915C35.705 30.063 36.0583 30.1254 36.4212 30.1022C36.7842 30.079 37.1137 29.9579 37.41 29.739C37.624 29.5809 37.7926 29.3872 37.9159 29.158C38.0361 28.9247 38.1055 28.6818 38.1244 28.4292Z" fill="white"/>
<path d="M46.6773 26.1977C46.0357 26.5057 45.367 26.6294 44.6709 26.5689C43.9796 26.5061 43.3355 26.2844 42.7387 25.9037C42.1466 25.5209 41.681 25.0078 41.3419 24.3645C41.087 23.8809 40.9391 23.3849 40.8982 22.8764C40.855 22.3634 40.9073 21.8713 41.055 21.4001C41.2051 20.9223 41.4437 20.4908 41.7708 20.1058C42.098 19.7208 42.501 19.4134 42.9798 19.1835C43.5237 18.9224 44.0796 18.7945 44.6475 18.7998C45.2177 18.7985 45.7614 18.9127 46.2786 19.1425C46.7959 19.3722 47.2552 19.6965 47.6566 20.1154C48.0579 20.5342 48.3594 21.0288 48.561 21.5991L43.4636 24.0464C43.6596 24.2636 43.8847 24.4363 44.1387 24.5645C44.3903 24.6883 44.6616 24.7554 44.9526 24.7658C45.2412 24.7718 45.5307 24.7079 45.8213 24.5739C46.1212 24.4355 46.3557 24.2395 46.525 23.9859C46.6965 23.7257 46.8005 23.4367 46.8369 23.119L48.7767 22.6714C48.8042 23.3976 48.6361 24.0843 48.2724 24.7314C47.9063 25.3742 47.3746 25.8629 46.6773 26.1977ZM42.7658 22.8553L46.1967 21.2082C46.0052 20.9666 45.7697 20.7794 45.4901 20.6468C45.2128 20.5076 44.9193 20.4316 44.6098 20.419C44.3002 20.4064 44.0059 20.4671 43.727 20.601C43.4481 20.7349 43.224 20.9231 43.0547 21.1656C42.8831 21.4036 42.7709 21.6715 42.7182 21.9693C42.6677 22.2603 42.6836 22.5557 42.7658 22.8553Z" fill="white"/>
<path d="M57.9671 15.4963L56.7777 14.9653L57.3465 13.8128L56.0369 13.6683L56.1806 12.4199L57.5085 12.5762L57.2572 11.3403L58.5446 11.1019L58.7959 12.3378L59.9508 11.7218L60.5887 12.8254L59.4155 13.4297L60.3946 14.2956L59.4997 15.2125L58.5343 14.3365L57.9671 15.4963Z" fill="white"/>
</svg>
