<svg width="30" height="30" viewBox="0 0 30 30" fill="none" xmlns="http://www.w3.org/2000/svg">
<g clip-path="url(#clip0_245_2747)">
<path d="M16.0053 14.7854C15.6875 14.9234 15.3447 14.9946 14.9982 14.9946C14.6517 14.9946 14.3089 14.9234 13.9911 14.7854L1.77678 9.12826C1.57844 9.02822 1.41176 8.87509 1.2953 8.68592C1.17885 8.49675 1.11719 8.27897 1.11719 8.05683C1.11719 7.83469 1.17885 7.61691 1.2953 7.42774C1.41176 7.23857 1.57844 7.08544 1.77678 6.9854L13.9911 1.2854C14.3089 1.14739 14.6517 1.07617 14.9982 1.07617C15.3447 1.07617 15.6875 1.14739 16.0053 1.2854L28.2196 6.94255C28.418 7.04258 28.5847 7.19572 28.7011 7.38488C28.8176 7.57405 28.8792 7.79183 28.8792 8.01397C28.8792 8.23612 28.8176 8.4539 28.7011 8.64307C28.5847 8.83223 28.418 8.98536 28.2196 9.0854L16.0053 14.7854Z" stroke="#133D3C" stroke-width="1.5" stroke-linecap="round" stroke-linejoin="round"/>
<path d="M28.9275 15.75L15.856 21.7714C15.5769 21.8988 15.2736 21.9647 14.9667 21.9647C14.6599 21.9647 14.3566 21.8988 14.0775 21.7714L1.07031 15.75" stroke="#133D3C" stroke-width="1.5" stroke-linecap="round" stroke-linejoin="round"/>
<path d="M28.9275 22.7148L15.856 28.7363C15.5769 28.8636 15.2736 28.9295 14.9667 28.9295C14.6599 28.9295 14.3566 28.8636 14.0775 28.7363L1.07031 22.7148" stroke="#133D3C" stroke-width="1.5" stroke-linecap="round" stroke-linejoin="round"/>
</g>
<defs>
<clipPath id="clip0_245_2747">
<rect width="30" height="30" fill="white"/>
</clipPath>
</defs>
</svg>
