<svg width="24" height="24" viewBox="0 0 24 24" fill="none" xmlns="http://www.w3.org/2000/svg">
<g clip-path="url(#clip0_245_3529)">
<path d="M22.8768 14.7008L20.612 9.89489V9.81512C20.612 4.35179 16.1833 0 10.7907 0C5.39923 0 0.975586 4.35844 0.975586 9.81511C0.975586 12.6828 2.22159 15.399 4.39375 17.2677C6.18557 18.809 7.21324 20.9582 7.21324 23.1647V23.6206C7.21324 23.8301 7.38316 24 7.5926 24H17.2909C17.5003 24 17.6703 23.8301 17.6703 23.6206V19.6362H18.4201C19.4606 19.6362 20.307 18.7898 20.307 17.7493V16.5541H21.7525C22.723 16.5541 23.3191 15.508 22.8768 14.7008ZM21.7525 15.7954H19.9276C19.7182 15.7954 19.5483 15.9653 19.5483 16.1748V17.7493C19.5483 18.3714 19.0422 18.8774 18.4201 18.8774H17.2909C17.0815 18.8774 16.9115 19.0474 16.9115 19.2568V23.2413H7.97196V23.1647C7.97196 20.7369 6.84821 18.3781 4.8887 16.6927C2.88398 14.9683 1.73431 12.4615 1.73431 9.81511C1.73431 4.78063 5.8161 0.75871 10.7907 0.75871C15.7512 0.75871 19.8533 4.76004 19.8533 9.81511V9.97985C19.8533 10.0357 19.8656 10.091 19.8896 10.1416L22.2008 15.0444C22.3877 15.387 22.133 15.7954 21.7525 15.7954Z" fill="#133D3C"/>
<path d="M12.8306 10.3376V4.14164C12.8306 2.80352 11.7419 1.71484 10.4038 1.71484C9.0657 1.71484 7.97702 2.80351 7.97702 4.14164V10.3376C6.78536 11.2084 6.15408 12.6423 6.32153 14.1296C6.53196 16.0027 8.04444 17.5192 9.91801 17.7355C12.4127 18.0213 14.513 16.0756 14.513 13.6527C14.513 12.3349 13.8879 11.1106 12.8306 10.3376ZM10.005 16.9817C8.47888 16.8056 7.24696 15.5705 7.07531 14.0447C6.93231 12.7735 7.50307 11.5507 8.56458 10.8532C8.67152 10.7831 8.73573 10.6638 8.73573 10.5361V4.14164C8.73573 3.22189 9.48407 2.47355 10.4038 2.47355C11.3236 2.47355 12.0719 3.22189 12.0719 4.14164V10.5361C12.0719 10.6638 12.1361 10.7831 12.2431 10.8532C13.1892 11.4749 13.7543 12.5216 13.7543 13.6527C13.7543 15.6011 12.0711 17.2205 10.005 16.9817Z" fill="#133D3C"/>
<path d="M13.9575 4.10246H14.6801C14.8896 4.10246 15.0595 3.93254 15.0595 3.72311C15.0595 3.51367 14.8896 3.34375 14.6801 3.34375H13.9575C13.748 3.34375 13.5781 3.51367 13.5781 3.72311C13.5781 3.93254 13.748 4.10246 13.9575 4.10246Z" fill="#133D3C"/>
<path d="M15.1235 5.05859H13.9575C13.748 5.05859 13.5781 5.22851 13.5781 5.43795C13.5781 5.64738 13.748 5.8173 13.9575 5.8173H15.1235C15.3329 5.8173 15.5028 5.64738 15.5028 5.43795C15.5028 5.22851 15.3329 5.05859 15.1235 5.05859Z" fill="#133D3C"/>
<path d="M13.9575 7.53605H14.6801C14.8896 7.53605 15.0595 7.36613 15.0595 7.1567C15.0595 6.94726 14.8896 6.77734 14.6801 6.77734H13.9575C13.748 6.77734 13.5781 6.94726 13.5781 7.1567C13.5781 7.36613 13.748 7.53605 13.9575 7.53605Z" fill="#133D3C"/>
<path d="M15.1235 8.49219H13.9575C13.748 8.49219 13.5781 8.66211 13.5781 8.87154C13.5781 9.08098 13.748 9.2509 13.9575 9.2509H15.1235C15.3329 9.2509 15.5028 9.08098 15.5028 8.87154C15.5028 8.66211 15.3329 8.49219 15.1235 8.49219Z" fill="#133D3C"/>
<path d="M10.7858 11.7015V6.91451C10.7858 6.70508 10.6159 6.53516 10.4064 6.53516C10.197 6.53516 10.0271 6.70508 10.0271 6.91451V11.7015C9.10961 11.8794 8.41406 12.6869 8.41406 13.6555C8.41406 14.7541 9.30787 15.6476 10.4064 15.6476C11.505 15.6476 12.3988 14.7541 12.3988 13.6555C12.3988 12.6869 11.7032 11.8794 10.7858 11.7015ZM10.4064 14.8889C9.72625 14.8889 9.17278 14.3357 9.17278 13.6555C9.17278 12.9753 9.72625 12.4219 10.4064 12.4219C11.0866 12.4219 11.6401 12.9753 11.6401 13.6555C11.6401 14.3357 11.0866 14.8889 10.4064 14.8889Z" fill="#133D3C"/>
</g>
<defs>
<clipPath id="clip0_245_3529">
<rect width="24" height="24" fill="white"/>
</clipPath>
</defs>
</svg>
