<svg width="24" height="24" viewBox="0 0 24 24" fill="none" xmlns="http://www.w3.org/2000/svg">
<g clip-path="url(#clip0_245_3544)">
<path d="M13.5329 13.9662C13.5329 13.2999 12.9908 12.7578 12.3246 12.7578H6.33629C5.67003 12.7578 5.12793 13.2999 5.12793 13.9662V17.7784C5.12793 18.4447 5.67003 18.9868 6.33629 18.9868H12.3246C12.9908 18.9868 13.5329 18.4447 13.5329 17.7784V13.9662ZM12.8051 17.7784C12.8051 18.0433 12.5895 18.259 12.3246 18.259H6.33629C6.0714 18.259 5.85579 18.0433 5.85579 17.7784V13.9662C5.85579 13.7013 6.0714 13.4857 6.33629 13.4857H12.3246C12.5895 13.4857 12.8051 13.7013 12.8051 13.9662L12.8051 17.7784Z" fill="#133D3C"/>
<path d="M23.1101 20.2817C22.9963 20.0315 22.7452 19.8695 22.4694 19.8695H20.7507V17.3404C20.7507 16.7487 20.3639 16.2507 19.8318 16.0715V12.1255C19.8318 11.4716 19.2997 10.9394 18.6457 10.9394C17.9918 10.9394 17.4597 11.4716 17.4597 12.1255V16.0715C16.9274 16.2506 16.5403 16.7487 16.5403 17.3404V19.8695H15.8759L17.464 9.82442H18.2965C18.4974 9.82442 18.6604 9.66141 18.6604 9.46049C18.6604 9.25957 18.4974 9.09656 18.2965 9.09656H17.113C17.1238 9.00208 17.1351 8.90758 17.1351 8.81129C17.1351 7.50484 16.1124 6.43295 14.8259 6.35334C14.77 5.12792 13.7573 4.14844 12.5205 4.14844C11.487 4.14844 10.5966 4.83507 10.3047 5.7847C9.8555 5.62122 9.35036 5.59847 8.87839 5.73305C8.46044 4.85213 7.55772 4.26359 6.56544 4.26359C5.20923 4.26359 4.09517 5.32173 4.00656 6.65567C3.95064 6.65188 3.89283 6.64999 3.8336 6.64999C2.55889 6.64999 1.5216 7.68728 1.5216 8.96199C1.5216 9.00742 1.52781 9.05161 1.53042 9.09657H0.36393C0.16301 9.09656 0 9.25957 0 9.46049C0 9.66141 0.16301 9.82442 0.36393 9.82442H1.19735L2.95883 20.976C3.15312 22.2023 4.1961 23.0927 5.43905 23.0927H13.2176C13.3957 23.0927 13.5634 23.0698 13.7248 23.0356C13.8098 23.0713 13.9001 23.0951 13.9957 23.0951H23.2953C23.8062 23.0951 24.1483 22.5675 23.936 22.1004L23.1101 20.2817ZM18.1875 12.1255C18.1875 11.873 18.3932 11.6673 18.6458 11.6673C18.8983 11.6673 19.104 11.873 19.104 12.1255V15.9961H18.1875V12.1255ZM17.2682 17.3404C17.2682 17.0007 17.545 16.7239 17.8847 16.7239H19.4068C19.7465 16.7239 20.0228 17.0007 20.0228 17.3404V19.8695H17.2682V17.3404ZM2.24945 8.96198C2.24945 8.08864 2.96025 7.37784 3.83359 7.37784C4.00039 7.37784 4.14066 7.39774 4.26244 7.4385C4.51086 7.52197 4.76659 7.321 4.7401 7.05703C4.73299 6.98406 4.72872 6.90776 4.72872 6.82768C4.72872 5.81503 5.55278 4.99144 6.56543 4.99144C7.36864 4.99144 8.08987 5.5307 8.3197 6.30263C8.38341 6.51569 8.62136 6.62256 8.82199 6.52867C9.33898 6.28842 9.92374 6.33438 10.3739 6.62818C10.6072 6.77895 10.9161 6.62457 10.9354 6.3486C10.9933 5.52312 11.6894 4.87629 12.5205 4.87629C13.3915 4.87629 14.1004 5.58709 14.1004 6.46043C14.1004 6.52488 14.098 6.58648 14.0852 6.65093C14.0449 6.85503 14.2308 7.10266 14.4928 7.0831C14.5544 7.07978 14.6131 7.07646 14.6724 7.07646C15.6291 7.07646 16.4072 7.85455 16.4072 8.81129C16.4072 8.90778 16.3996 9.00336 16.3841 9.09656H2.25505C2.25137 9.05217 2.24945 9.0073 2.24945 8.96198ZM5.43905 22.3649C4.55624 22.3649 3.81558 21.7327 3.67816 20.8622L1.9348 9.82632H1.95186H16.7266L15.1386 19.8695H14.8216C14.5463 19.8695 14.2947 20.0315 14.1814 20.2817L13.3545 22.1009C13.3169 22.184 13.3017 22.2718 13.2976 22.3598C13.2705 22.3609 13.2457 22.3649 13.2176 22.3649L5.43905 22.3649ZM22.6376 22.3697V21.7858C22.6376 21.5849 22.4746 21.4219 22.2737 21.4219C22.0728 21.4219 21.9097 21.5849 21.9097 21.7858V22.3724L21.1862 22.3751V21.7858C21.1862 21.5849 21.0231 21.4219 20.8222 21.4219C20.6213 21.4219 20.4583 21.5849 20.4583 21.7858V22.3778L19.7352 22.3805V21.7858C19.7352 21.5849 19.5722 21.4219 19.3712 21.4219C19.1703 21.4219 19.0073 21.5849 19.0073 21.7858V22.3832L18.2842 22.3859V21.7858C18.2842 21.5849 18.1212 21.4219 17.9203 21.4219C17.7193 21.4219 17.5563 21.5849 17.5563 21.7858V22.3886L16.8327 22.3913V21.7858C16.8327 21.5849 16.6697 21.4219 16.4688 21.4219C16.2679 21.4219 16.1049 21.5849 16.1049 21.7858V22.394L15.3818 22.3967V21.7858C15.3818 21.5849 15.2187 21.4219 15.0178 21.4219C14.8169 21.4219 14.6539 21.5849 14.6539 21.7858V22.3995L14.0442 22.4017C14.0382 22.3956 14.031 22.3913 14.0247 22.3857L14.8216 20.5973C21.0548 20.5979 12.3582 20.5974 22.4542 20.5973L23.2953 22.3672L22.6376 22.3697Z" fill="#133D3C"/>
<path d="M14.1562 3.01808C14.1562 3.80233 14.7941 4.44016 15.5779 4.44016C16.3621 4.44016 16.9999 3.80233 16.9999 3.01808C16.9999 2.23051 16.3621 1.58984 15.5779 1.58984C14.7941 1.58984 14.1562 2.23051 14.1562 3.01808ZM16.2721 3.01808C16.2721 3.40097 15.9607 3.7123 15.5779 3.7123C15.1954 3.7123 14.8841 3.40097 14.8841 3.01808C14.8841 2.63188 15.1954 2.31771 15.5779 2.31771C15.9607 2.3177 16.2721 2.63188 16.2721 3.01808Z" fill="#133D3C"/>
<path d="M18.8932 0.90625C18.1786 0.90625 17.5977 1.48958 17.5977 2.20702C17.5977 2.92161 18.1786 3.50257 18.8932 3.50257C19.6078 3.50257 20.1888 2.92161 20.1888 2.20702C20.1888 1.48958 19.6078 0.90625 18.8932 0.90625ZM18.8932 2.77471C18.58 2.77471 18.3255 2.52025 18.3255 2.20702C18.3255 1.89095 18.58 1.63411 18.8932 1.63411C19.2064 1.63411 19.4609 1.89095 19.4609 2.20702C19.4609 2.52024 19.2064 2.77471 18.8932 2.77471Z" fill="#133D3C"/>
</g>
<defs>
<clipPath id="clip0_245_3544">
<rect width="24" height="24" fill="white"/>
</clipPath>
</defs>
</svg>
