<svg width="30" height="30" viewBox="0 0 30 30" fill="none" xmlns="http://www.w3.org/2000/svg">
<g clip-path="url(#clip0_245_2763)">
<path d="M19.4786 1.65028L19.2857 1.60742L1.60713 12.0217C1.45326 12.1029 1.32304 12.2225 1.22915 12.369C1.13527 12.5154 1.08092 12.6837 1.07141 12.8574V27.236C1.07141 27.5202 1.18429 27.7927 1.38523 27.9936C1.58616 28.1945 1.85868 28.3074 2.14284 28.3074H27.8571C28.1413 28.3074 28.4138 28.1945 28.6147 27.9936C28.8157 27.7927 28.9286 27.5202 28.9286 27.236V12.236C28.5988 9.72651 27.521 7.3745 25.8354 5.48635C24.1498 3.59821 21.9347 2.26147 19.4786 1.65028V1.65028Z" stroke="#133D3C" stroke-width="1.5" stroke-linecap="round" stroke-linejoin="round"/>
<path d="M1.26379 12.3223H27.8566" stroke="#133D3C" stroke-width="1.5" stroke-linecap="round" stroke-linejoin="round"/>
<path d="M1.07141 22.3283L1.24284 22.1783C1.63976 21.7733 2.11309 21.4512 2.63542 21.2305C3.15774 21.0098 3.71867 20.8949 4.2857 20.8926C5.42234 20.8926 6.51243 21.3441 7.31615 22.1478C8.11988 22.9516 8.57141 24.0417 8.57141 25.1783C8.56663 26.3131 8.11196 27.3997 7.30713 28.1997L7.1357 28.3926" stroke="#133D3C" stroke-width="1.5" stroke-linecap="round" stroke-linejoin="round"/>
<path d="M19.2857 23.036C21.0609 23.036 22.5 21.5969 22.5 19.8217C22.5 18.0465 21.0609 16.6074 19.2857 16.6074C17.5105 16.6074 16.0714 18.0465 16.0714 19.8217C16.0714 21.5969 17.5105 23.036 19.2857 23.036Z" stroke="#133D3C" stroke-width="1.5" stroke-linecap="round" stroke-linejoin="round"/>
</g>
<defs>
<clipPath id="clip0_245_2763">
<rect width="30" height="30" fill="white"/>
</clipPath>
</defs>
</svg>
