<svg width="58" height="58" viewBox="0 0 58 58" fill="none" xmlns="http://www.w3.org/2000/svg">
<path fill-rule="evenodd" clip-rule="evenodd" d="M28.2947 1.02826C28.3882 0.713973 28.6778 0.49707 29.0064 0.49707C29.335 0.49707 29.6246 0.713973 29.7181 1.02826C29.7181 1.02826 31.0208 5.39468 32.417 10.078C34.6417 17.5394 40.4784 23.376 47.9397 25.6008C52.623 26.997 56.9895 28.2996 56.9895 28.2996C57.3038 28.3931 57.5207 28.6827 57.5207 29.0113C57.5207 29.3399 57.3038 29.6295 56.9895 29.723C56.9895 29.723 52.623 31.0257 47.9397 32.4219C40.4784 34.6466 34.6417 40.4833 32.417 47.9446C31.0208 52.6279 29.7181 56.9944 29.7181 56.9944C29.6246 57.3087 29.335 57.5256 29.0064 57.5256C28.6778 57.5256 28.3882 57.3087 28.2947 56.9944C28.2947 56.9944 26.9921 52.6279 25.5959 47.9446C23.3711 40.4833 17.5345 34.6466 10.0731 32.4219C5.3898 31.0257 1.02338 29.723 1.02338 29.723C0.70907 29.6295 0.492188 29.3399 0.492188 29.0113C0.492188 28.6827 0.70907 28.3931 1.02338 28.2996C1.02338 28.2996 5.3898 26.997 10.0731 25.6008C17.5345 23.376 23.3711 17.5394 25.5959 10.078C26.9921 5.39468 28.2947 1.02826 28.2947 1.02826Z" fill="white"/>
</svg>
