<svg width="34" height="34" viewBox="0 0 34 34" fill="none" xmlns="http://www.w3.org/2000/svg">
<g clip-path="url(#clip0_27_327)">
<path d="M16.9996 13.3572C25.7178 13.3572 32.7853 10.6389 32.7853 7.28578C32.7853 3.93263 25.7178 1.21436 16.9996 1.21436C8.28137 1.21436 1.21387 3.93263 1.21387 7.28578C1.21387 10.6389 8.28137 13.3572 16.9996 13.3572Z" stroke="white" stroke-width="1.5" stroke-linecap="round" stroke-linejoin="round"/>
<path d="M1.21387 7.28577V26.7143C1.21387 30.0658 8.28101 32.7858 16.9996 32.7858C25.7182 32.7858 32.7853 30.0658 32.7853 26.7143V7.28577" stroke="white" stroke-width="1.5" stroke-linecap="round" stroke-linejoin="round"/>
<path d="M32.7853 17.0001C32.7853 20.3515 25.7182 23.0715 16.9996 23.0715C8.28101 23.0715 1.21387 20.3515 1.21387 17.0001" stroke="white" stroke-width="1.5" stroke-linecap="round" stroke-linejoin="round"/>
</g>
<defs>
<clipPath id="clip0_27_327">
<rect width="34" height="34" fill="white"/>
</clipPath>
</defs>
</svg>
