<svg width="24" height="24" viewBox="0 0 24 24" fill="none" xmlns="http://www.w3.org/2000/svg">
<g clip-path="url(#clip0_245_3604)">
<path d="M5.57171 10.284C8.17534 10.284 10.286 8.17338 10.286 5.56975C10.286 2.96613 8.17534 0.855469 5.57171 0.855469C2.96808 0.855469 0.857422 2.96613 0.857422 5.56975C0.857422 8.17338 2.96808 10.284 5.57171 10.284Z" stroke="#133D3C" stroke-linecap="round" stroke-linejoin="round"/>
<path d="M18.4291 10.284C21.0328 10.284 23.1434 8.17338 23.1434 5.56975C23.1434 2.96613 21.0328 0.855469 18.4291 0.855469C15.8255 0.855469 13.7148 2.96613 13.7148 5.56975C13.7148 8.17338 15.8255 10.284 18.4291 10.284Z" stroke="#133D3C" stroke-linecap="round" stroke-linejoin="round"/>
<path d="M5.57171 23.1395C8.17534 23.1395 10.286 21.0289 10.286 18.4252C10.286 15.8216 8.17534 13.7109 5.57171 13.7109C2.96808 13.7109 0.857422 15.8216 0.857422 18.4252C0.857422 21.0289 2.96808 23.1395 5.57171 23.1395Z" stroke="#133D3C" stroke-linecap="round" stroke-linejoin="round"/>
<path d="M18.4291 23.1395C21.0328 23.1395 23.1434 21.0289 23.1434 18.4252C23.1434 15.8216 21.0328 13.7109 18.4291 13.7109C15.8255 13.7109 13.7148 15.8216 13.7148 18.4252C13.7148 21.0289 15.8255 23.1395 18.4291 23.1395Z" stroke="#133D3C" stroke-linecap="round" stroke-linejoin="round"/>
</g>
<defs>
<clipPath id="clip0_245_3604">
<rect width="24" height="24" fill="white"/>
</clipPath>
</defs>
</svg>
