<svg width="40" height="40" viewBox="0 0 40 40" fill="none" xmlns="http://www.w3.org/2000/svg">
<path d="M17.143 13.7998L10.7144 2.68555C7.89311 4.31109 5.54957 6.65089 3.91953 9.46961C2.28949 12.2883 1.43041 15.4866 1.42871 18.7427H14.2859C14.2869 17.7406 14.5514 16.7564 15.0529 15.8889C15.5544 15.0213 16.2752 14.3009 17.143 13.7998Z" stroke="#F4B72A" stroke-width="1.5" stroke-linecap="round" stroke-linejoin="round"/>
<path d="M25.7146 18.7427H38.5717C38.57 15.4866 37.7109 12.2883 36.0809 9.46961C34.4508 6.65089 32.1073 4.31109 29.286 2.68555L22.8574 13.7998C23.7252 14.3009 24.4461 15.0213 24.9475 15.8889C25.449 16.7564 25.7135 17.7406 25.7146 18.7427Z" stroke="#F4B72A" stroke-width="1.5" stroke-linecap="round" stroke-linejoin="round"/>
<path d="M20.0001 24.4572C18.9991 24.4641 18.0138 24.208 17.1429 23.7144L10.7144 34.8286C13.5385 36.4558 16.7407 37.3123 20.0001 37.3123C23.2595 37.3123 26.4616 36.4558 29.2858 34.8286L22.8572 23.7144C21.9863 24.208 21.0011 24.4641 20.0001 24.4572V24.4572Z" stroke="#F4B72A" stroke-width="1.5" stroke-linecap="round" stroke-linejoin="round"/>
</svg>
