<svg width="25" height="25" viewBox="0 0 25 25" fill="none" xmlns="http://www.w3.org/2000/svg">
<path d="M12.5 23.9116C13.6725 23.9116 14.8336 23.6806 15.9168 23.2319C17.0001 22.7832 17.9844 22.1255 18.8135 21.2964C19.6425 20.4673 20.3002 19.4831 20.7489 18.3998C21.1976 17.3165 21.4286 16.1555 21.4286 14.983V10.0187C21.4287 7.82528 20.6214 5.70856 19.1607 4.07227" stroke="#133D3C" stroke-linecap="round" stroke-linejoin="round"/>
<path d="M3.57129 12V14.9821C3.57069 16.7398 4.08888 18.4585 5.06092 19.923C6.03297 21.3874 7.41561 22.5323 9.03558 23.2143" stroke="#133D3C" stroke-linecap="round" stroke-linejoin="round"/>
<path d="M16.9642 2.28603C14.9135 1.10208 12.4764 0.781233 10.1892 1.39407C7.90192 2.00691 5.95177 3.50323 4.76774 5.55388C4.2802 6.3959 3.93621 7.3132 3.74988 8.26817" stroke="#133D3C" stroke-linecap="round" stroke-linejoin="round"/>
<path d="M11.5713 6.2674C12.2281 6.13105 12.9071 6.14386 13.5583 6.30487C14.2094 6.46588 14.8162 6.771 15.3337 7.19772C15.8513 7.62445 16.2664 8.16189 16.5486 8.77044C16.8308 9.37898 16.9728 10.0431 16.9641 10.7138V13.5888" stroke="#133D3C" stroke-linecap="round" stroke-linejoin="round"/>
<path d="M15.8214 17.3404C15.2139 18.0172 14.4141 18.4923 13.5291 18.702C12.6441 18.9118 11.7161 18.8462 10.8694 18.5142C10.0227 18.1821 9.29763 17.5993 8.79121 16.8438C8.28479 16.0884 8.02121 15.1962 8.03573 14.2868V10.7154C8.03233 10.1021 8.15385 9.49451 8.39287 8.92969" stroke="#133D3C" stroke-linecap="round" stroke-linejoin="round"/>
<path d="M12.5 10.9102V13.8923" stroke="#133D3C" stroke-linecap="round" stroke-linejoin="round"/>
</svg>
