<svg width="25" height="26" viewBox="0 0 25 26" fill="none" xmlns="http://www.w3.org/2000/svg">
<path d="M18.999 2.93359H5.99904C5.69933 2.94182 5.40577 3.02047 5.14208 3.16317C4.8784 3.30587 4.652 3.50862 4.48118 3.75502L1.23118 8.25502C0.989856 8.59605 0.869334 9.0079 0.888745 9.42523C0.908155 9.84255 1.06639 10.2414 1.33833 10.5586L11.0883 21.7907C11.2552 22.0058 11.4691 22.1799 11.7136 22.2996C11.9581 22.4194 12.2268 22.4816 12.499 22.4816C12.7713 22.4816 13.0399 22.4194 13.2844 22.2996C13.5289 22.1799 13.7428 22.0058 13.9098 21.7907L23.6598 10.5586C23.9317 10.2414 24.0899 9.84255 24.1093 9.42523C24.1287 9.0079 24.0082 8.59605 23.7669 8.25502L20.5169 3.75502C20.3461 3.50862 20.1197 3.30587 19.856 3.16317C19.5923 3.02047 19.2987 2.94182 18.999 2.93359V2.93359Z" stroke="white" stroke-width="1.5" stroke-linecap="round" stroke-linejoin="round"/>
<path d="M11.5681 2.91577L7.21094 9.66577L12.4967 22.4336" stroke="white" stroke-width="1.5" stroke-linecap="round" stroke-linejoin="round"/>
<path d="M13.4821 2.91577L17.8214 9.66577L12.5 22.4336" stroke="white" stroke-width="1.5" stroke-linecap="round" stroke-linejoin="round"/>
<path d="M0.929688 9.66577H24.0725" stroke="white" stroke-width="1.5" stroke-linecap="round" stroke-linejoin="round"/>
</svg>
