<svg width="35" height="36" viewBox="0 0 35 36" fill="none" xmlns="http://www.w3.org/2000/svg">
<g clip-path="url(#clip0_83_490)">
<path d="M3.75 15.3831H6.25C6.58152 15.3831 6.89946 15.5148 7.13388 15.7492C7.3683 15.9836 7.5 16.3015 7.5 16.6331V22.8831C7.5 23.2146 7.3683 23.5325 7.13388 23.7669C6.89946 24.0014 6.58152 24.1331 6.25 24.1331H3.75C3.08696 24.1331 2.45107 23.8697 1.98223 23.4008C1.51339 22.932 1.25 22.2961 1.25 21.6331V17.8831C1.25 17.22 1.51339 16.5841 1.98223 16.1153C2.45107 15.6464 3.08696 15.3831 3.75 15.3831V15.3831Z" stroke="white" stroke-width="1.5" stroke-linecap="round" stroke-linejoin="round"/>
<path d="M31.25 24.1331H28.75C28.4185 24.1331 28.1005 24.0014 27.8661 23.7669C27.6317 23.5325 27.5 23.2146 27.5 22.8831V16.6331C27.5 16.3015 27.6317 15.9836 27.8661 15.7492C28.1005 15.5148 28.4185 15.3831 28.75 15.3831H31.25C31.913 15.3831 32.5489 15.6464 33.0178 16.1153C33.4866 16.5841 33.75 17.22 33.75 17.8831V21.6331C33.75 22.2961 33.4866 22.932 33.0178 23.4008C32.5489 23.8697 31.913 24.1331 31.25 24.1331V24.1331Z" stroke="white" stroke-width="1.5" stroke-linecap="round" stroke-linejoin="round"/>
<path d="M23.75 31.0081C25.0761 31.0081 26.3479 30.4813 27.2855 29.5436C28.2232 28.6059 28.75 27.3341 28.75 26.0081V24.1331" stroke="white" stroke-width="1.5" stroke-linecap="round" stroke-linejoin="round"/>
<path d="M20.625 27.8831C21.4538 27.8831 22.2487 28.2123 22.8347 28.7983C23.4208 29.3844 23.75 30.1793 23.75 31.0081C23.75 31.8369 23.4208 32.6317 22.8347 33.2178C22.2487 33.8038 21.4538 34.1331 20.625 34.1331H16.875C16.0462 34.1331 15.2513 33.8038 14.6653 33.2178C14.0792 32.6317 13.75 31.8369 13.75 31.0081C13.75 30.1793 14.0792 29.3844 14.6653 28.7983C15.2513 28.2123 16.0462 27.8831 16.875 27.8831H20.625Z" stroke="white" stroke-width="1.5" stroke-linecap="round" stroke-linejoin="round"/>
<path d="M6.25 15.3831V12.8831C6.25 9.89937 7.43526 7.03789 9.54505 4.92811C11.6548 2.81832 14.5163 1.63306 17.5 1.63306C20.4837 1.63306 23.3452 2.81832 25.455 4.92811C27.5647 7.03789 28.75 9.89937 28.75 12.8831V15.3831" stroke="white" stroke-width="1.5" stroke-linecap="round" stroke-linejoin="round"/>
<path d="M13.75 10.3831V14.1331" stroke="white" stroke-width="1.5" stroke-linecap="round" stroke-linejoin="round"/>
<path d="M21.25 10.3831V14.1331" stroke="white" stroke-width="1.5" stroke-linecap="round" stroke-linejoin="round"/>
<path d="M13.75 19.1331C13.75 22.4581 21.25 22.4581 21.25 19.1331" stroke="white" stroke-width="1.5" stroke-linecap="round" stroke-linejoin="round"/>
</g>
<defs>
<clipPath id="clip0_83_490">
<rect width="35" height="35" fill="white" transform="translate(0 0.383057)"/>
</clipPath>
</defs>
</svg>
