<svg width="25" height="25" viewBox="0 0 25 25" fill="none" xmlns="http://www.w3.org/2000/svg">
<path d="M9.33909 4.01758L10.1069 2.03544C10.2364 1.69984 10.4643 1.41117 10.7606 1.20724C11.0569 1.00332 11.4079 0.893641 11.7677 0.892578H13.2319C13.5917 0.893641 13.9427 1.00332 14.239 1.20724C14.5353 1.41117 14.7632 1.69984 14.8927 2.03544L15.6605 4.01758L18.2677 5.51758L20.3748 5.19615C20.7257 5.14852 21.0828 5.20628 21.4007 5.36208C21.7187 5.51788 21.9832 5.76469 22.1605 6.07115L22.8748 7.32115C23.0578 7.63249 23.1422 7.99201 23.1167 8.35226C23.0912 8.71251 22.957 9.05656 22.7319 9.33901L21.4284 10.9997V13.9997L22.7677 15.6604C22.9927 15.9429 23.1269 16.2869 23.1524 16.6472C23.1779 17.0074 23.0936 17.367 22.9105 17.6783L22.1962 18.9283C22.0189 19.2347 21.7544 19.4816 21.4364 19.6374C21.1185 19.7932 20.7614 19.8509 20.4105 19.8033L18.3034 19.4819L15.6962 20.9819L14.9284 22.964C14.7989 23.2996 14.571 23.5883 14.2747 23.7922C13.9784 23.9961 13.6274 24.1058 13.2677 24.1069H11.7677C11.4079 24.1058 11.0569 23.9961 10.7606 23.7922C10.4643 23.5883 10.2364 23.2996 10.1069 22.964L9.33909 20.9819L6.73195 19.4819L4.6248 19.8033C4.27394 19.8509 3.91684 19.7932 3.59888 19.6374C3.28092 19.4816 3.01645 19.2347 2.83909 18.9283L2.1248 17.6783C1.94177 17.367 1.85744 17.0074 1.88295 16.6472C1.90845 16.2869 2.04259 15.9429 2.26766 15.6604L3.57123 13.9997V10.9997L2.23195 9.33901C2.00688 9.05656 1.87274 8.71251 1.84723 8.35226C1.82173 7.99201 1.90606 7.63249 2.08909 7.32115L2.80338 6.07115C2.98074 5.76469 3.2452 5.51788 3.56317 5.36208C3.88113 5.20628 4.23823 5.14852 4.58909 5.19615L6.69623 5.51758L9.33909 4.01758ZM8.92838 12.4997C8.92838 13.2061 9.13784 13.8966 9.53027 14.4839C9.9227 15.0712 10.4805 15.529 11.1331 15.7993C11.7857 16.0696 12.5038 16.1403 13.1966 16.0025C13.8893 15.8647 14.5257 15.5246 15.0252 15.0251C15.5247 14.5256 15.8648 13.8893 16.0026 13.1965C16.1404 12.5037 16.0697 11.7856 15.7994 11.133C15.5291 10.4804 15.0713 9.92262 14.484 9.53019C13.8967 9.13775 13.2062 8.92829 12.4998 8.92829C11.5526 8.92829 10.6442 9.30457 9.97442 9.97434C9.30465 10.6441 8.92838 11.5525 8.92838 12.4997V12.4997Z" stroke="#133D3C" stroke-linecap="round" stroke-linejoin="round"/>
</svg>
