<svg width="20" height="20" viewBox="0 0 20 20" fill="none" xmlns="http://www.w3.org/2000/svg">
<g clip-path="url(#clip0_245_2884)">
<path d="M10 20C15.5133 20 20 15.5133 20 10C20 4.48668 15.5134 0 10 0C4.48662 0 0 4.48668 0 10C0 15.5133 4.48668 20 10 20ZM10 1.33331C14.78 1.33331 18.6667 5.21996 18.6667 10C18.6667 14.78 14.78 18.6667 10 18.6667C5.21996 18.6667 1.33331 14.78 1.33331 10C1.33331 5.21996 5.22002 1.33331 10 1.33331Z" fill="#FFB120"/>
<path d="M12.9163 13.1867C13.0397 13.2866 13.1863 13.3333 13.333 13.3333C13.5297 13.3333 13.723 13.2467 13.853 13.0833C14.083 12.7967 14.0363 12.3767 13.7497 12.1467L10.6663 9.67999V4.66666C10.6663 4.29998 10.3663 4 9.99966 4C9.63299 4 9.33301 4.29998 9.33301 4.66666V10C9.33301 10.2034 9.42636 10.3933 9.583 10.52L12.9163 13.1867Z" fill="#FFB120"/>
</g>
<defs>
<clipPath id="clip0_245_2884">
<rect width="20" height="20" fill="white"/>
</clipPath>
</defs>
</svg>
