<svg width="21" height="20" viewBox="0 0 21 20" fill="none" xmlns="http://www.w3.org/2000/svg">
<g clip-path="url(#clip0_432_5670)">
<path d="M20.2336 11.1316C20.2336 11.1315 20.2336 11.1314 20.2336 11.1313L16.4575 1.64991C16.3773 1.44846 16.149 1.35011 15.9475 1.43025C15.9474 1.4303 15.9472 1.43035 15.9471 1.43045L0.62802 7.53036C0.565546 7.55735 0.511367 7.60044 0.470977 7.6552C0.343577 7.72141 0.263093 7.85244 0.261719 7.99599V18.2037C0.261719 18.4205 0.437508 18.5963 0.654324 18.5963H17.1437C17.3606 18.5963 17.5364 18.4205 17.5364 18.2037V12.6287L20.0145 11.6417C20.2159 11.5614 20.314 11.333 20.2336 11.1316ZM16.7511 17.8111H1.04693V8.38859H16.7511V17.8111ZM6.81234 7.60534L13.3861 4.98588C13.9728 5.60257 14.7858 5.95306 15.6369 5.9564L16.2926 7.60534H6.81234ZM17.5364 11.7854V7.99599C17.5364 7.77917 17.3606 7.60338 17.1437 7.60338H17.1375L16.3055 5.51394C16.2963 5.49651 16.2856 5.47993 16.2733 5.46447C16.2312 5.27538 16.0561 5.14636 15.8631 5.16216C15.0711 5.23435 14.2963 4.90073 13.8046 4.27566C13.6823 4.12465 13.4672 4.08711 13.3009 4.18771C13.2823 4.18992 13.2638 4.19336 13.2456 4.19792L5.21993 7.39373C5.12281 7.43181 5.04512 7.50734 5.00439 7.60338H2.5671L15.8733 2.30517L19.3592 11.0583L17.5364 11.7854Z" fill="#F4B72A"/>
<path d="M2.11247 15.1607C2.87472 15.386 3.47118 15.9817 3.69742 16.7436C3.74704 16.91 3.90001 17.0239 4.07354 17.024C4.0939 17.0227 4.11412 17.0197 4.134 17.0149C4.15162 17.0199 4.16963 17.0236 4.18778 17.0259H13.6103C13.6265 17.0238 13.6425 17.0205 13.6582 17.0161C13.8544 17.0638 14.052 16.9435 14.0998 16.7474C14.0999 16.7466 14.1001 16.746 14.1003 16.7452C14.3259 15.9825 14.9225 15.3859 15.6852 15.1603C15.8702 15.1037 15.9851 14.9194 15.9546 14.7284C15.9598 14.7094 15.9636 14.6899 15.9659 14.6703V11.5295C15.9636 11.5098 15.9597 11.4903 15.9542 11.4714C15.9849 11.2803 15.87 11.0959 15.6848 11.0395C14.9221 10.8139 14.3257 10.2171 14.1007 9.45415C14.0438 9.26791 13.8577 9.15268 13.6657 9.18482C13.6475 9.17977 13.629 9.17609 13.6103 9.17383H4.18778C4.16801 9.17618 4.14843 9.18011 4.12929 9.18561C3.93833 9.15518 3.7541 9.27007 3.69742 9.45493C3.47162 10.2175 2.87511 10.8139 2.11247 11.0395C1.92751 11.096 1.81257 11.2804 1.84315 11.4714C1.83804 11.4904 1.83436 11.5098 1.83215 11.5295V14.6703C1.83441 14.6888 1.83809 14.707 1.84315 14.7249C1.81095 14.9171 1.92613 15.1035 2.11247 15.1607ZM2.61736 11.6889C3.40572 11.3722 4.03055 10.7474 4.34718 9.95904H13.4505C13.7673 10.7474 14.3923 11.3722 15.1807 11.6889V14.5109C14.3926 14.8279 13.7679 15.4526 13.4509 16.2407H4.34718C4.0302 15.4526 3.40547 14.8279 2.61736 14.5109V11.6889Z" fill="#F4B72A"/>
<path d="M8.8986 15.4554C10.1996 15.4554 11.2542 14.4008 11.2542 13.0998C11.2542 11.7988 10.1996 10.7441 8.8986 10.7441C7.5976 10.7441 6.54297 11.7988 6.54297 13.0998C6.54424 14.4002 7.59814 15.4541 8.8986 15.4554ZM8.8986 11.5294C9.76591 11.5294 10.469 12.2325 10.469 13.0998C10.469 13.9671 9.76591 14.6702 8.8986 14.6702C8.03129 14.6702 7.32818 13.9671 7.32818 13.0998C7.32818 12.2325 8.03129 11.5294 8.8986 11.5294Z" fill="#F4B72A"/>
<path d="M4.58012 13.6895C4.90534 13.6895 5.16903 13.4259 5.16903 13.1006C5.16903 12.7754 4.90534 12.5117 4.58012 12.5117C4.25489 12.5117 3.99121 12.7754 3.99121 13.1006C3.99121 13.4259 4.25489 13.6895 4.58012 13.6895ZM4.58012 12.9043C4.68853 12.9043 4.77642 12.9922 4.77642 13.1006C4.77642 13.209 4.68853 13.2969 4.58012 13.2969C4.47171 13.2969 4.38382 13.209 4.38382 13.1006C4.38382 12.9922 4.47171 12.9043 4.58012 12.9043Z" fill="#F4B72A"/>
<path d="M13.2177 13.6895C13.5429 13.6895 13.8066 13.4259 13.8066 13.1006C13.8066 12.7754 13.5429 12.5117 13.2177 12.5117C12.8925 12.5117 12.6288 12.7754 12.6288 13.1006C12.6288 13.4259 12.8925 13.6895 13.2177 13.6895ZM13.2177 12.9043C13.3261 12.9043 13.414 12.9922 13.414 13.1006C13.414 13.209 13.3261 13.2969 13.2177 13.2969C13.1093 13.2969 13.0214 13.209 13.0214 13.1006C13.0214 12.9922 13.1093 12.9043 13.2177 12.9043Z" fill="#F4B72A"/>
</g>
<defs>
<clipPath id="clip0_432_5670">
<rect width="20" height="20" fill="white" transform="translate(0.261719)"/>
</clipPath>
</defs>
</svg>
