<svg width="20" height="20" viewBox="0 0 20 20" fill="none" xmlns="http://www.w3.org/2000/svg">
<mask id="path-1-inside-1_1_864" fill="white">
<path d="M13.3389 13.2143C15.4671 9.87469 15.1996 10.2913 15.2609 10.2043C16.0358 9.11137 16.4453 7.82508 16.4453 6.48438C16.4453 2.92891 13.5601 0 10 0C6.45148 0 3.55469 2.92313 3.55469 6.48438C3.55469 7.82422 3.97281 9.14418 4.77305 10.2518L6.66102 13.2143C4.64246 13.5245 1.21094 14.4489 1.21094 16.4844C1.21094 17.2264 1.69523 18.2838 4.00242 19.1078C5.61344 19.6831 7.7434 20 10 20C14.2197 20 18.7891 18.8097 18.7891 16.4844C18.7891 14.4486 15.3616 13.5251 13.3389 13.2143ZM5.75191 9.60723C5.74547 9.59715 5.73875 9.5873 5.73172 9.57762C5.06582 8.66152 4.72656 7.57582 4.72656 6.48438C4.72656 3.55398 7.08617 1.17188 10 1.17188C12.9078 1.17188 15.2734 3.55504 15.2734 6.48438C15.2734 7.57758 14.9406 8.62645 14.3107 9.5184C14.2543 9.59285 14.5487 9.13535 10 16.273L5.75191 9.60723ZM10 18.8281C5.39086 18.8281 2.38281 17.4733 2.38281 16.4844C2.38281 15.8197 3.92844 14.7268 7.35344 14.3007L9.50586 17.6782C9.61344 17.847 9.79977 17.9492 9.99996 17.9492C10.2002 17.9492 10.3865 17.847 10.4941 17.6782L12.6464 14.3007C16.0715 14.7268 17.6172 15.8197 17.6172 16.4844C17.6172 17.4649 14.6362 18.8281 10 18.8281Z"/>
</mask>
<path d="M13.3389 13.2143L12.0739 12.4081L10.838 14.3475L13.111 14.6969L13.3389 13.2143ZM15.2609 10.2043L14.0373 9.3367L14.0346 9.34049L15.2609 10.2043ZM4.77305 10.2518L6.03801 9.44565L6.01452 9.40879L5.98892 9.37335L4.77305 10.2518ZM6.66102 13.2143L6.88885 14.6969L9.16195 14.3476L7.92598 12.4082L6.66102 13.2143ZM4.00242 19.1078L3.49792 20.5204L3.49793 20.5204L4.00242 19.1078ZM5.75191 9.60723L7.01687 8.80107L7.01559 8.79906L5.75191 9.60723ZM5.73172 9.57762L6.94567 8.69652L6.94504 8.69566L5.73172 9.57762ZM14.3107 9.5184L15.506 10.4246L15.5213 10.4044L15.536 10.3837L14.3107 9.5184ZM10 16.273L8.73504 17.0792L10 19.0641L11.265 17.0792L10 16.273ZM7.35344 14.3007L8.6184 13.4946L8.10896 12.6952L7.16829 12.8122L7.35344 14.3007ZM9.50586 17.6782L10.7709 16.8721L10.7708 16.8721L9.50586 17.6782ZM10.4941 17.6782L9.22909 16.8721L9.229 16.8722L10.4941 17.6782ZM12.6464 14.3007L12.8316 12.8122L11.8909 12.6952L11.3815 13.4946L12.6464 14.3007ZM13.3389 13.2143L14.6039 14.0204C16.7559 10.6435 16.4526 11.1173 16.4873 11.068L15.2609 10.2043L14.0346 9.34049C14.0503 9.31826 14.0677 9.296 14.0668 9.29709C14.0284 9.34614 14.0005 9.38771 13.9834 9.41352C13.9576 9.45242 13.9098 9.52704 13.8104 9.68281C13.6034 10.0073 13.1374 10.7394 12.0739 12.4081L13.3389 13.2143ZM15.2609 10.2043L16.4846 11.0718C17.4394 9.72514 17.9453 8.13565 17.9453 6.48438H16.4453H14.9453C14.9453 7.51451 14.6322 8.49759 14.0373 9.3367L15.2609 10.2043ZM16.4453 6.48438H17.9453C17.9453 2.113 14.401 -1.5 10 -1.5V0V1.5C12.7192 1.5 14.9453 3.74482 14.9453 6.48438H16.4453ZM10 0V-1.5C5.61321 -1.5 2.05469 2.10458 2.05469 6.48438H3.55469H5.05469C5.05469 3.74167 7.28976 1.5 10 1.5V0ZM3.55469 6.48438H2.05469C2.05469 8.13624 2.57026 9.76423 3.55718 11.1302L4.77305 10.2518L5.98892 9.37335C5.37536 8.52413 5.05469 7.5122 5.05469 6.48438H3.55469ZM4.77305 10.2518L3.50809 11.0579L5.39605 14.0204L6.66102 13.2143L7.92598 12.4082L6.03801 9.44565L4.77305 10.2518ZM6.66102 13.2143L6.43318 11.7317C5.36005 11.8966 3.83611 12.2332 2.53846 12.846C1.36074 13.4022 -0.289062 14.5111 -0.289062 16.4844H1.21094H2.71094C2.71094 16.4221 2.77689 16.0511 3.81958 15.5587C4.74233 15.1229 5.94342 14.8422 6.88885 14.6969L6.66102 13.2143ZM1.21094 16.4844H-0.289062C-0.289062 17.2154 -0.0379691 18.0221 0.620966 18.7625C1.25241 19.4721 2.19936 20.0566 3.49792 20.5204L4.00242 19.1078L4.50692 17.6952C3.4983 17.3349 3.04951 16.9788 2.862 16.7681C2.70199 16.5883 2.71094 16.4953 2.71094 16.4844H1.21094ZM4.00242 19.1078L3.49793 20.5204C5.31326 21.1687 7.62315 21.5 10 21.5V20V18.5C7.86365 18.5 5.91361 18.1975 4.50692 17.6952L4.00242 19.1078ZM10 20V21.5C12.2238 21.5 14.6001 21.1896 16.4753 20.529C17.4083 20.2003 18.3103 19.7528 19.0047 19.1367C19.7174 18.5043 20.2891 17.6148 20.2891 16.4844H18.7891H17.2891C17.2891 16.5166 17.2895 16.6479 17.0136 16.8927C16.7194 17.1537 16.2154 17.4398 15.4785 17.6994C14.0141 18.2153 11.9959 18.5 10 18.5V20ZM18.7891 16.4844H20.2891C20.2891 14.5116 18.6413 13.4027 17.4632 12.8462C16.1658 12.2333 14.6417 11.8969 13.5668 11.7317L13.3389 13.2143L13.111 14.6969C14.0588 14.8425 15.2597 15.1232 16.1818 15.5588C17.2231 16.0506 17.2891 16.4213 17.2891 16.4844H18.7891ZM5.75191 9.60723L7.01559 8.79906C6.99303 8.76379 6.9697 8.72963 6.94567 8.69652L5.73172 9.57762L4.51777 10.4587C4.5078 10.445 4.49791 10.4305 4.48824 10.4154L5.75191 9.60723ZM5.73172 9.57762L6.94504 8.69566C6.46918 8.041 6.22656 7.26531 6.22656 6.48438H4.72656H3.22656C3.22656 7.88633 3.66246 9.28204 4.51839 10.4596L5.73172 9.57762ZM4.72656 6.48438H6.22656C6.22656 4.37103 7.92594 2.67188 10 2.67188V1.17188V-0.328125C6.24641 -0.328125 3.22656 2.73694 3.22656 6.48438H4.72656ZM10 1.17188V2.67188C12.0689 2.67188 13.7734 4.37301 13.7734 6.48438H15.2734H16.7734C16.7734 2.73706 13.7466 -0.328125 10 -0.328125V1.17188ZM15.2734 6.48438H13.7734C13.7734 7.26804 13.5364 8.01457 13.0854 8.65313L14.3107 9.5184L15.536 10.3837C16.3448 9.23832 16.7734 7.88712 16.7734 6.48438H15.2734ZM14.3107 9.5184L13.1154 8.61219C13.1326 8.58942 13.148 8.57096 13.1475 8.57162C13.1341 8.58778 13.1112 8.61597 13.0835 8.65398C13.0496 8.70046 13.017 8.75069 12.9952 8.78417C12.9395 8.86996 12.8247 9.04938 12.5753 9.44041C12.0731 10.2278 11.009 11.8987 8.73504 15.4669L10 16.273L11.265 17.0792C13.5398 13.5096 14.6028 11.8405 15.1046 11.0536C15.3573 10.6575 15.4637 10.4912 15.5108 10.4188C15.5404 10.3732 15.5296 10.3912 15.5082 10.4205C15.4867 10.45 15.4677 10.4734 15.4584 10.4846C15.4566 10.4869 15.4654 10.4763 15.4744 10.465C15.4849 10.452 15.4954 10.4386 15.506 10.4246L14.3107 9.5184ZM10 16.273L11.265 15.4669L7.01687 8.80107L5.75191 9.60723L4.48696 10.4134L8.73504 17.0792L10 16.273ZM10 18.8281V17.3281C7.83041 17.3281 6.09736 17.0077 4.95609 16.6105C4.37766 16.4091 4.01342 16.2095 3.82607 16.0687C3.5582 15.8674 3.88281 15.9874 3.88281 16.4844H2.38281H0.882812C0.882812 17.4758 1.58343 18.136 2.02361 18.4669C2.5443 18.8582 3.22014 19.1828 3.96986 19.4437C5.48491 19.9711 7.56044 20.3281 10 20.3281V18.8281ZM2.38281 16.4844H3.88281C3.88281 16.8854 3.67259 17.0507 3.74947 16.9722C3.79691 16.9238 3.94499 16.8004 4.2576 16.6432C4.87565 16.3324 5.94047 15.9881 7.53859 15.7893L7.35344 14.3007L7.16829 12.8122C5.3414 13.0394 3.92091 13.4546 2.9099 13.9629C2.40798 14.2153 1.95559 14.5164 1.60619 14.8731C1.28624 15.1998 0.882812 15.751 0.882812 16.4844H2.38281ZM7.35344 14.3007L6.08848 15.1069L8.2409 18.4844L9.50586 17.6782L10.7708 16.8721L8.6184 13.4946L7.35344 14.3007ZM9.50586 17.6782L8.24085 18.4843C8.62392 19.0855 9.28737 19.4492 9.99996 19.4492V17.9492V16.4492C10.3122 16.4492 10.603 16.6086 10.7709 16.8721L9.50586 17.6782ZM9.99996 17.9492V19.4492C10.7126 19.4492 11.3761 19.0854 11.7591 18.4842L10.4941 17.6782L9.229 16.8722C9.39697 16.6086 9.68775 16.4492 9.99996 16.4492V17.9492ZM10.4941 17.6782L11.759 18.4843L13.9114 15.1069L12.6464 14.3007L11.3815 13.4946L9.22909 16.8721L10.4941 17.6782ZM12.6464 14.3007L12.4613 15.7893C14.0595 15.9881 15.1243 16.3324 15.7424 16.6432C16.055 16.8004 16.2031 16.9238 16.2505 16.9723C16.3274 17.0508 16.1172 16.8854 16.1172 16.4844H17.6172H19.1172C19.1172 15.751 18.7137 15.1998 18.3938 14.8731C18.0444 14.5164 17.592 14.2153 17.0901 13.9629C16.079 13.4546 14.6585 13.0394 12.8316 12.8122L12.6464 14.3007ZM17.6172 16.4844H16.1172C16.1172 15.9873 16.441 15.8664 16.1751 16.0671C15.9897 16.2071 15.6281 16.4066 15.0519 16.6081C13.9151 17.0057 12.183 17.3281 10 17.3281V18.8281V20.3281C12.4533 20.3281 14.5297 19.969 16.0424 19.4398C16.7911 19.178 17.4644 18.8528 17.9828 18.4614C18.4208 18.1307 19.1172 17.4717 19.1172 16.4844H17.6172Z" fill="#F4B72A" mask="url(#path-1-inside-1_1_864)"/>
<mask id="path-3-inside-2_1_864" fill="white">
<path d="M10 3.55469C8.38457 3.55469 7.07031 4.86895 7.07031 6.48438C7.07031 8.0998 8.38457 9.41406 10 9.41406C11.6154 9.41406 12.9297 8.0998 12.9297 6.48438C12.9297 4.86895 11.6154 3.55469 10 3.55469ZM10 8.24219C9.03074 8.24219 8.24219 7.45363 8.24219 6.48438C8.24219 5.51512 9.03074 4.72656 10 4.72656C10.9693 4.72656 11.7578 5.51512 11.7578 6.48438C11.7578 7.45363 10.9693 8.24219 10 8.24219Z"/>
</mask>
<path d="M10 3.55469V2.05469C7.55614 2.05469 5.57031 4.04052 5.57031 6.48438H7.07031H8.57031C8.57031 5.69737 9.213 5.05469 10 5.05469V3.55469ZM7.07031 6.48438H5.57031C5.57031 8.92823 7.55614 10.9141 10 10.9141V9.41406V7.91406C9.213 7.91406 8.57031 7.27138 8.57031 6.48438H7.07031ZM10 9.41406V10.9141C12.4439 10.9141 14.4297 8.92823 14.4297 6.48438H12.9297H11.4297C11.4297 7.27138 10.787 7.91406 10 7.91406V9.41406ZM12.9297 6.48438H14.4297C14.4297 4.04052 12.4439 2.05469 10 2.05469V3.55469V5.05469C10.787 5.05469 11.4297 5.69737 11.4297 6.48438H12.9297ZM10 8.24219V6.74219C9.85917 6.74219 9.74219 6.62521 9.74219 6.48438H8.24219H6.74219C6.74219 8.28206 8.20232 9.74219 10 9.74219V8.24219ZM8.24219 6.48438H9.74219C9.74219 6.34354 9.85917 6.22656 10 6.22656V4.72656V3.22656C8.20232 3.22656 6.74219 4.68669 6.74219 6.48438H8.24219ZM10 4.72656V6.22656C10.1408 6.22656 10.2578 6.34354 10.2578 6.48438H11.7578H13.2578C13.2578 4.68669 11.7977 3.22656 10 3.22656V4.72656ZM11.7578 6.48438H10.2578C10.2578 6.62521 10.1408 6.74219 10 6.74219V8.24219V9.74219C11.7977 9.74219 13.2578 8.28206 13.2578 6.48438H11.7578Z" fill="#F4B72A" mask="url(#path-3-inside-2_1_864)"/>
</svg>
