<svg width="40" height="40" viewBox="0 0 40 40" fill="none" xmlns="http://www.w3.org/2000/svg">
<g clip-path="url(#clip0_432_5307)">
<path d="M9.28561 17.143C13.625 17.143 17.1428 13.6252 17.1428 9.28585C17.1428 4.94647 13.625 1.42871 9.28561 1.42871C4.94623 1.42871 1.42847 4.94647 1.42847 9.28585C1.42847 13.6252 4.94623 17.143 9.28561 17.143Z" stroke="#133D3C" stroke-width="2" stroke-linecap="round" stroke-linejoin="round"/>
<path d="M30.7141 17.143C35.0535 17.143 38.5712 13.6252 38.5712 9.28585C38.5712 4.94647 35.0535 1.42871 30.7141 1.42871C26.3747 1.42871 22.8569 4.94647 22.8569 9.28585C22.8569 13.6252 26.3747 17.143 30.7141 17.143Z" stroke="#133D3C" stroke-width="2" stroke-linecap="round" stroke-linejoin="round"/>
<path d="M9.28561 38.5717C13.625 38.5717 17.1428 35.0539 17.1428 30.7146C17.1428 26.3752 13.625 22.8574 9.28561 22.8574C4.94623 22.8574 1.42847 26.3752 1.42847 30.7146C1.42847 35.0539 4.94623 38.5717 9.28561 38.5717Z" stroke="#133D3C" stroke-width="2" stroke-linecap="round" stroke-linejoin="round"/>
<path d="M30.7141 38.5717C35.0535 38.5717 38.5712 35.0539 38.5712 30.7146C38.5712 26.3752 35.0535 22.8574 30.7141 22.8574C26.3747 22.8574 22.8569 26.3752 22.8569 30.7146C22.8569 35.0539 26.3747 38.5717 30.7141 38.5717Z" stroke="#133D3C" stroke-width="2" stroke-linecap="round" stroke-linejoin="round"/>
</g>
<defs>
<clipPath id="clip0_432_5307">
<rect width="40" height="40" fill="white"/>
</clipPath>
</defs>
</svg>
