<svg width="40" height="40" viewBox="0 0 40 40" fill="none" xmlns="http://www.w3.org/2000/svg">
<g clip-path="url(#clip0_371_377)">
<path d="M14.9999 23.5718H2.85704C2.06806 23.5718 1.42847 24.2114 1.42847 25.0003V37.1432C1.42847 37.9322 2.06806 38.5718 2.85704 38.5718H14.9999C15.7889 38.5718 16.4285 37.9322 16.4285 37.1432V25.0003C16.4285 24.2114 15.7889 23.5718 14.9999 23.5718Z" stroke="#F4B72A" stroke-width="1.5" stroke-linecap="round" stroke-linejoin="round"/>
<path d="M37.1427 23.5718H24.9999C24.2109 23.5718 23.5713 24.2114 23.5713 25.0003V37.1432C23.5713 37.9322 24.2109 38.5718 24.9999 38.5718H37.1427C37.9317 38.5718 38.5713 37.9322 38.5713 37.1432V25.0003C38.5713 24.2114 37.9317 23.5718 37.1427 23.5718Z" stroke="#F4B72A" stroke-width="1.5" stroke-linecap="round" stroke-linejoin="round"/>
<path d="M26.0856 1.42871H13.9427C13.1538 1.42871 12.5142 2.0683 12.5142 2.85728V15.0001C12.5142 15.7891 13.1538 16.4287 13.9427 16.4287H26.0856C26.8746 16.4287 27.5142 15.7891 27.5142 15.0001V2.85728C27.5142 2.0683 26.8746 1.42871 26.0856 1.42871Z" stroke="#F4B72A" stroke-width="1.5" stroke-linecap="round" stroke-linejoin="round"/>
</g>
<defs>
<clipPath id="clip0_371_377">
<rect width="40" height="40" fill="white"/>
</clipPath>
</defs>
</svg>
