<svg width="40" height="40" viewBox="0 0 40 40" fill="none" xmlns="http://www.w3.org/2000/svg">
<path d="M12.8572 37.1429C19.169 37.1429 24.2857 32.0262 24.2857 25.7143C24.2857 19.4025 19.169 14.2858 12.8572 14.2858C6.54533 14.2858 1.42859 19.4025 1.42859 25.7143C1.42859 32.0262 6.54533 37.1429 12.8572 37.1429Z" stroke="white" stroke-width="1.5" stroke-linecap="round" stroke-linejoin="round"/>
<path d="M27.1433 37.143C33.4551 37.143 38.5719 32.0263 38.5719 25.7145C38.5719 19.4026 33.4551 14.2859 27.1433 14.2859C20.8315 14.2859 15.7147 19.4026 15.7147 25.7145C15.7147 32.0263 20.8315 37.143 27.1433 37.143Z" stroke="white" stroke-width="1.5" stroke-linecap="round" stroke-linejoin="round"/>
<path d="M19.9997 25.7143C26.3116 25.7143 31.4283 20.5976 31.4283 14.2857C31.4283 7.97392 26.3116 2.85718 19.9997 2.85718C13.6879 2.85718 8.57117 7.97392 8.57117 14.2857C8.57117 20.5976 13.6879 25.7143 19.9997 25.7143Z" stroke="white" stroke-width="1.5" stroke-linecap="round" stroke-linejoin="round"/>
</svg>
