<svg width="40" height="40" viewBox="0 0 40 40" fill="none" xmlns="http://www.w3.org/2000/svg">
<g clip-path="url(#clip0_432_5297)">
<path d="M21.3428 19.7145C20.9191 19.8985 20.462 19.9935 20 19.9935C19.538 19.9935 19.0809 19.8985 18.6571 19.7145L2.3714 12.1717C2.10695 12.0383 1.88471 11.8341 1.72943 11.5819C1.57416 11.3297 1.49194 11.0393 1.49194 10.7431C1.49194 10.4469 1.57416 10.1565 1.72943 9.90431C1.88471 9.65208 2.10695 9.44791 2.3714 9.31452L18.6571 1.71452C19.0809 1.5305 19.538 1.43555 20 1.43555C20.462 1.43555 20.9191 1.5305 21.3428 1.71452L37.6285 9.25738C37.893 9.39076 38.1152 9.59494 38.2705 9.84716C38.4258 10.0994 38.508 10.3898 38.508 10.686C38.508 10.9821 38.4258 11.2725 38.2705 11.5247C38.1152 11.777 37.893 11.9811 37.6285 12.1145L21.3428 19.7145Z" stroke="#133D3C" stroke-width="2" stroke-linecap="round" stroke-linejoin="round"/>
<path d="M38.5714 21L21.1429 29.0286C20.7706 29.1984 20.3663 29.2862 19.9572 29.2862C19.548 29.2862 19.1437 29.1984 18.7714 29.0286L1.42859 21" stroke="#133D3C" stroke-width="2" stroke-linecap="round" stroke-linejoin="round"/>
<path d="M38.5714 30.2861L21.1429 38.3147C20.7706 38.4845 20.3663 38.5724 19.9572 38.5724C19.548 38.5724 19.1437 38.4845 18.7714 38.3147L1.42859 30.2861" stroke="#133D3C" stroke-width="2" stroke-linecap="round" stroke-linejoin="round"/>
</g>
<defs>
<clipPath id="clip0_432_5297">
<rect width="40" height="40" fill="white"/>
</clipPath>
</defs>
</svg>
