<svg width="20" height="20" viewBox="0 0 20 20" fill="none" xmlns="http://www.w3.org/2000/svg">
<path d="M17.9167 18.3332H2.08333C0.935 18.3332 0 17.3982 0 16.2498V14.5832C0 14.3532 0.186667 14.1665 0.416667 14.1665H0.833333C1.7525 14.1665 2.5 13.419 2.5 12.4998C2.5 11.5807 1.7525 10.8332 0.833333 10.8332H0.416667C0.186667 10.8332 0 10.6465 0 10.4165V8.74984C0 7.6015 0.935 6.6665 2.08333 6.6665H17.9167C19.065 6.6665 20 7.6015 20 8.74984V10.4165C20 10.6465 19.8133 10.8332 19.5833 10.8332H19.1667C18.2475 10.8332 17.5 11.5807 17.5 12.4998C17.5 12.9448 17.6733 13.3632 17.9883 13.6782C18.3025 13.9932 18.7208 14.1665 19.1658 14.1665H19.5825C19.8125 14.1665 19.9992 14.3532 19.9992 14.5832V16.2498C20 17.3982 19.065 18.3332 17.9167 18.3332ZM0.833333 14.9998V16.2498C0.833333 16.939 1.39417 17.4998 2.08333 17.4998H17.9167C18.6058 17.4998 19.1667 16.939 19.1667 16.2498V14.9998C18.4992 14.9998 17.8708 14.7398 17.3992 14.2682C16.9267 13.7957 16.6667 13.1673 16.6667 12.4998C16.6667 11.1215 17.7883 9.99984 19.1667 9.99984V8.74984C19.1667 8.06067 18.6058 7.49984 17.9167 7.49984H2.08333C1.39417 7.49984 0.833333 8.06067 0.833333 8.74984V9.99984C2.21167 9.99984 3.33333 11.1215 3.33333 12.4998C3.33333 13.8782 2.21167 14.9998 0.833333 14.9998Z" fill="#F4B72A"/>
<path d="M7.08366 8.33366C6.85366 8.33366 6.66699 8.14699 6.66699 7.91699V7.08366C6.66699 6.85366 6.85366 6.66699 7.08366 6.66699C7.31366 6.66699 7.50033 6.85366 7.50033 7.08366V7.91699C7.50033 8.14699 7.31366 8.33366 7.08366 8.33366Z" fill="#F4B72A"/>
<path d="M7.08366 15.3841C6.85366 15.3841 6.66699 15.1974 6.66699 14.9674V13.5582C6.66699 13.3282 6.85366 13.1416 7.08366 13.1416C7.31366 13.1416 7.50033 13.3274 7.50033 13.5582V14.9682C7.50033 15.1982 7.31366 15.3841 7.08366 15.3841ZM7.08366 11.8591C6.85366 11.8591 6.66699 11.6724 6.66699 11.4424V10.0324C6.66699 9.80239 6.85366 9.61572 7.08366 9.61572C7.31366 9.61572 7.50033 9.80239 7.50033 10.0324V11.4424C7.50033 11.6724 7.31366 11.8591 7.08366 11.8591Z" fill="#F4B72A"/>
<path d="M7.08366 18.3337C6.85366 18.3337 6.66699 18.147 6.66699 17.917V17.0837C6.66699 16.8537 6.85366 16.667 7.08366 16.667C7.31366 16.667 7.50033 16.8537 7.50033 17.0837V17.917C7.50033 18.147 7.31366 18.3337 7.08366 18.3337Z" fill="#F4B72A"/>
<path d="M2.08365 7.49994C1.91448 7.49994 1.75532 7.3966 1.69365 7.2291C1.61282 7.01327 1.72198 6.77327 1.93782 6.69327L15.1878 1.74577C15.832 1.5041 16.5886 1.86577 16.8086 2.51494L18.3111 6.9491C18.3845 7.16744 18.2678 7.40327 18.0503 7.47744C17.8345 7.5516 17.5961 7.4341 17.522 7.2166L16.0195 2.78244C15.9461 2.56577 15.6945 2.44744 15.4786 2.52577L2.22865 7.47327C2.18115 7.4916 2.13198 7.49994 2.08365 7.49994Z" fill="#F4B72A"/>
</svg>
