<svg width="37" height="37" viewBox="0 0 37 37" fill="none" xmlns="http://www.w3.org/2000/svg">
<path d="M36.1979 28.2257C35.043 27.2571 28.2693 22.9678 27.1435 23.1646C26.6149 23.2585 26.2105 23.7091 25.1283 25.0001C24.6278 25.6356 24.0781 26.2307 23.4844 26.7801C22.3966 26.5173 21.3436 26.127 20.3474 25.6172C16.4403 23.715 13.2838 20.5577 11.3828 16.65C10.873 15.6537 10.4827 14.6007 10.2199 13.5129C10.7693 12.9192 11.3644 12.3696 11.9999 11.8691C13.2896 10.7868 13.7415 10.3851 13.8354 9.85389C14.0323 8.72539 9.73893 1.95439 8.77429 0.799464C8.36993 0.321107 8.00257 0 7.53214 0C6.16843 0 0 7.62729 0 8.61572C0 8.69632 0.132143 16.6368 10.1605 26.8395C20.3632 36.8679 28.3037 37 28.3843 37C29.3727 37 37 30.8316 37 29.4679C37 28.9974 36.6789 28.6301 36.1979 28.2257Z" fill="white"/>
<path d="M27.7499 17.1769H30.3927C30.3896 14.3741 29.2748 11.6871 27.2929 9.70524C25.3111 7.7234 22.624 6.60862 19.8213 6.60547V9.24833C21.9234 9.25042 23.9389 10.0864 25.4253 11.5729C26.9118 13.0593 27.7478 15.0748 27.7499 17.1769Z" fill="white"/>
<path d="M34.3572 17.1786H37.0001C36.9949 12.6241 35.1833 8.25775 31.9628 5.03728C28.7424 1.81681 24.376 0.00524604 19.8215 0V2.64286C23.6752 2.6474 27.3698 4.1803 30.0948 6.90529C32.8198 9.63028 34.3527 13.3249 34.3572 17.1786Z" fill="white"/>
</svg>
