<svg width="24" height="24" viewBox="0 0 24 24" fill="none" xmlns="http://www.w3.org/2000/svg">
<g clip-path="url(#clip0_245_3556)">
<path d="M8.2488 21.4677V23.2693H7.01025C6.80854 23.2693 6.64489 23.4329 6.64489 23.6346C6.64489 23.8363 6.80854 24 7.01025 24H16.9929C17.1946 24 17.3583 23.8363 17.3583 23.6346C17.3583 23.4329 17.1946 23.2693 16.9929 23.2693H15.7544V21.4677H19.9669C21.7585 21.4677 23.2162 20.0082 23.2162 18.2137V7.42802C23.2162 5.63357 21.7585 4.17404 19.9669 4.17404H19.4263C19.4262 3.92681 19.4255 1.23501 19.4256 1.38722C19.4256 0.62225 18.8033 0 18.0386 0H6.11683C5.35209 0 4.72984 0.62225 4.72984 1.38723C4.72983 1.43725 4.72911 4.22406 4.72913 4.17404H4.03742C2.24297 4.17404 0.783203 5.63357 0.783203 7.42802V18.2137C0.783203 20.0082 2.24297 21.4677 4.03742 21.4677H8.2488ZM15.0236 23.2693H8.97952V21.4677H15.0236V23.2693ZM4.60235 16.8741C3.89851 16.8741 3.32597 16.3013 3.32597 15.5977V7.98842C3.32597 7.28482 3.89851 6.71205 4.60235 6.71205H4.72913V16.8741H4.60235ZM5.45985 3.97899H18.6956V16.8741H5.45985C5.45985 16.6582 5.45985 3.3087 5.45985 3.97899ZM19.4263 6.71205C20.1187 6.72537 20.6781 7.29291 20.6781 7.98842V15.5977C20.6781 16.2932 20.1187 16.8608 19.4263 16.8741V6.71205ZM5.46056 1.38723C5.46056 1.0252 5.75503 0.73072 6.11682 0.73072H18.0386C18.4004 0.73072 18.6948 1.0252 18.6948 1.38723V3.24732H5.46056V1.38723ZM1.51392 18.2137V7.42802C1.51392 6.03651 2.64591 4.90476 4.03742 4.90476H4.72913V5.98133H4.60235C3.49557 5.98133 2.59525 6.88188 2.59525 7.98842V15.5977C2.59525 16.7042 3.49557 17.6048 4.60235 17.6048H19.4018C20.5085 17.6048 21.4089 16.7042 21.4089 15.5977V7.98842C21.4089 6.89026 20.5215 5.99733 19.4263 5.98383V4.90476H19.9669C21.3556 4.90476 22.4854 6.03651 22.4854 7.42802V18.2137C22.4854 19.6052 21.3556 20.737 19.9669 20.737C19.5591 20.7348 4.30133 20.7369 4.03742 20.737C2.64591 20.737 1.51392 19.6052 1.51392 18.2137Z" fill="#133D3C"/>
<path d="M12.0011 20.1658C12.5489 20.1658 12.9945 19.7186 12.9945 19.1691C12.9945 18.6215 12.5489 18.1758 12.0011 18.1758C11.4533 18.1758 11.0078 18.6215 11.0078 19.1691C11.0078 19.7186 11.4533 20.1658 12.0011 20.1658ZM12.0011 18.9065C12.146 18.9065 12.2637 19.0245 12.2637 19.1691C12.2637 19.3156 12.146 19.435 12.0011 19.435C11.8563 19.435 11.7385 19.3156 11.7385 19.1691C11.7385 19.0245 11.8563 18.9065 12.0011 18.9065Z" fill="#133D3C"/>
<path d="M7.12976 1.625H6.71302C6.51131 1.625 6.34766 1.78865 6.34766 1.99036C6.34766 2.19207 6.51131 2.35572 6.71302 2.35572H7.12976C7.33147 2.35572 7.49512 2.19207 7.49512 1.99036C7.49512 1.78865 7.33146 1.625 7.12976 1.625Z" fill="#133D3C"/>
<path d="M8.8114 1.625H8.39466C8.19295 1.625 8.0293 1.78865 8.0293 1.99036C8.0293 2.19207 8.19295 2.35572 8.39466 2.35572H8.8114C9.01311 2.35572 9.17676 2.19207 9.17676 1.99036C9.17676 1.78865 9.01311 1.625 8.8114 1.625Z" fill="#133D3C"/>
<path d="M10.493 1.625H10.0763C9.87459 1.625 9.71094 1.78865 9.71094 1.99036C9.71094 2.19207 9.87459 2.35572 10.0763 2.35572H10.493C10.6947 2.35572 10.8584 2.19207 10.8584 1.99036C10.8584 1.78865 10.6947 1.625 10.493 1.625Z" fill="#133D3C"/>
<path d="M15.6178 7.90167C15.2876 7.33175 14.5541 7.1348 13.9839 7.464L13.2741 7.87313V7.05488C13.2741 6.403 12.7547 5.85938 12.0784 5.85938C11.4171 5.85938 10.8791 6.39552 10.8791 7.05488V7.87218L10.1671 7.46067C9.58818 7.14003 8.8546 7.35601 8.53872 7.90167C8.20479 8.47976 8.40566 9.21106 8.97734 9.53675L9.68618 9.9454L8.97663 10.3545C8.40483 10.6857 8.20697 11.4176 8.53824 11.9915C8.86621 12.561 9.59691 12.7606 10.1731 12.4268L10.8791 12.0186V12.8359C10.8791 13.4785 11.403 14.0352 12.0784 14.0352C12.7377 14.0352 13.2741 13.4972 13.2741 12.8359V12.0177L13.9796 12.4244C14.5403 12.7577 15.2858 12.5662 15.618 11.9925C15.6183 11.9915 15.6187 11.991 15.6192 11.9901C15.9453 11.4173 15.7484 10.6837 15.1792 10.3545L14.4703 9.9454L15.1801 9.53627C15.7183 9.22437 15.9641 8.52792 15.6178 7.90167ZM14.8143 8.90403L13.5565 9.62904C13.3133 9.76899 13.3123 10.1212 13.5565 10.2618L14.8136 10.9872C15.0355 11.1157 15.1121 11.4026 14.9848 11.6276C14.8623 11.8378 14.5674 11.9235 14.3488 11.7941L13.0912 11.0691C12.849 10.928 12.5434 11.1044 12.5434 11.3854V12.8359C12.5434 13.0942 12.3348 13.3045 12.0784 13.3045C11.8144 13.3045 11.6098 13.0831 11.6098 12.8359V11.3854C11.6098 11.1026 11.3027 10.9292 11.0615 11.0691L9.807 11.7941C9.58125 11.9255 9.29769 11.8465 9.17143 11.6262C9.03901 11.3987 9.12299 11.1146 9.34222 10.9872L10.6 10.2618C10.8425 10.1222 10.8449 9.77 10.6 9.62904L9.34079 8.90308C9.11697 8.77532 9.04183 8.49143 9.17119 8.26798C9.29655 8.052 9.57937 7.97065 9.80724 8.09672L11.0615 8.82173C11.3057 8.96334 11.6098 8.78506 11.6098 8.50537V7.05487C11.6098 6.79846 11.82 6.59009 12.0784 6.59009C12.3503 6.59009 12.5434 6.80716 12.5434 7.05487V8.50537C12.5434 8.7852 12.8479 8.96341 13.0912 8.82173L14.3485 8.09719C14.5712 7.96922 14.8569 8.04534 14.9817 8.26132C15.1218 8.5154 15.0263 8.7806 14.8143 8.90403Z" fill="#133D3C"/>
</g>
<defs>
<clipPath id="clip0_245_3556">
<rect width="24" height="24" fill="white"/>
</clipPath>
</defs>
</svg>
