<svg width="40" height="40" viewBox="0 0 40 40" fill="none" xmlns="http://www.w3.org/2000/svg">
<path d="M12.8572 37.1423C19.169 37.1423 24.2857 32.0256 24.2857 25.7137C24.2857 19.4019 19.169 14.2852 12.8572 14.2852C6.54533 14.2852 1.42859 19.4019 1.42859 25.7137C1.42859 32.0256 6.54533 37.1423 12.8572 37.1423Z" stroke="white" stroke-width="1.5" stroke-linecap="round" stroke-linejoin="round"/>
<path d="M27.1433 37.1423C33.4551 37.1423 38.5719 32.0256 38.5719 25.7137C38.5719 19.4019 33.4551 14.2852 27.1433 14.2852C20.8315 14.2852 15.7147 19.4019 15.7147 25.7137C15.7147 32.0256 20.8315 37.1423 27.1433 37.1423Z" stroke="white" stroke-width="1.5" stroke-linecap="round" stroke-linejoin="round"/>
<path d="M19.9997 25.7146C26.3116 25.7146 31.4283 20.5978 31.4283 14.286C31.4283 7.97417 26.3116 2.85742 19.9997 2.85742C13.6879 2.85742 8.57117 7.97417 8.57117 14.286C8.57117 20.5978 13.6879 25.7146 19.9997 25.7146Z" stroke="white" stroke-width="1.5" stroke-linecap="round" stroke-linejoin="round"/>
</svg>
