<svg width="30" height="30" viewBox="0 0 30 30" fill="none" xmlns="http://www.w3.org/2000/svg">
<g clip-path="url(#clip0_469_658)">
<path d="M23.7094 18.585C23.0952 17.9455 22.3544 17.6036 21.5693 17.6036C20.7905 17.6036 20.0433 17.9392 19.4038 18.5787L17.403 20.5732C17.2384 20.4845 17.0737 20.4022 16.9154 20.3199C16.6875 20.2059 16.4722 20.0983 16.2886 19.9843C14.4144 18.7939 12.7112 17.2427 11.0776 15.2355C10.2862 14.2351 9.75429 13.393 9.36805 12.5382C9.88725 12.0633 10.3685 11.5695 10.837 11.0946C11.0143 10.9173 11.1916 10.7337 11.3689 10.5564C12.6985 9.22673 12.6985 7.50451 11.3689 6.17485L9.64032 4.4463C9.44403 4.25002 9.24142 4.0474 9.05147 3.84479C8.67157 3.45222 8.27267 3.04699 7.86111 2.66709C7.24693 2.05924 6.51245 1.73633 5.73999 1.73633C4.96752 1.73633 4.22038 2.05924 3.58721 2.66709C3.58087 2.67342 3.58087 2.67342 3.57454 2.67975L1.42176 4.85153C0.611304 5.66199 0.14909 6.64973 0.0477826 7.79577C-0.104178 9.64463 0.440348 11.3669 0.858241 12.4939C1.88398 15.2609 3.41625 17.8252 5.702 20.5732C8.47528 23.8846 11.8121 26.4996 15.6238 28.3422C17.0801 29.0323 19.0239 29.8491 21.1957 29.9884C21.3286 29.9947 21.4679 30.0011 21.5946 30.0011C23.0572 30.0011 24.2856 29.4755 25.248 28.4308C25.2543 28.4181 25.267 28.4118 25.2733 28.3991C25.6025 28.0002 25.9825 27.6393 26.3813 27.2531C26.6536 26.9935 26.9322 26.7212 27.2045 26.4363C27.8313 25.7841 28.1606 25.0243 28.1606 24.2455C28.1606 23.4604 27.825 22.7069 27.1855 22.0738L23.7094 18.585ZM25.9761 25.2523C25.9698 25.2586 25.9698 25.2523 25.9761 25.2523C25.7292 25.5182 25.4759 25.7588 25.2037 26.0248C24.7921 26.4173 24.3742 26.8289 23.9816 27.2911C23.3421 27.9749 22.5887 28.2978 21.6009 28.2978C21.5059 28.2978 21.4046 28.2978 21.3097 28.2915C19.4291 28.1712 17.6816 27.4367 16.3709 26.8099C12.7872 25.075 9.64032 22.612 7.02532 19.4904C4.86621 16.8881 3.42258 14.4821 2.46649 11.8987C1.87765 10.3221 1.66237 9.09377 1.75734 7.93507C1.82066 7.19426 2.10559 6.58008 2.63112 6.05455L4.79023 3.89544C5.10048 3.60418 5.42973 3.44589 5.75265 3.44589C6.15155 3.44589 6.47446 3.68649 6.67708 3.88911C6.68341 3.89544 6.68974 3.90177 6.69607 3.9081C7.08231 4.26901 7.44955 4.64258 7.83578 5.04148C8.03206 5.24409 8.23468 5.44671 8.43729 5.65565L10.1658 7.38421C10.837 8.05537 10.837 8.67588 10.1658 9.34704C9.98223 9.53066 9.80494 9.71428 9.62132 9.89156C9.08946 10.4361 8.58292 10.9426 8.03206 11.4365C8.0194 11.4492 8.00674 11.4555 8.00041 11.4682C7.45588 12.0127 7.55719 12.5445 7.67116 12.9055C7.67749 12.9245 7.68382 12.9434 7.69015 12.9624C8.1397 14.0515 8.77287 15.0772 9.73529 16.2993L9.74162 16.3056C11.4892 18.4584 13.3317 20.1363 15.3642 21.4216C15.6238 21.5862 15.8897 21.7192 16.143 21.8458C16.3709 21.9598 16.5862 22.0674 16.7698 22.1814C16.7951 22.1941 16.8205 22.2131 16.8458 22.2257C17.0611 22.3334 17.2637 22.384 17.4726 22.384C17.9982 22.384 18.3274 22.0548 18.4351 21.9471L20.6005 19.7817C20.8158 19.5664 21.1577 19.3068 21.5566 19.3068C21.9492 19.3068 22.2721 19.5537 22.4684 19.769C22.4747 19.7754 22.4747 19.7754 22.481 19.7817L25.9698 23.2705C26.622 23.9163 26.622 24.5811 25.9761 25.2523Z" fill="#133D3C"/>
<path d="M16.2131 7.13611C17.872 7.4147 19.379 8.19983 20.582 9.40286C21.785 10.6059 22.5638 12.1128 22.8487 13.7717C22.9184 14.1896 23.2793 14.4809 23.6909 14.4809C23.7415 14.4809 23.7858 14.4746 23.8365 14.4682C24.305 14.3922 24.6153 13.949 24.5393 13.4805C24.1974 11.4733 23.2476 9.64346 21.7977 8.1935C20.3477 6.74354 18.5179 5.79379 16.5107 5.45187C16.0422 5.37589 15.6053 5.68615 15.523 6.14836C15.4406 6.61058 15.7446 7.06013 16.2131 7.13611Z" fill="#133D3C"/>
<path d="M29.9647 13.2336C29.4012 9.92848 27.8436 6.92092 25.4502 4.52754C23.0568 2.13415 20.0492 0.576553 16.7441 0.0130316C16.2819 -0.0692806 15.845 0.247305 15.7627 0.709519C15.6867 1.17807 15.9969 1.61495 16.4655 1.69727C19.4161 2.19747 22.107 3.59678 24.2471 5.73056C26.3873 7.87068 27.7802 10.5617 28.2804 13.5122C28.3501 13.9301 28.711 14.2214 29.1226 14.2214C29.1732 14.2214 29.2175 14.215 29.2682 14.2087C29.7304 14.1391 30.047 13.6958 29.9647 13.2336Z" fill="#133D3C"/>
</g>
<defs>
<clipPath id="clip0_469_658">
<rect width="30" height="30" fill="white"/>
</clipPath>
</defs>
</svg>
