<svg width="80" height="80" viewBox="0 0 80 80" fill="none" xmlns="http://www.w3.org/2000/svg">
<path d="M42.6808 39.4271C41.8332 39.7951 40.9191 39.985 39.9951 39.985C39.071 39.985 38.1569 39.7951 37.3093 39.4271L4.73792 24.3414C4.20901 24.0746 3.76453 23.6663 3.45398 23.1618C3.14343 22.6574 2.979 22.0766 2.979 21.4842C2.979 20.8919 3.14343 20.3111 3.45398 19.8067C3.76453 19.3022 4.20901 18.8939 4.73792 18.6271L37.3093 3.42709C38.1569 3.05905 39.071 2.86914 39.9951 2.86914C40.9191 2.86914 41.8332 3.05905 42.6808 3.42709L75.2522 18.5128C75.7811 18.7796 76.2256 19.1879 76.5361 19.6924C76.8467 20.1968 77.0111 20.7776 77.0111 21.3699C77.0111 21.9623 76.8467 22.5431 76.5361 23.0475C76.2256 23.552 75.7811 23.9603 75.2522 24.2271L42.6808 39.4271Z" stroke="#133D3C" stroke-width="1.5" stroke-linecap="round" stroke-linejoin="round"/>
<path d="M77.1397 42L42.2826 58.0571C41.5381 58.3967 40.7294 58.5724 39.9111 58.5724C39.0929 58.5724 38.2842 58.3967 37.5397 58.0571L2.854 42" stroke="#133D3C" stroke-width="1.5" stroke-linecap="round" stroke-linejoin="round"/>
<path d="M77.1397 60.5723L42.2826 76.6294C41.5381 76.969 40.7294 77.1447 39.9111 77.1447C39.0929 77.1447 38.2842 76.969 37.5397 76.6294L2.854 60.5723" stroke="#133D3C" stroke-width="1.5" stroke-linecap="round" stroke-linejoin="round"/>
</svg>
