<svg width="40" height="40" viewBox="0 0 40 40" fill="none" xmlns="http://www.w3.org/2000/svg">
<path d="M20 38.2571C21.876 38.2571 23.7337 37.8876 25.4669 37.1697C27.2001 36.4518 28.775 35.3995 30.1015 34.073C31.4281 32.7464 32.4804 31.1716 33.1983 29.4383C33.9162 27.7051 34.2857 25.8475 34.2857 23.9714V16.0286C34.2859 12.5191 32.9943 9.13235 30.6571 6.51428" stroke="#F4B72A" stroke-width="1.5" stroke-linecap="round" stroke-linejoin="round"/>
<path d="M5.71436 19.2001V23.9715C5.7134 26.7838 6.54251 29.5337 8.09777 31.8768C9.65304 34.2199 11.8653 36.0518 14.4572 37.1429" stroke="#F4B72A" stroke-width="1.5" stroke-linecap="round" stroke-linejoin="round"/>
<path d="M27.1429 3.65718C23.8617 1.76286 19.9625 1.24951 16.3029 2.23005C12.6433 3.21059 9.52303 5.60471 7.62857 8.88575C6.84851 10.233 6.29813 11.7007 6 13.2286" stroke="#F4B72A" stroke-width="1.5" stroke-linecap="round" stroke-linejoin="round"/>
<path d="M18.5144 10.0286C19.5653 9.81047 20.6517 9.83095 21.6936 10.0886C22.7354 10.3462 23.7062 10.8344 24.5343 11.5171C25.3624 12.1999 26.0266 13.0598 26.4781 14.0335C26.9296 15.0072 27.1568 16.0697 27.143 17.1429V21.7429" stroke="#F4B72A" stroke-width="1.5" stroke-linecap="round" stroke-linejoin="round"/>
<path d="M25.3143 27.7429C24.3421 28.8258 23.0624 29.5859 21.6465 29.9215C20.2305 30.2571 18.7458 30.1522 17.391 29.6209C16.0363 29.0896 14.8762 28.1571 14.0659 26.9484C13.2556 25.7396 12.8339 24.3122 12.8571 22.8572V17.1429C12.8517 16.1616 13.0461 15.1895 13.4285 14.2858" stroke="#F4B72A" stroke-width="1.5" stroke-linecap="round" stroke-linejoin="round"/>
<path d="M20 17.4572V22.2286" stroke="#F4B72A" stroke-width="1.5" stroke-linecap="round" stroke-linejoin="round"/>
</svg>
