<svg width="80" height="80" viewBox="0 0 80 80" fill="none" xmlns="http://www.w3.org/2000/svg">
<path d="M25.7111 74.2865C38.3348 74.2865 48.5683 64.0531 48.5683 51.4294C48.5683 38.8058 38.3348 28.5723 25.7111 28.5723C13.0875 28.5723 2.854 38.8058 2.854 51.4294C2.854 64.0531 13.0875 74.2865 25.7111 74.2865Z" stroke="#133D3C" stroke-width="1.5" stroke-linecap="round" stroke-linejoin="round"/>
<path d="M54.284 74.2865C66.9077 74.2865 77.1412 64.0531 77.1412 51.4294C77.1412 38.8058 66.9077 28.5723 54.284 28.5723C41.6604 28.5723 31.4269 38.8058 31.4269 51.4294C31.4269 64.0531 41.6604 74.2865 54.284 74.2865Z" stroke="#133D3C" stroke-width="1.5" stroke-linecap="round" stroke-linejoin="round"/>
<path d="M39.9924 51.4272C52.616 51.4272 62.8495 41.1937 62.8495 28.57C62.8495 15.9464 52.616 5.71289 39.9924 5.71289C27.3687 5.71289 17.1353 15.9464 17.1353 28.57C17.1353 41.1937 27.3687 51.4272 39.9924 51.4272Z" stroke="#133D3C" stroke-width="1.5" stroke-linecap="round" stroke-linejoin="round"/>
</svg>
