<svg width="24" height="24" viewBox="0 0 24 24" fill="none" xmlns="http://www.w3.org/2000/svg">
<g clip-path="url(#clip0_245_3589)">
<path d="M21.4289 0.855469H2.57171C1.62493 0.855469 0.857422 1.62298 0.857422 2.56975V21.4269C0.857422 22.3737 1.62493 23.1412 2.57171 23.1412H21.4289C22.3756 23.1412 23.1431 22.3737 23.1431 21.4269V2.56975C23.1431 1.62298 22.3756 0.855469 21.4289 0.855469Z" stroke="#133D3C" stroke-linecap="round" stroke-linejoin="round"/>
<path d="M12 19.7109C15.3137 19.7109 18 17.0246 18 13.7109C18 10.3972 15.3137 7.71094 12 7.71094C8.68629 7.71094 6 10.3972 6 13.7109C6 17.0246 8.68629 19.7109 12 19.7109Z" stroke="#133D3C" stroke-linecap="round" stroke-linejoin="round"/>
<path d="M0.857422 6H6.00028" stroke="#133D3C" stroke-linecap="round" stroke-linejoin="round"/>
<path d="M18 6H23.1429" stroke="#133D3C" stroke-linecap="round" stroke-linejoin="round"/>
<path d="M12 13.6602V19.6602" stroke="#133D3C" stroke-linecap="round" stroke-linejoin="round"/>
<path d="M6.85742 10.625L12.0003 13.6593" stroke="#133D3C" stroke-linecap="round" stroke-linejoin="round"/>
<path d="M17.1429 10.625L12 13.6593" stroke="#133D3C" stroke-linecap="round" stroke-linejoin="round"/>
</g>
<defs>
<clipPath id="clip0_245_3589">
<rect width="24" height="24" fill="white"/>
</clipPath>
</defs>
</svg>
