<svg width="50" height="50" viewBox="0 0 50 50" fill="none" xmlns="http://www.w3.org/2000/svg">
<path d="M11.6076 21.428C17.0318 21.428 21.429 17.0308 21.429 11.6066C21.429 6.18236 17.0318 1.78516 11.6076 1.78516C6.18334 1.78516 1.78613 6.18236 1.78613 11.6066C1.78613 17.0308 6.18334 21.428 11.6076 21.428Z" stroke="#133D3C" stroke-width="1.5" stroke-linecap="round" stroke-linejoin="round"/>
<path d="M38.3937 21.428C43.8179 21.428 48.2151 17.0308 48.2151 11.6066C48.2151 6.18236 43.8179 1.78516 38.3937 1.78516C32.9695 1.78516 28.5723 6.18236 28.5723 11.6066C28.5723 17.0308 32.9695 21.428 38.3937 21.428Z" stroke="#133D3C" stroke-width="1.5" stroke-linecap="round" stroke-linejoin="round"/>
<path d="M11.6076 48.2132C17.0318 48.2132 21.429 43.816 21.429 38.3917C21.429 32.9675 17.0318 28.5703 11.6076 28.5703C6.18334 28.5703 1.78613 32.9675 1.78613 38.3917C1.78613 43.816 6.18334 48.2132 11.6076 48.2132Z" stroke="#133D3C" stroke-width="1.5" stroke-linecap="round" stroke-linejoin="round"/>
<path d="M38.3937 48.2132C43.8179 48.2132 48.2151 43.816 48.2151 38.3917C48.2151 32.9675 43.8179 28.5703 38.3937 28.5703C32.9695 28.5703 28.5723 32.9675 28.5723 38.3917C28.5723 43.816 32.9695 48.2132 38.3937 48.2132Z" stroke="#133D3C" stroke-width="1.5" stroke-linecap="round" stroke-linejoin="round"/>
</svg>
