<svg width="200" height="200" viewBox="0 0 200 200" fill="none" xmlns="http://www.w3.org/2000/svg">
<circle cx="100" cy="100" r="85" stroke="#F4B72A" stroke-width="30"/>
<path d="M113.104 7.98764L116.517 8.29749L109.95 16.4758L109.239 23.6111L106.348 23.3486L107.059 16.2133L102.227 7L105.639 7.30985L108.805 13.3366L113.104 7.98764Z" fill="#133D3C"/>
<path d="M121.42 26.2733C120.371 25.9749 119.493 25.4449 118.787 24.6831C118.088 23.9235 117.616 23.0348 117.371 22.0169C117.134 21.0011 117.179 19.9671 117.507 18.9147C117.754 18.1237 118.134 17.4256 118.646 16.8204C119.16 16.2081 119.757 15.7141 120.437 15.3386C121.127 14.958 121.865 14.7173 122.65 14.6165C123.434 14.5157 124.219 14.5766 125.002 14.7993C125.892 15.0523 126.649 15.465 127.273 16.0376C127.907 16.6051 128.386 17.2745 128.708 18.0456C129.03 18.8168 129.185 19.635 129.171 20.5004C129.158 21.3657 128.95 22.2155 128.549 23.0496L120.211 20.6789C120.19 21.1156 120.251 21.5318 120.392 21.9276C120.536 22.3161 120.763 22.6613 121.075 22.9632C121.389 23.2578 121.78 23.4758 122.249 23.6171C122.734 23.7627 123.209 23.7793 123.674 23.6667C124.15 23.5491 124.582 23.3321 124.971 23.0159L127.614 24.4548C126.849 25.2882 125.91 25.8825 124.797 26.2378C123.686 26.5858 122.561 26.5976 121.42 26.2733ZM120.741 18.6608L126.354 20.2564C126.406 19.7971 126.349 19.3544 126.184 18.9282C126.029 18.497 125.787 18.1199 125.457 17.797C125.127 17.4741 124.734 17.2478 124.278 17.118C123.822 16.9883 123.367 16.9736 122.913 17.0738C122.462 17.1667 122.044 17.3521 121.659 17.6298C121.284 17.9025 120.978 18.2462 120.741 18.6608Z" fill="#133D3C"/>
<path d="M145.199 23.2625L147.756 24.5769L142.112 34.5773L139.555 33.263L140.139 31.9636C139.601 32.2631 139.015 32.4307 138.382 32.4665C137.76 32.4993 137.127 32.3504 136.484 32.0201C135.709 31.6214 135.061 31.1079 134.542 30.4796C134.022 29.8512 133.643 29.1575 133.405 28.3984C133.173 27.6429 133.093 26.8664 133.165 26.0688C133.243 25.2749 133.491 24.5079 133.909 23.7679C134.312 23.0545 134.826 22.4545 135.452 21.9679C136.086 21.4848 136.784 21.1341 137.547 20.9157C138.31 20.6974 139.092 20.6218 139.892 20.6891C140.692 20.7564 141.466 20.9822 142.214 21.3665C142.905 21.722 143.441 22.1865 143.82 22.7599C144.206 23.337 144.464 23.9509 144.592 24.6018L145.199 23.2625ZM137.748 29.6376C138.293 29.9177 138.848 30.0355 139.414 29.991C139.98 29.9464 140.506 29.7652 140.992 29.4473C141.481 29.1227 141.877 28.6937 142.178 28.1604C142.483 27.6204 142.641 27.0693 142.651 26.5072C142.666 25.9384 142.534 25.4144 142.254 24.9354C141.982 24.4599 141.577 24.0839 141.039 23.8074C140.501 23.5308 139.933 23.411 139.335 23.4478C138.748 23.4816 138.198 23.6503 137.684 23.9538C137.177 24.261 136.772 24.6846 136.467 25.2246C136.162 25.7646 136.018 26.3229 136.035 26.8994C136.052 27.4758 136.208 28.0072 136.501 28.4935C136.801 28.9833 137.217 29.3647 137.748 29.6376Z" fill="#133D3C"/>
<path d="M145.989 37.1473L153.339 28.2129L155.621 29.9266L154.976 30.7281C155.559 30.6455 156.148 30.6782 156.743 30.8261C157.342 30.9681 157.898 31.2311 158.409 31.615C158.752 31.8726 159.056 32.1777 159.321 32.5305L156.612 34.0524C156.449 33.7852 156.249 33.5626 156.012 33.3847C155.644 33.1084 155.236 32.9419 154.788 32.885C154.351 32.8269 153.922 32.8758 153.501 33.0316C153.091 33.1862 152.741 33.4391 152.451 33.7902L148.271 38.861L145.989 37.1473Z" fill="#133D3C"/>
<path d="M156.785 46.3597C156.39 45.9039 156.068 45.4073 155.821 44.87C155.585 44.333 155.448 43.7908 155.408 43.2432C155.369 42.6957 155.453 42.1731 155.659 41.6753L158.103 42.6925C158.053 42.8625 158.035 43.0817 158.049 43.3499C158.069 43.613 158.136 43.8854 158.251 44.1672C158.371 44.4545 158.554 44.7222 158.799 44.9702C159.006 45.1796 159.23 45.352 159.473 45.4874C159.727 45.6231 159.975 45.6917 160.216 45.6932C160.463 45.7002 160.687 45.6127 160.889 45.431C161.103 45.2388 161.197 45.0191 161.171 44.7719C161.156 44.5251 161.071 44.2683 160.917 44.0014C160.774 43.7349 160.63 43.479 160.486 43.2339C160.079 42.6117 159.767 41.9708 159.552 41.3111C159.342 40.657 159.283 40.0286 159.375 39.4258C159.478 38.8234 159.789 38.2884 160.309 37.821C160.88 37.3068 161.515 37.006 162.214 36.9186C162.918 36.8366 163.612 36.9259 164.294 37.1862C164.982 37.452 165.592 37.855 166.126 38.395C166.774 39.0508 167.222 39.7813 167.472 40.5866C167.734 41.3921 167.762 42.1885 167.558 42.9755L164.995 42.2684C165.058 42.0666 165.079 41.8448 165.058 41.6032C165.043 41.3564 164.986 41.111 164.887 40.8671C164.794 40.6181 164.658 40.3919 164.479 40.1887C164.246 39.9303 163.999 39.7251 163.74 39.5732C163.481 39.4212 163.22 39.3442 162.956 39.3421C162.698 39.3455 162.453 39.4511 162.222 39.6589C162.002 39.8563 161.92 40.0869 161.973 40.3509C162.032 40.6098 162.148 40.8809 162.318 41.1642C162.495 41.4531 162.654 41.7362 162.797 42.0135C163.109 42.649 163.353 43.288 163.529 43.9305C163.711 44.5785 163.754 45.1904 163.658 45.7662C163.561 46.3421 163.262 46.8452 162.76 47.2757C162.2 47.7795 161.552 48.0612 160.814 48.1207C160.083 48.1751 159.357 48.0475 158.637 47.7378C157.922 47.4337 157.305 46.9744 156.785 46.3597Z" fill="#133D3C"/>
<path d="M167.949 59.4127L182.73 52.0703L187.556 60.9168L184.979 62.1965L181.495 55.8085L178.497 57.2979L181.261 62.366L178.685 63.6457L175.921 58.5776L171.866 60.5915L175.351 66.9796L172.775 68.2592L167.949 59.4127Z" fill="#133D3C"/>
<path d="M174.427 71.7613L181.4 74.1109L185.852 68.5366L186.879 71.8123L184.283 75.0664L188.328 76.4375L189.354 79.7133L182.426 77.3866L177.949 83.0033L176.923 79.7276L179.562 76.4136L175.453 75.037L174.427 71.7613Z" fill="#133D3C"/>
<path d="M173.007 89.5121L172.748 86.7515L190.531 85.2353L190.79 87.9959L189.284 88.1242C189.856 88.448 190.333 88.8635 190.715 89.3707C191.106 89.8848 191.335 90.5039 191.403 91.228C191.481 92.0577 191.391 92.8446 191.134 93.5888C190.877 94.333 190.486 95.0012 189.96 95.5934C189.442 96.1926 188.822 96.675 188.099 97.0407C187.378 97.414 186.586 97.6373 185.724 97.7108C184.863 97.7843 184.038 97.6987 183.251 97.4542C182.464 97.2171 181.756 96.8479 181.127 96.3465C180.507 95.852 180.002 95.2602 179.611 94.5713C179.22 93.8824 178.985 93.1231 178.908 92.2934C178.84 91.5693 178.946 90.9216 179.228 90.3502C179.517 89.7857 179.914 89.2957 180.416 88.8803L173.007 89.5121ZM188.614 91.4316C188.56 90.8584 188.354 90.3589 187.996 89.9333C187.645 89.5071 187.197 89.1879 186.651 88.976C186.106 88.764 185.517 88.685 184.884 88.7389C184.252 88.7928 183.683 88.9705 183.178 89.2721C182.68 89.5731 182.294 89.9633 182.021 90.4428C181.755 90.9216 181.649 91.4477 181.702 92.0209C181.757 92.6017 181.961 93.1203 182.314 93.5767C182.667 94.0332 183.118 94.3825 183.667 94.6246C184.223 94.8661 184.821 94.9595 185.462 94.905C186.094 94.851 186.657 94.6585 187.152 94.3274C187.647 93.9963 188.026 93.5763 188.289 93.0673C188.561 92.5651 188.669 92.0199 188.614 91.4316Z" fill="#133D3C"/>
<path d="M178.858 107.463C178.985 106.425 179.381 105.508 180.046 104.713C180.709 103.926 181.545 103.329 182.554 102.923C183.561 102.524 184.636 102.389 185.779 102.516C186.638 102.612 187.424 102.848 188.137 103.225C188.858 103.603 189.47 104.079 189.975 104.654C190.487 105.237 190.863 105.889 191.102 106.609C191.341 107.33 191.413 108.077 191.319 108.852C191.211 109.732 190.915 110.515 190.432 111.201C189.955 111.895 189.347 112.46 188.607 112.895C187.866 113.331 187.048 113.617 186.153 113.754C185.257 113.89 184.344 113.842 183.414 113.609L184.424 105.361C183.97 105.417 183.551 105.546 183.166 105.747C182.79 105.949 182.473 106.223 182.215 106.567C181.965 106.913 181.808 107.319 181.743 107.784C181.676 108.265 181.741 108.714 181.937 109.133C182.141 109.559 182.439 109.928 182.832 110.239L181.803 112.972C180.811 112.396 180.035 111.616 179.477 110.631C178.926 109.647 178.72 108.591 178.858 107.463ZM186.599 105.512L185.919 111.063C186.402 111.033 186.849 110.904 187.261 110.675C187.679 110.455 188.026 110.162 188.303 109.797C188.579 109.431 188.745 109.023 188.8 108.571C188.856 108.12 188.793 107.69 188.611 107.281C188.437 106.872 188.174 106.511 187.821 106.198C187.475 105.892 187.067 105.664 186.599 105.512Z" fill="#133D3C"/>
<path d="M177.44 117.54L188.864 120.727L188.047 123.386L187.027 123.113C187.324 123.598 187.512 124.132 187.589 124.714C187.674 125.298 187.625 125.888 187.442 126.484C187.319 126.884 187.135 127.266 186.89 127.632L184.403 125.799C184.602 125.555 184.744 125.295 184.828 125.019C184.96 124.59 184.97 124.167 184.859 123.749C184.753 123.34 184.546 122.978 184.238 122.663C183.935 122.357 183.559 122.142 183.109 122.016L176.622 120.2L177.44 117.54Z" fill="#133D3C"/>
<path d="M185.089 131.783L183.966 134.339L172.99 129.946L174.113 127.39L185.089 131.783ZM185.934 133.649C186.1 133.272 186.368 133.005 186.737 132.849C187.114 132.696 187.5 132.699 187.896 132.857C188.283 133.012 188.552 133.272 188.702 133.636C188.852 133.999 188.846 134.366 188.683 134.737C188.52 135.107 188.252 135.365 187.878 135.511C187.501 135.664 187.119 135.663 186.731 135.507C186.336 135.349 186.062 135.092 185.909 134.735C185.763 134.381 185.772 134.019 185.934 133.649Z" fill="#133D3C"/>
<path d="M168.476 137.79C169.039 136.894 169.795 136.214 170.744 135.751C171.688 135.294 172.708 135.078 173.802 135.105C174.892 135.137 175.93 135.436 176.917 136.001C177.658 136.426 178.272 136.95 178.76 137.574C179.253 138.201 179.606 138.876 179.819 139.598C180.033 140.33 180.094 141.072 180.002 141.823C179.909 142.573 179.652 143.283 179.232 143.952C178.754 144.711 178.147 145.309 177.411 145.743C176.677 146.189 175.879 146.465 175.016 146.571C174.153 146.677 173.284 146.617 172.409 146.389C171.534 146.162 170.723 145.759 169.976 145.181L174.454 138.062C174.016 137.934 173.579 137.887 173.142 137.919C172.712 137.956 172.305 138.08 171.921 138.293C171.544 138.51 171.226 138.818 170.966 139.216C170.697 139.628 170.563 140.063 170.561 140.521C170.562 140.99 170.675 141.444 170.9 141.881L168.783 143.967C168.127 143.053 167.757 142.037 167.673 140.92C167.595 139.807 167.863 138.764 168.476 137.79ZM176.371 139.054L173.357 143.845C173.81 144.008 174.274 144.066 174.747 144.019C175.223 143.983 175.666 143.852 176.076 143.628C176.486 143.403 176.813 143.096 177.058 142.706C177.303 142.317 177.431 141.9 177.442 141.456C177.46 141.016 177.376 140.583 177.189 140.158C177.006 139.744 176.733 139.376 176.371 139.054Z" fill="#133D3C"/>
<path d="M161.14 159.096L155.563 154.279L157.512 152.224L162.524 156.554C162.872 156.853 163.264 157.044 163.7 157.125C164.143 157.211 164.577 157.188 165.003 157.055C165.429 156.933 165.799 156.706 166.113 156.375C166.428 156.044 166.63 155.667 166.72 155.244C166.811 154.832 166.789 154.421 166.656 154.009C166.522 153.608 166.282 153.257 165.935 152.957L160.922 148.628L162.871 146.573L171.704 154.187L169.755 156.242L168.962 155.572C169.008 156.133 168.933 156.691 168.738 157.247C168.548 157.809 168.235 158.319 167.798 158.78C167.218 159.392 166.529 159.813 165.732 160.044C164.941 160.28 164.14 160.318 163.328 160.158C162.517 160.009 161.788 159.655 161.14 159.096Z" fill="#133D3C"/>
<path d="M148.614 164.165L145.672 164.597C145.658 163.714 145.843 162.863 146.227 162.043C146.612 161.223 147.193 160.532 147.971 159.97C148.844 159.338 149.811 158.977 150.872 158.884C151.927 158.795 152.955 158.955 153.955 159.362C154.954 159.78 155.801 160.427 156.496 161.302C157.023 161.966 157.391 162.674 157.599 163.425C157.813 164.183 157.877 164.935 157.792 165.68C157.705 166.436 157.472 167.146 157.093 167.81C156.714 168.474 156.199 169.041 155.548 169.512C154.77 170.075 153.915 170.422 152.984 170.553C152.054 170.685 151.14 170.619 150.243 170.355L151.482 167.777C151.895 167.859 152.306 167.856 152.715 167.769C153.118 167.687 153.477 167.532 153.794 167.303C154.249 166.974 154.564 166.556 154.739 166.049C154.919 165.548 154.961 165.024 154.865 164.476C154.773 163.935 154.545 163.434 154.181 162.976C153.821 162.523 153.378 162.178 152.852 161.941C152.33 161.711 151.792 161.61 151.239 161.64C150.685 161.67 150.18 161.849 149.725 162.179C149.396 162.416 149.136 162.709 148.944 163.057C148.757 163.411 148.647 163.78 148.614 164.165Z" fill="#133D3C"/>
<path d="M135.535 167.435C136.519 166.976 137.54 166.797 138.601 166.9C139.654 167.006 140.632 167.354 141.535 167.944C142.432 168.536 143.133 169.326 143.639 170.312C144.02 171.053 144.237 171.812 144.291 172.588C144.348 173.37 144.26 174.12 144.027 174.836C143.79 175.562 143.419 176.217 142.914 176.799C142.409 177.381 141.789 177.843 141.055 178.186C140.221 178.576 139.372 178.763 138.506 178.746C137.637 178.739 136.81 178.557 136.025 178.199C135.24 177.84 134.545 177.339 133.94 176.694C133.335 176.049 132.884 175.291 132.586 174.418L140.399 170.765C140.104 170.43 139.764 170.164 139.379 169.964C138.997 169.772 138.584 169.665 138.141 169.645C137.701 169.631 137.258 169.724 136.813 169.924C136.354 170.131 135.993 170.426 135.73 170.81C135.464 171.204 135.301 171.643 135.24 172.127L132.275 172.78C132.245 171.672 132.513 170.628 133.079 169.647C133.648 168.672 134.466 167.935 135.535 167.435ZM141.443 172.591L136.184 175.05C136.472 175.422 136.828 175.71 137.252 175.917C137.673 176.134 138.119 176.254 138.591 176.278C139.062 176.302 139.512 176.214 139.94 176.014C140.367 175.814 140.712 175.53 140.974 175.163C141.24 174.803 141.415 174.396 141.501 173.943C141.583 173.5 141.563 173.049 141.443 172.591Z" fill="#133D3C"/>
<path d="M118.157 183.579L119.962 184.407L119.076 186.155L121.07 186.395L120.83 188.297L118.808 188.038L119.171 189.927L117.204 190.271L116.842 188.382L115.07 189.304L114.116 187.612L115.915 186.708L114.436 185.373L115.816 183.989L117.273 185.339L118.157 183.579Z" fill="#133D3C"/>
<path d="M86.9408 191.128L83.5251 190.852L90.0019 182.609L90.6354 175.467L93.5293 175.701L92.8958 182.843L97.8284 192.008L94.4127 191.732L91.1818 185.737L86.9408 191.128Z" fill="#133D3C"/>
<path d="M78.4256 172.928C79.4783 173.216 80.3619 173.737 81.0764 174.492C81.7832 175.245 82.2649 176.129 82.5213 177.144C82.7702 178.157 82.7362 179.192 82.4193 180.247C82.1811 181.041 81.8095 181.743 81.3044 182.353C80.7971 182.97 80.2054 183.47 79.5294 183.853C78.8435 184.24 78.1087 184.488 77.325 184.597C76.5412 184.706 75.7565 184.653 74.9708 184.438C74.0783 184.194 73.3167 183.789 72.686 183.222C72.0455 182.661 71.5599 181.997 71.2291 181.229C70.8983 180.461 70.7349 179.644 70.7388 178.779C70.7427 177.914 70.9406 177.062 71.3325 176.224L79.6968 178.51C79.7124 178.074 79.6473 177.658 79.5015 177.264C79.3536 176.877 79.1222 176.534 78.8074 176.235C78.4905 175.943 78.0966 175.729 77.6258 175.593C77.1398 175.452 76.6646 175.44 76.2002 175.558C75.726 175.68 75.2964 175.901 74.9114 176.221L72.2524 174.809C73.0083 173.968 73.9407 173.364 75.0494 172.998C76.156 172.639 77.2814 172.616 78.4256 172.928ZM79.1885 180.534L73.5589 178.995C73.5117 179.454 73.5729 179.897 73.7427 180.321C73.9026 180.751 74.1492 181.125 74.4825 181.445C74.8158 181.764 75.2113 181.987 75.6689 182.112C76.1266 182.237 76.5817 182.247 77.0341 182.143C77.4843 182.045 77.9003 181.855 78.282 181.574C78.6539 181.297 78.956 180.951 79.1885 180.534Z" fill="#133D3C"/>
<path d="M54.678 176.179L52.1069 174.89L57.6414 164.834L60.2125 166.123L59.6422 167.428C60.1774 167.123 60.7613 166.949 61.394 166.907C62.016 166.868 62.6501 167.011 63.2964 167.335C64.0762 167.726 64.7293 168.233 65.2557 168.856C65.7822 169.479 66.1688 170.169 66.4157 170.925C66.6554 171.679 66.7439 172.454 66.6811 173.252C66.6112 174.047 66.3715 174.816 65.9619 175.561C65.5671 176.278 65.0593 176.883 64.4385 177.376C63.8107 177.865 63.1164 178.223 62.3557 178.449C61.5949 178.675 60.8141 178.758 60.0132 178.699C59.2123 178.64 58.436 178.422 57.6843 178.045C56.9888 177.696 56.4483 177.237 56.0627 176.668C55.67 176.094 55.406 175.483 55.2705 174.834L54.678 176.179ZM62.059 169.73C61.5111 169.455 60.9544 169.343 60.389 169.393C59.8236 169.443 59.2997 169.63 58.8173 169.952C58.3313 170.282 57.9407 170.715 57.6455 171.251C57.3466 171.794 57.1949 172.347 57.1902 172.909C57.1818 173.478 57.32 174 57.6046 174.477C57.8822 174.949 58.2915 175.321 58.8324 175.592C59.3733 175.864 59.9424 175.978 60.5396 175.935C61.126 175.895 61.6745 175.721 62.185 175.412C62.6884 175.1 63.0896 174.673 63.3884 174.13C63.6873 173.587 63.825 173.027 63.8016 172.451C63.7781 171.874 63.6171 171.345 63.3184 170.861C63.0127 170.374 62.5929 169.997 62.059 169.73Z" fill="#133D3C"/>
<path d="M53.7399 162.3L46.4875 171.307L44.1864 169.616L44.8233 168.808C44.2412 168.896 43.652 168.869 43.0555 168.727C42.4542 168.591 41.8958 168.334 41.3803 167.955C41.0345 167.701 40.7274 167.399 40.4591 167.049L43.1508 165.5C43.3171 165.765 43.5197 165.986 43.7586 166.162C44.1295 166.434 44.5392 166.597 44.9877 166.649C45.425 166.703 45.8535 166.65 46.273 166.49C46.6814 166.331 47.0285 166.075 47.3141 165.721L51.4388 160.609L53.7399 162.3Z" fill="#133D3C"/>
<path d="M42.8435 153.195C43.2441 153.647 43.5709 154.141 43.8239 154.676C44.0656 155.21 44.2091 155.751 44.2542 156.298C44.2993 156.845 44.2214 157.369 44.0206 157.868L41.5657 156.875C41.614 156.705 41.6296 156.486 41.6126 156.218C41.5898 155.955 41.5195 155.683 41.4017 155.402C41.2784 155.116 41.093 154.85 40.8454 154.605C40.6363 154.398 40.4096 154.227 40.1654 154.094C39.9099 153.961 39.6615 153.895 39.4202 153.896C39.1733 153.891 38.9499 153.981 38.7497 154.165C38.5382 154.359 38.4468 154.58 38.4755 154.827C38.4929 155.073 38.5804 155.329 38.7378 155.595C38.884 155.86 39.0304 156.114 39.177 156.358C39.5911 156.976 39.9093 157.614 40.1318 158.271C40.3488 158.923 40.4147 159.551 40.3296 160.155C40.2333 160.758 39.9278 161.296 39.4132 161.769C38.8472 162.288 38.2153 162.595 37.5175 162.69C36.8142 162.779 36.12 162.696 35.4348 162.443C34.7441 162.184 34.1292 161.787 33.59 161.252C32.9353 160.603 32.4785 159.877 32.2196 159.074C31.9496 158.271 31.9123 157.475 32.1078 156.686L34.6783 157.368C34.6181 157.57 34.5996 157.792 34.6228 158.034C34.6403 158.28 34.6999 158.525 34.8017 158.768C34.8977 159.016 35.0363 159.241 35.2174 159.442C35.4536 159.698 35.702 159.901 35.9628 160.05C36.2235 160.2 36.4858 160.274 36.7496 160.274C37.0078 160.268 37.2513 160.16 37.48 159.95C37.6973 159.75 37.7777 159.519 37.7213 159.255C37.6592 158.997 37.5411 158.727 37.3672 158.445C37.1878 158.158 37.0251 157.877 36.8791 157.601C36.5608 156.969 36.3098 156.332 36.1263 155.691C35.9373 155.045 35.8878 154.434 35.978 153.857C36.0682 153.28 36.3618 152.774 36.8588 152.339C37.4134 151.829 38.059 151.541 38.7955 151.474C39.5263 151.413 40.2534 151.533 40.9769 151.836C41.6948 152.133 42.317 152.586 42.8435 153.195Z" fill="#133D3C"/>
<path d="M31.5378 140.254L16.8381 147.744L11.9162 138.946L14.4781 137.641L18.0322 143.994L21.0142 142.474L18.1944 137.434L20.7564 136.129L23.5761 141.169L27.608 139.115L24.0539 132.762L26.6158 131.457L31.5378 140.254Z" fill="#133D3C"/>
<path d="M24.9229 127.972L17.9247 125.692L13.5338 131.311L12.4714 128.046L15.0309 124.766L10.9713 123.436L9.90882 120.17L16.8623 122.427L21.2767 116.766L22.3392 120.031L19.7369 123.371L23.8605 124.707L24.9229 127.972Z" fill="#133D3C"/>
<path d="M26.1487 110.208L26.4372 112.966L8.6717 114.658L8.38319 111.9L9.88733 111.757C9.3118 111.439 8.83023 111.028 8.44264 110.525C8.04637 110.015 7.81039 109.398 7.73472 108.674C7.64801 107.846 7.72907 107.058 7.97791 106.311C8.22675 105.564 8.61098 104.892 9.13062 104.295C9.64157 103.691 10.2563 103.202 10.9749 102.829C11.6927 102.449 12.4819 102.218 13.3425 102.136C14.2032 102.054 15.0286 102.131 15.8189 102.368C16.6085 102.597 17.3202 102.959 17.9541 103.454C18.5794 103.943 19.0913 104.529 19.4899 105.214C19.8886 105.899 20.1312 106.656 20.2179 107.485C20.2936 108.208 20.194 108.857 19.9191 109.431C19.6356 109.999 19.2447 110.493 18.7464 110.913L26.1487 110.208ZM10.5215 108.443C10.5814 109.016 10.793 109.513 11.1561 109.935C11.5113 110.358 11.9629 110.673 12.5108 110.879C13.0587 111.086 13.6485 111.159 14.2802 111.099C14.9118 111.039 15.4788 110.855 15.981 110.549C16.4753 110.243 16.8567 109.849 17.1253 109.366C17.3859 108.885 17.4863 108.358 17.4264 107.785C17.3657 107.205 17.1561 106.688 16.7977 106.236C16.4394 105.783 15.9846 105.438 15.4336 105.201C14.8746 104.965 14.2753 104.878 13.6358 104.939C13.0041 104.999 12.4427 105.197 11.9515 105.533C11.4604 105.869 11.086 106.293 10.8285 106.804C10.5624 107.309 10.46 107.855 10.5215 108.443Z" fill="#133D3C"/>
<path d="M20.1042 92.3115C19.9884 93.3507 19.6026 94.2711 18.9467 95.0727C18.2917 95.8668 17.4622 96.4718 16.4583 96.8878C15.4552 97.2962 14.3816 97.4424 13.2375 97.3263C12.3774 97.239 11.5889 97.0105 10.872 96.6408C10.1473 96.2702 9.52935 95.8001 9.01828 95.2304C8.50016 94.6524 8.11752 94.0043 7.87036 93.2862C7.62319 92.5682 7.54281 91.8213 7.62923 91.0457C7.72739 90.1647 8.01442 89.379 8.49033 88.6886C8.95919 87.9898 9.56143 87.4189 10.2971 86.9757C11.0327 86.5325 11.8475 86.2382 12.7415 86.0928C13.6354 85.9475 14.5487 85.9868 15.4813 86.2109L14.5614 94.4678C15.015 94.4072 15.4328 94.2744 15.8147 94.0695C16.1887 93.8638 16.5028 93.5872 16.757 93.2399C17.0032 92.8917 17.1563 92.4846 17.2162 92.0185C17.2778 91.5374 17.2081 91.0886 17.0071 90.6722C16.7991 90.2475 16.4967 89.8817 16.1 89.5749L17.0998 86.8321C18.0981 87.3979 18.8818 88.1704 19.451 89.1496C20.0123 90.128 20.23 91.182 20.1042 92.3115ZM12.3854 94.3384L13.0045 88.7811C12.5219 88.8159 12.0761 88.9496 11.6671 89.1823C11.2511 89.4066 10.9069 89.7029 10.6344 90.0713C10.362 90.4396 10.2006 90.8497 10.1503 91.3015C10.0999 91.7533 10.1678 92.1829 10.3538 92.5901C10.532 92.9966 10.7992 93.355 11.1557 93.6653C11.5051 93.9673 11.915 94.1916 12.3854 94.3384Z" fill="#133D3C"/>
<path d="M21.4098 82.2262L9.95065 79.1547L10.7387 76.4871L11.7616 76.7505C11.459 76.2678 11.2657 75.7359 11.1819 75.1547C11.0903 74.5714 11.1329 73.981 11.3094 73.3833C11.4279 72.9825 11.6074 72.598 11.848 72.23L14.3561 74.0379C14.1597 74.284 14.0206 74.5456 13.9388 74.8225C13.8118 75.2525 13.8062 75.6759 13.9222 76.0926C14.0327 76.5 14.2438 76.8598 14.5556 77.1718C14.8619 77.4745 15.2403 77.6865 15.6909 77.8077L22.1979 79.5586L21.4098 82.2262Z" fill="#133D3C"/>
<path d="M13.609 68.0502L14.7043 65.4833L25.7279 69.767L24.6327 72.3339L13.609 68.0502ZM12.7436 66.1931C12.582 66.5718 12.3172 66.841 11.9493 67.0005C11.574 67.1572 11.1879 67.1584 10.791 67.0042C10.4015 66.8529 10.1299 66.596 9.97602 66.2337C9.82217 65.8714 9.82455 65.5044 9.98315 65.1327C10.1418 64.761 10.4072 64.5003 10.7795 64.3506C11.1548 64.1939 11.5372 64.1912 11.9267 64.3426C12.3235 64.4968 12.6004 64.7516 12.7572 65.1069C12.9067 65.4593 12.9022 65.8214 12.7436 66.1931Z" fill="#133D3C"/>
<path d="M30.1508 61.8831C29.5971 62.7846 28.8485 63.4719 27.905 63.9447C26.9655 64.4111 25.9486 64.6366 24.8543 64.6213C23.7639 64.5995 22.7225 64.311 21.7298 63.7557C20.9837 63.3383 20.3637 62.8203 19.8698 62.2017C19.3691 61.5793 19.0088 60.9081 18.7887 60.1881C18.5659 59.4578 18.4967 58.7169 18.5812 57.9654C18.6657 57.2139 18.9146 56.5016 19.3279 55.8287C19.7974 55.0644 20.3979 54.4611 21.1294 54.0188C21.858 53.5663 22.6532 53.2825 23.5148 53.1676C24.3764 53.0527 25.2459 53.1046 26.1233 53.3233C27.0007 53.542 27.816 53.9367 28.5693 54.5072L24.1694 61.6707C24.6089 61.7937 25.0469 61.8368 25.4834 61.8001C25.913 61.7595 26.3185 61.6309 26.7 61.4142C27.0746 61.1936 27.3897 60.8827 27.6453 60.4815C27.909 60.0672 28.039 59.6309 28.0355 59.1724C28.0291 58.7036 27.9113 58.2515 27.6821 57.8161L29.7764 55.7092C30.4421 56.617 30.8231 57.6289 30.9194 58.7449C31.0089 59.8571 30.7527 60.9031 30.1508 61.8831ZM22.2421 60.6979L25.2035 55.8766C24.7486 55.7187 24.2846 55.6654 23.8116 55.7168C23.3357 55.7578 22.8942 55.8926 22.487 56.1213C22.0798 56.3499 21.7558 56.6603 21.5151 57.0523C21.2743 57.4442 21.1509 57.8623 21.1447 58.3066C21.1318 58.747 21.2208 59.1786 21.4117 59.6014C21.5999 60.0139 21.8767 60.3794 22.2421 60.6979Z" fill="#133D3C"/>
<path d="M37.2577 40.5059L42.887 45.2678L40.9606 47.3419L35.9013 43.0622C35.551 42.7659 35.157 42.5793 34.7193 42.5025C34.2757 42.4208 33.8418 42.4484 33.4176 42.5854C32.9928 42.7118 32.6251 42.9421 32.3146 43.2764C32.004 43.6108 31.8059 43.9896 31.7202 44.413C31.6338 44.8257 31.6598 45.2372 31.7981 45.6477C31.9358 46.0475 32.1798 46.3955 32.5301 46.6919L37.5894 50.9715L35.663 53.0456L26.7479 45.5196L28.6743 43.4455L29.475 44.1075C29.4227 43.5473 29.4914 42.9881 29.6811 42.4301C29.8648 41.867 30.1724 41.3531 30.604 40.8884C31.1777 40.2707 31.8617 39.8425 32.6561 39.6037C33.4445 39.3599 34.2454 39.3138 35.0588 39.4656C35.8715 39.6066 36.6045 39.9534 37.2577 40.5059Z" fill="#133D3C"/>
<path d="M49.7245 35.3167L52.6621 34.8557C52.6858 35.7384 52.5098 36.5915 52.1342 37.4149C51.7586 38.2384 51.1849 38.9352 50.4131 39.5054C49.5473 40.1452 48.5843 40.5167 47.5241 40.6201C46.4702 40.7188 45.4409 40.5695 44.4362 40.1722C43.4329 39.7643 42.579 39.1262 41.8747 38.258C41.3403 37.5993 40.9647 36.8952 40.748 36.1455C40.5263 35.3899 40.4539 34.6389 40.5308 33.8925C40.6092 33.1355 40.8342 32.4234 41.206 31.756C41.5778 31.0886 42.0868 30.5162 42.7331 30.0387C43.5048 29.4685 44.3554 29.113 45.2848 28.9722C46.2142 28.8313 47.1286 28.8884 48.0279 29.1433L46.8171 31.733C46.4032 31.6558 45.9923 31.6625 45.5842 31.7533C45.1825 31.8395 44.8247 31.9985 44.511 32.2302C44.0593 32.564 43.7486 32.9851 43.579 33.4935C43.4045 33.9959 43.3685 34.5205 43.4709 35.0674C43.5685 35.6082 43.8019 36.1062 44.1711 36.5612C44.5354 37.0103 44.9821 37.3506 45.5112 37.5822C46.0354 37.8078 46.5742 37.9029 47.1275 37.8676C47.6809 37.8322 48.1835 37.6477 48.6352 37.3139C48.9615 37.0728 49.2186 36.7775 49.4066 36.4279C49.5898 36.0722 49.6958 35.7019 49.7245 35.3167Z" fill="#133D3C"/>
<path d="M62.7663 31.9143C61.7881 32.384 60.7684 32.5726 59.7071 32.4803C58.6529 32.3845 57.6708 32.0465 56.7609 31.4661C55.858 30.8824 55.148 30.1 54.631 29.1191C54.2423 28.3817 54.0168 27.6254 53.9544 26.85C53.8886 26.0678 53.9682 25.3175 54.1935 24.599C54.4223 23.8704 54.7861 23.2125 55.285 22.6255C55.7838 22.0384 56.3983 21.5696 57.1284 21.2191C57.9578 20.8209 58.8054 20.6259 59.6713 20.634C60.5407 20.632 61.3698 20.8062 62.1585 21.1565C62.9472 21.5069 63.6476 22.0014 64.2596 22.64C64.8716 23.2787 65.3313 24.0328 65.6387 24.9024L57.8661 28.634C58.165 28.9652 58.5082 29.2286 58.8955 29.4241C59.2792 29.6128 59.6929 29.7152 60.1365 29.7311C60.5766 29.7402 61.0181 29.6426 61.4612 29.4384C61.9184 29.2274 62.2761 28.9285 62.5341 28.5418C62.7957 28.145 62.9543 27.7044 63.0098 27.2199L65.9676 26.5374C66.0095 27.6447 65.7531 28.6918 65.1985 29.6786C64.6404 30.6586 63.8296 31.4039 62.7663 31.9143ZM56.8022 26.8179L62.0335 24.3064C61.7416 23.9379 61.3824 23.6526 60.9561 23.4504C60.5332 23.238 60.0858 23.1222 59.6138 23.103C59.1418 23.0838 58.6931 23.1763 58.2678 23.3805C57.8425 23.5847 57.5008 23.8716 57.2427 24.2414C56.981 24.6043 56.8099 25.0128 56.7295 25.4668C56.6526 25.9107 56.6768 26.361 56.8022 26.8179Z" fill="#133D3C"/>
<path d="M79.9808 15.5969L78.1673 14.7872L79.0345 13.0299L77.0377 12.8095L77.2569 10.906L79.2817 11.1443L78.8985 9.25983L80.8615 8.89633L81.2447 10.7808L83.0057 9.84148L83.9783 11.5243L82.1894 12.4457L83.6824 13.766L82.3178 15.1642L80.8458 13.8284L79.9808 15.5969Z" fill="#133D3C"/>
</svg>
