<svg width="121" height="121" viewBox="0 0 121 121" fill="none" xmlns="http://www.w3.org/2000/svg">
<path d="M61.3488 9.57432L62.0751 0.239258L63.9605 0.385944L63.3697 7.98057L68.1032 8.34883L67.9678 10.0893L61.3488 9.57432Z" fill="white"/>
<path d="M69.1598 10.3508L71.3652 1.25098L77.9202 2.83962L77.5059 4.54905L72.7889 3.40585L72.2905 5.46231L76.3392 6.44353L75.9404 8.0887L71.8918 7.10748L71.409 9.09968L76.126 10.2429L75.7148 11.9395L69.1598 10.3508Z" fill="white"/>
<path d="M76.3731 12.0896L83.4984 5.00267L85.4336 5.8585L84.9485 15.882L83.0858 15.0583L83.2009 13.3594L79.4151 11.6852L78.2358 12.9134L76.3731 12.0896ZM80.6615 10.371L83.3466 11.5585L83.6529 7.26902L80.6615 10.371Z" fill="white"/>
<path d="M85.9206 16.5889L91.2079 8.86133L94.3186 10.9897C94.7042 11.2535 95.0443 11.545 95.3388 11.864C95.6456 12.1807 95.8786 12.5271 96.0379 12.9032C96.1972 13.2792 96.2449 13.6858 96.181 14.1227C96.1293 14.5574 95.9317 15.0258 95.5881 15.5279C95.3342 15.899 95.0434 16.1914 94.7156 16.4051C94.3877 16.6188 94.0316 16.749 93.6471 16.7957C93.2626 16.8424 92.8631 16.8095 92.4488 16.6969L92.1311 20.8381L90.3738 19.6358L90.7271 15.8875L89.3409 14.9391L87.4814 17.6568L85.9206 16.5889ZM90.2894 13.5529L91.7301 14.5387C91.9557 14.693 92.1719 14.8142 92.3787 14.9023C92.5977 14.9881 92.8026 15.0321 92.9933 15.0344C93.1913 15.0417 93.3765 14.9975 93.5488 14.9017C93.7284 14.811 93.8904 14.6601 94.0348 14.449C94.2263 14.1848 94.31 13.9376 94.2858 13.7074C94.274 13.475 94.1788 13.2549 94.0003 13.0474C93.8341 12.8375 93.6055 12.633 93.3144 12.4339L91.7755 11.3809L90.2894 13.5529Z" fill="white"/>
<path d="M93.2483 21.8046L99.9078 15.2227L101.265 16.5959L99.7996 24.1248L104.305 19.6717L105.634 21.0168L98.975 27.5987L97.6549 26.2631L99.0362 18.7431L94.5777 23.1496L93.2483 21.8046Z" fill="white"/>
<path d="M102.789 32.6377L111.114 28.3525L112.264 30.5867L109.386 34.879L114.539 35.0079L115.647 37.1598L107.322 41.445L106.456 39.7635L112.536 36.6343L107.098 36.4437L106.747 35.7617L109.733 31.1901L103.654 34.3192L102.789 32.6377Z" fill="white"/>
<path d="M109.048 47.948C108.815 47.0156 108.811 46.1624 109.036 45.3884C109.263 44.623 109.678 43.9742 110.281 43.4419C110.895 42.9162 111.656 42.5401 112.562 42.3138C113.486 42.0833 114.344 42.0601 115.135 42.2443C115.928 42.4371 116.602 42.8233 117.155 43.403C117.717 43.9806 118.115 44.7356 118.347 45.668C118.578 46.5919 118.584 47.4355 118.366 48.1988C118.147 48.9621 117.736 49.6098 117.133 50.142C116.532 50.6828 115.77 51.0685 114.846 51.299C113.939 51.5253 113.085 51.5431 112.283 51.3525C111.492 51.1683 110.811 50.7885 110.24 50.213C109.68 49.644 109.283 48.889 109.048 47.948ZM110.774 47.5446C110.927 48.1605 111.193 48.6257 111.572 48.9402C111.95 49.2547 112.383 49.4419 112.871 49.502C113.36 49.5706 113.849 49.5441 114.337 49.4224C114.696 49.3327 115.038 49.1928 115.363 49.0026C115.69 48.821 115.969 48.5923 116.201 48.3166C116.432 48.0408 116.587 47.7158 116.666 47.3417C116.754 46.9654 116.739 46.542 116.622 46.0715C116.47 45.4641 116.205 45.0032 115.827 44.6887C115.457 44.3721 115.026 44.1752 114.534 44.098C114.045 44.0294 113.547 44.058 113.043 44.184C112.538 44.31 112.086 44.5183 111.686 44.8089C111.288 45.1081 110.996 45.4854 110.81 45.9408C110.634 46.4026 110.622 46.9372 110.774 47.5446Z" fill="white"/>
<path d="M110.409 54.274L119.76 53.7949L119.953 57.5591C119.977 58.0258 119.951 58.4729 119.876 58.9005C119.81 59.3365 119.676 59.7318 119.473 60.0865C119.271 60.4411 118.976 60.7255 118.59 60.9395C118.213 61.1619 117.721 61.2886 117.113 61.3197C116.664 61.3428 116.255 61.2887 115.886 61.1575C115.518 61.0263 115.198 60.8219 114.928 60.5445C114.658 60.267 114.442 59.9293 114.28 59.5315L110.794 61.7892L110.685 59.6627L113.88 57.6716L113.794 55.9942L110.506 56.1627L110.409 54.274ZM115.472 55.9083L115.561 57.6517C115.575 57.9246 115.61 58.1701 115.665 58.3879C115.73 58.6142 115.819 58.8038 115.933 58.9569C116.047 59.1188 116.194 59.2392 116.375 59.3183C116.556 59.4061 116.774 59.4435 117.029 59.4304C117.356 59.4225 117.603 59.3392 117.772 59.1805C117.949 59.0301 118.066 58.8211 118.123 58.5533C118.19 58.2939 118.214 57.9881 118.196 57.6359L118.1 55.7736L115.472 55.9083Z" fill="white"/>
<path d="M110.636 63.288L119.932 64.4053L119.127 71.1018L117.381 70.8919L117.96 66.0731L115.859 65.8206L115.362 69.9567L113.682 69.7547L114.179 65.6186L112.143 65.374L111.564 70.1929L109.831 69.9846L110.636 63.288Z" fill="white"/>
<path d="M112.81 78.5416L114.127 77.7038L114.703 78.8909L115.417 77.7776L116.627 78.756L115.674 79.678L116.953 80.0024L116.385 81.4702L115.221 80.8498L115.31 82.1602L113.752 82.0822L113.973 80.778L112.753 81.2561L112.342 79.7503L113.645 79.5734L112.81 78.5416Z" fill="white"/>
<path d="M103.043 86.964L110.699 92.3535L109.611 93.9L103.382 89.5153L100.649 93.3977L99.2212 92.3929L103.043 86.964Z" fill="white"/>
<path d="M98.3713 93.3019L105.074 99.8398L100.365 104.668L99.1054 103.44L102.494 99.9655L100.98 98.488L98.0708 101.47L96.859 100.288L99.7679 97.306L98.3004 95.8747L94.9115 99.3491L93.6618 98.1302L98.3713 93.3019Z" fill="white"/>
<path d="M93.1957 98.6228L95.678 108.361L93.9575 109.593L85.5715 104.081L87.2275 102.895L88.6321 103.858L91.998 101.448L91.5397 99.8083L93.1957 98.6228ZM92.4964 103.19L90.1091 104.899L93.6476 107.342L92.4964 103.19Z" fill="white"/>
<path d="M84.4727 104.559L88.4427 113.039L85.0292 114.637C84.606 114.835 84.1822 114.98 83.7578 115.072C83.3292 115.175 82.9124 115.2 82.5076 115.146C82.1027 115.092 81.7283 114.927 81.3844 114.65C81.0363 114.384 80.7332 113.976 80.4753 113.425C80.2846 113.018 80.1806 112.619 80.163 112.228C80.1455 111.837 80.2143 111.464 80.3694 111.109C80.5245 110.754 80.7558 110.427 81.0632 110.127L77.6576 107.75L79.5859 106.847L82.6351 109.055L84.1562 108.343L82.7599 105.361L84.4727 104.559ZM84.8683 109.864L83.2873 110.605C83.0398 110.721 82.8256 110.845 82.6446 110.979C82.4594 111.124 82.3174 111.278 82.2186 111.441C82.1117 111.608 82.0557 111.79 82.0507 111.987C82.0376 112.188 82.0853 112.404 82.1937 112.635C82.324 112.934 82.4944 113.132 82.7049 113.228C82.9112 113.336 83.149 113.366 83.4185 113.318C83.6837 113.281 83.976 113.188 84.2954 113.039L85.9842 112.248L84.8683 109.864Z" fill="white"/>
<path d="M76.2594 108.219L78.526 117.304L76.6526 117.771L70.9231 112.672L72.4566 118.818L70.6217 119.276L68.3551 110.191L70.1772 109.736L75.9419 114.759L74.4244 108.677L76.2594 108.219Z" fill="white"/>
<path d="M61.9989 110.893L61.4346 120.239L58.9265 120.088L56.7041 115.422L53.9629 119.788L51.5471 119.642L52.1115 110.296L53.9992 110.41L53.5871 117.235L56.5266 112.656L57.2923 112.702L59.6991 117.604L60.1112 110.779L61.9989 110.893Z" fill="white"/>
<path d="M45.6452 108.472C46.5661 108.747 47.3023 109.178 47.8538 109.766C48.3968 110.351 48.7437 111.039 48.8944 111.829C49.0341 112.625 48.9704 113.471 48.7032 114.366C48.431 115.279 48.0141 116.029 47.4526 116.616C46.8826 117.2 46.2072 117.583 45.4263 117.764C44.6429 117.953 43.7908 117.911 42.8699 117.636C41.9574 117.364 41.2284 116.939 40.6828 116.362C40.1372 115.786 39.7891 115.102 39.6384 114.312C39.4793 113.519 39.5358 112.667 39.8081 111.754C40.0752 110.859 40.4951 110.114 41.0676 109.522C41.6291 108.935 42.3028 108.542 43.0887 108.344C43.8637 108.152 44.7158 108.195 45.6452 108.472ZM45.1132 110.163C44.5049 109.981 43.9691 109.973 43.5057 110.139C43.0423 110.304 42.6606 110.581 42.3606 110.97C42.0521 111.356 41.826 111.79 41.6823 112.272C41.5765 112.627 41.5226 112.993 41.5206 113.369C41.5102 113.743 41.5648 114.1 41.6844 114.439C41.804 114.779 42.0046 115.078 42.2862 115.336C42.5653 115.604 42.9372 115.807 43.4018 115.945C44.0017 116.124 44.5333 116.131 44.9967 115.966C45.4575 115.809 45.8464 115.538 46.1633 115.154C46.4718 114.768 46.7004 114.326 46.8491 113.827C46.9979 113.329 47.049 112.833 47.0027 112.341C46.9479 111.846 46.772 111.403 46.475 111.011C46.167 110.624 45.7131 110.342 45.1132 110.163Z" fill="white"/>
<path d="M39.5023 106.418L35.141 114.703L31.8057 112.947C31.3922 112.73 31.0208 112.48 30.6915 112.197C30.3503 111.917 30.0789 111.6 29.8773 111.245C29.6757 110.89 29.5815 110.491 29.5946 110.05C29.5959 109.612 29.7382 109.124 30.0216 108.586C30.231 108.188 30.4862 107.864 30.7872 107.614C31.0882 107.364 31.427 107.193 31.8036 107.103C32.1801 107.012 32.5807 106.999 33.0053 107.063L32.8435 102.913L34.7276 103.904L34.8088 107.668L36.295 108.451L37.8289 105.537L39.5023 106.418ZM35.5127 109.937L33.9679 109.124C33.7261 108.996 33.4973 108.901 33.2818 108.837C33.0543 108.777 32.8457 108.757 32.656 108.777C32.4584 108.793 32.2796 108.858 32.1195 108.973C31.9515 109.084 31.808 109.252 31.6889 109.478C31.5291 109.763 31.4745 110.018 31.525 110.244C31.5636 110.474 31.6835 110.681 31.8847 110.867C32.074 111.056 32.3246 111.233 32.6367 111.397L34.2868 112.266L35.5127 109.937Z" fill="white"/>
<path d="M31.7142 102.059L26.0077 109.482L20.6603 105.372L21.7323 103.977L25.5803 106.935L26.8699 105.258L23.5671 102.719L24.5988 101.377L27.9016 103.916L29.1509 102.29L25.3029 99.3324L26.3668 97.9484L31.7142 102.059Z" fill="white"/>
<path d="M17.4785 96.1459L17.5304 97.7057L16.2154 97.598L16.8109 98.7792L15.3533 99.3233L15.0436 98.0345L14.1143 98.9703L13.1391 97.7351L14.2651 97.0484L13.0916 96.4584L13.951 95.1565L14.9616 96.0099L15.1703 94.7162L16.6754 95.1287L16.1657 96.3399L17.4785 96.1459Z" fill="white"/>
<path d="M17.1249 86.8578L8.91797 91.3652L8.00757 89.7076L14.6844 86.0406L12.3989 81.8791L13.929 81.0388L17.1249 86.8578Z" fill="white"/>
<path d="M13.4874 79.8772L4.6637 83.0098L2.40722 76.6537L4.06478 76.0652L5.68856 80.6391L7.68263 79.9312L6.28892 76.0054L7.88417 75.4391L9.27788 79.3649L11.2096 78.6791L9.58585 74.1052L11.2309 73.5212L13.4874 79.8772Z" fill="white"/>
<path d="M10.9948 72.8826L1.16433 70.7955L0.821975 68.7073L9.47775 63.6296L9.80726 65.6394L8.32227 66.4725L8.992 70.5574L10.6653 70.8727L10.9948 72.8826ZM7.21003 70.2331L6.73501 67.3358L2.97686 69.4262L7.21003 70.2331Z" fill="white"/>
<path d="M9.53518 62.3802L0.173828 62.1904L0.250227 58.4221C0.259698 57.9549 0.317205 57.5107 0.422746 57.0896C0.519651 56.6595 0.681773 56.2747 0.909114 55.9354C1.13645 55.5961 1.45042 55.3335 1.85102 55.1476C2.24299 54.9527 2.74308 54.8615 3.3513 54.8738C3.80086 54.8829 4.20482 54.9661 4.56319 55.1232C4.92156 55.2804 5.22561 55.507 5.47535 55.8031C5.72508 56.0992 5.91635 56.4514 6.04917 56.8597L9.68771 54.8568L9.64455 56.9855L6.31522 58.7435L6.28117 60.4227L9.57351 60.4894L9.53518 62.3802ZM4.60195 60.3886L4.63733 58.6433C4.64287 58.3701 4.62584 58.1228 4.58623 57.9015C4.53799 57.6713 4.46259 57.4757 4.36003 57.3149C4.25764 57.1453 4.1192 57.0146 3.94469 56.9229C3.77036 56.8224 3.55538 56.7695 3.29975 56.7643C2.97378 56.7489 2.72112 56.8143 2.54179 56.9606C2.35382 57.0979 2.22189 57.298 2.14601 57.561C2.0615 57.8151 2.01566 58.1184 2.00852 58.471L1.97072 60.3353L4.60195 60.3886Z" fill="white"/>
<path d="M9.87974 53.4012L0.725342 51.4346L1.1309 49.5468L8.23268 46.6493L2.03924 45.3187L2.43646 43.4697L11.5909 45.4364L11.1964 47.2725L4.14817 50.2356L10.277 51.5523L9.87974 53.4012Z" fill="white"/>
<path d="M13.7416 39.4645L5.61072 34.8213L6.85679 32.6393L12.0239 32.7117L9.32269 28.3212L10.5229 26.2196L18.6537 30.8628L17.7159 32.5051L11.7785 29.1144L14.5832 33.7772L14.2028 34.4433L8.74205 34.4317L14.6794 37.8223L13.7416 39.4645Z" fill="white"/>
<path d="M23.15 25.8713C22.4968 26.5762 21.7848 27.0463 21.0139 27.2815C20.249 27.5103 19.4788 27.5178 18.7032 27.3041C17.9272 27.0778 17.1965 26.6471 16.511 26.0119C15.8125 25.3647 15.324 24.6596 15.0454 23.8966C14.7727 23.1272 14.7276 22.3522 14.91 21.5716C15.0859 20.785 15.5005 20.0393 16.1536 19.3344C16.8008 18.6359 17.5036 18.1693 18.2621 17.9345C19.0205 17.6998 19.7875 17.6893 20.563 17.903C21.3445 18.1103 22.0845 18.5376 22.7829 19.1848C23.4685 19.82 23.9508 20.5253 24.2299 21.3008C24.5085 22.0638 24.5631 22.8415 24.3936 23.6341C24.2237 24.4142 23.8091 25.1599 23.15 25.8713ZM21.8681 24.6474C22.2995 24.1818 22.5434 23.7046 22.5996 23.2158C22.6559 22.727 22.5758 22.2622 22.3593 21.8212C22.1489 21.3738 21.8593 20.9793 21.4907 20.6377C21.2191 20.3861 20.9147 20.1762 20.5777 20.0081C20.2466 19.8335 19.9025 19.725 19.5452 19.6824C19.188 19.6399 18.8311 19.6878 18.4745 19.8262C18.1115 19.9585 17.7651 20.2026 17.4356 20.5583C17.0101 21.0174 16.7692 21.4914 16.713 21.9802C16.6503 22.463 16.7211 22.9313 16.9256 23.3852C17.1361 23.8326 17.4321 24.2331 17.8136 24.5866C18.1952 24.9402 18.617 25.2049 19.0792 25.3807C19.5473 25.55 20.0229 25.588 20.506 25.4947C20.9886 25.389 21.4426 25.1066 21.8681 24.6474Z" fill="white"/>
<path d="M27.704 21.2626L22.1803 13.7021L25.2237 11.4786C25.601 11.203 25.9891 10.9795 26.388 10.8081C26.7889 10.6244 27.1931 10.5202 27.6008 10.4953C28.0085 10.4704 28.4077 10.561 28.7983 10.7669C29.1909 10.9605 29.5667 11.3029 29.9255 11.7941C30.1908 12.1572 30.3695 12.5289 30.4618 12.9092C30.554 13.2895 30.5581 13.6687 30.474 14.0468C30.3899 14.4249 30.2257 14.7905 29.9814 15.1436L33.7801 16.8233L32.0608 18.0794L28.6445 16.4971L27.2884 17.4879L29.231 20.1469L27.704 21.2626ZM26.2975 16.1318L27.7071 15.1019C27.9278 14.9407 28.1141 14.7773 28.2661 14.6116C28.42 14.4337 28.5298 14.2552 28.5955 14.0761C28.6684 13.8919 28.6884 13.7026 28.6555 13.5082C28.6298 13.3086 28.5415 13.1056 28.3907 12.8991C28.2054 12.6305 28.0002 12.4692 27.7751 12.4153C27.552 12.349 27.3129 12.3654 27.0577 12.4645C26.8044 12.5512 26.5354 12.6986 26.2506 12.9067L24.745 14.0067L26.2975 16.1318Z" fill="white"/>
<path d="M35.0443 16.1822L30.8879 7.79199L36.9317 4.79799L37.7125 6.37412L33.3634 8.52862L34.3027 10.4247L38.0356 8.57548L38.787 10.0923L35.0541 11.9416L35.964 13.7784L40.3132 11.6239L41.0881 13.1882L35.0443 16.1822Z" fill="white"/>
<path d="M49.8659 5.78345L48.432 5.1677L49.0881 4.02305L47.7659 4.06024L47.8926 2.50958L49.1909 2.77677L48.7386 1.5379L50.2711 1.17998L50.4143 2.49103L51.4471 1.67944L52.2604 3.01053L51.0585 3.56286L52.1409 4.30146L51.128 5.48869L50.2482 4.51264L49.8659 5.78345Z" fill="white"/>
<circle cx="60.0002" cy="60" r="30" fill="white"/>
<circle cx="60.5208" cy="60.5" r="25" fill="#F4B72A"/>
<path d="M57.3033 55.8359C57.6609 56.1512 58.0161 55.8573 58.3676 55.7185C59.8556 55.1294 61.3306 55.1584 62.7927 55.8053C62.9337 55.8676 63.0985 55.9664 63.2383 55.9803C63.4755 56.0044 63.6556 55.9235 63.7787 55.7383C63.8664 55.6058 63.8852 55.4273 63.8163 55.2829C62.775 53.1072 61.7457 50.9748 60.7286 48.8848C60.6692 48.763 60.606 48.6381 60.5385 48.5099C60.5312 48.4964 60.5125 48.4968 60.506 48.5103C59.3705 50.8216 58.2691 53.06 57.2018 55.2262C57.099 55.4344 57.1316 55.6843 57.3033 55.8359Z" fill="white"/>
<path d="M75.5121 72.306C75.4884 72.2715 75.4589 72.2409 75.4232 72.2135C75.1392 71.9954 74.8629 71.8034 74.5935 71.638C73.9904 71.2671 73.3554 70.9256 72.6885 70.613C71.2442 69.9363 69.7715 69.4016 68.2704 69.0093C68.2662 69.0082 68.2642 69.0057 68.2642 69.0014L68.2657 62.6398C68.2657 62.616 68.2531 62.5945 68.2328 62.5834C67.2333 62.0452 65.9906 62.0345 65.0037 62.6215C64.988 62.6311 64.9784 62.6481 64.9784 62.6668L64.9823 63.7596C64.9823 63.7782 64.9738 63.7853 64.9566 63.7814C64.3155 63.6354 63.6655 63.5188 63.0075 63.4315C62.9968 63.4299 62.9888 63.4204 62.9888 63.4093C62.9846 61.0813 62.9846 58.7989 62.9884 56.5621C62.9888 56.5205 62.9842 56.4796 62.975 56.44C62.9715 56.4269 62.9642 56.4174 62.9524 56.4114C62.0771 55.9778 61.1596 55.7688 60.2005 55.7851C59.3903 55.7989 58.6235 56.006 57.9004 56.407C57.895 56.4102 57.8915 56.4162 57.8915 56.4225L57.8923 63.4022C57.8923 63.4113 57.8881 63.4161 57.8797 63.4173C57.1991 63.5057 56.5073 63.6294 55.8049 63.7889C55.7988 63.7905 55.7927 63.7854 55.7927 63.779L55.7934 62.6656C55.7934 62.6469 55.7835 62.6303 55.7678 62.6219C55.0994 62.2641 54.4104 62.1249 53.7006 62.2046C53.291 62.2507 52.8951 62.376 52.5441 62.5918C52.5356 62.597 52.5307 62.6061 52.5307 62.616L52.5314 69.2898C52.5314 69.3049 52.5384 69.3101 52.5521 69.3057C52.8013 69.2228 53.0856 69.1482 53.4056 69.0828C53.5642 69.0506 53.7118 69.0388 53.8486 69.0475C53.9164 69.0518 53.9176 69.0625 53.8513 69.0796C51.87 69.5925 49.87 70.341 48.0044 71.3227C47.4833 71.5968 46.9594 71.8987 46.5398 72.2739C46.5068 72.3033 46.5187 72.3592 46.5609 72.3711C46.6057 72.3838 46.6578 72.3914 46.718 72.3941C47.6266 72.433 48.4153 72.4802 49.24 72.4763C51.1473 72.4679 52.9963 72.3073 54.7864 71.9951C55.5486 71.8622 56.3928 71.7194 57.3183 71.5663C57.8909 71.4715 58.4312 71.3953 58.939 71.3374C59.3958 71.2855 59.8004 71.2684 60.153 71.2871C60.2117 71.2902 60.2665 71.3112 60.3175 71.3505C60.3282 71.3589 60.3301 71.3688 60.3228 71.3803C60.301 71.4148 60.2734 71.4426 60.24 71.4636C60.0622 71.5766 59.8583 71.7 59.6284 71.8341C59.5337 71.8892 59.4716 71.9439 59.4426 71.9983C59.3127 72.2406 59.6472 72.3216 59.8085 72.3517C60.0247 72.3925 60.2416 72.4231 60.4589 72.4433C61.0229 72.4961 61.6135 72.5119 62.2305 72.4913C63.7745 72.4393 65.3185 72.2576 66.8625 71.9455C67.3507 71.8467 67.8547 71.8265 68.3322 71.9938C68.5747 72.0791 68.8158 72.191 69.0652 72.2735C69.1971 72.3171 69.2986 72.3449 69.3695 72.3568C70.446 72.5404 71.5133 72.5436 72.5718 72.3663C72.7936 72.329 73.0217 72.2866 73.2566 72.2386C73.741 72.1398 74.2051 72.1362 74.6488 72.2278C74.8385 72.2671 75.0244 72.312 75.2072 72.3615C75.2923 72.3845 75.3827 72.3913 75.4789 72.3818C75.5144 72.3782 75.5328 72.3361 75.5121 72.306ZM54.7273 64.4105C54.7273 64.4176 54.7219 64.4231 54.715 64.4231H53.4266C53.4197 64.4231 53.4144 64.4176 53.4144 64.4105V63.5973C53.4144 63.1582 53.6991 62.8024 54.0505 62.8024H54.0911C54.4425 62.8024 54.7273 63.1582 54.7273 63.5973V64.4105ZM60.4147 57.1845H60.4484C61.1022 57.1821 61.6341 57.8497 61.6368 58.6755L61.6402 59.612C61.6402 59.6188 61.6348 59.6243 61.6283 59.6243L59.2516 59.633C59.245 59.633 59.2397 59.6275 59.2397 59.6208L59.2363 58.6842C59.2336 57.8584 59.7613 57.1869 60.4147 57.1845ZM61.28 63.2296C61.28 63.2348 61.2762 63.2387 61.2712 63.2387L59.5835 63.2451C59.5789 63.2451 59.5747 63.2407 59.5747 63.236L59.5743 63.0638C59.5724 62.51 59.9495 62.0598 60.4166 62.0583H60.4304C60.8975 62.0567 61.2777 62.5041 61.2796 63.0574L61.28 63.2296ZM62.4952 68.485C62.4948 68.5016 62.4864 68.5087 62.4703 68.5068C61.0884 68.3235 59.7218 68.3239 58.3702 68.5076C58.3556 68.5095 58.348 68.5028 58.3476 68.4877C58.3303 67.9629 58.3472 67.4822 58.3978 67.0454C58.5139 66.0451 58.9814 64.9221 60.0537 64.7024C60.6558 64.579 61.1708 64.7214 61.5989 65.1288C62.0744 65.5818 62.3082 66.2878 62.4052 66.9463C62.4814 67.4616 62.5113 67.9745 62.4952 68.485ZM67.3583 64.4073C67.3583 64.416 67.3518 64.4227 67.3434 64.4227H66.0672C66.0588 64.4227 66.0523 64.416 66.0523 64.4073V63.6314C66.0523 63.1756 66.3363 62.806 66.6862 62.806H66.7245C67.0744 62.806 67.3583 63.1757 67.3583 63.6314L67.3583 64.4073Z" fill="white"/>
<path d="M52.3817 62.2082C53.2869 61.7512 54.2733 61.6588 55.229 61.961C55.4118 62.0189 55.5893 62.1118 55.7625 62.1967C55.9548 62.2915 56.1273 62.2843 56.2802 62.176C56.4787 62.0348 56.491 61.8 56.3829 61.5755C55.6954 60.1495 55.0122 58.7322 54.3327 57.3237C54.2549 57.1622 54.1767 57.0072 54.0985 56.8576C54.0882 56.8378 54.0778 56.8378 54.0679 56.858C53.3194 58.3764 52.5794 59.8877 51.8471 61.3922C51.7233 61.6461 51.6225 61.792 51.7325 62.0197C51.8521 62.2661 52.1594 62.3204 52.3817 62.2082Z" fill="white"/>
<path d="M64.7635 62.2641C64.8432 62.2637 64.9709 62.2229 65.146 62.1408C65.6905 61.8857 66.2631 61.7687 66.8635 61.7905C67.2694 61.8056 67.7208 61.9 68.109 62.0765C68.2715 62.1503 68.4382 62.2582 68.6149 62.2625C68.8513 62.2677 69.0529 62.0841 69.0621 61.8322C69.0644 61.7691 69.0364 61.6775 68.9782 61.5565C68.2681 60.0809 67.5169 58.5141 66.7252 56.8565C66.7191 56.8434 66.7011 56.8434 66.6945 56.8565C65.9289 58.4328 65.1739 60.004 64.396 61.5633C64.3485 61.6589 64.3213 61.7398 64.3147 61.806C64.2879 62.069 64.5286 62.2645 64.7635 62.2641Z" fill="white"/>
</svg>
