<svg width="50" height="50" viewBox="0 0 50 50" fill="none" xmlns="http://www.w3.org/2000/svg">
<circle cx="25" cy="25" r="25" fill="#F4B72A"/>
<path d="M21.7825 20.3359C22.1401 20.6512 22.4953 20.3573 22.8467 20.2185C24.3348 19.6294 25.8098 19.6584 27.2718 20.3053C27.4129 20.3676 27.5777 20.4664 27.7175 20.4803C27.9547 20.5044 28.1348 20.4235 28.2579 20.2383C28.3456 20.1058 28.3644 19.9273 28.2954 19.7829C27.2542 17.6072 26.2249 15.4748 25.2078 13.3848C25.1484 13.263 25.0852 13.1381 25.0177 13.0099C25.0104 12.9964 24.9916 12.9968 24.9852 13.0103C23.8496 15.3216 22.7483 17.56 21.681 19.7262C21.5782 19.9344 21.6108 20.1843 21.7825 20.3359Z" fill="#133D3C"/>
<path d="M39.9913 36.806C39.9676 36.7715 39.9381 36.7409 39.9024 36.7135C39.6184 36.4954 39.3421 36.3034 39.0727 36.138C38.4695 35.7671 37.8345 35.4256 37.1677 35.113C35.7234 34.4363 34.2506 33.9016 32.7495 33.5093C32.7454 33.5081 32.7434 33.5057 32.7434 33.5014L32.7449 27.1397C32.7449 27.1159 32.7323 27.0945 32.712 27.0834C31.7125 26.5452 30.4697 26.5344 29.4829 27.1215C29.4672 27.131 29.4576 27.1481 29.4576 27.1667L29.4615 28.2595C29.4615 28.2782 29.453 28.2853 29.4358 28.2814C28.7946 28.1354 28.1447 28.0188 27.4867 27.9315C27.476 27.9299 27.4679 27.9204 27.4679 27.9093C27.4637 25.5813 27.4637 23.2989 27.4676 21.0621C27.4679 21.0204 27.4634 20.9796 27.4542 20.9399C27.4507 20.9269 27.4434 20.9173 27.4316 20.9114C26.5563 20.4778 25.6388 20.2688 24.6796 20.285C23.8695 20.2989 23.1027 20.506 22.3796 20.907C22.3742 20.9102 22.3707 20.9162 22.3707 20.9225L22.3715 27.9022C22.3715 27.9113 22.3673 27.9161 22.3589 27.9172C21.6783 28.0057 20.9865 28.1294 20.2841 28.2889C20.278 28.2905 20.2718 28.2854 20.2718 28.279L20.2726 27.1655C20.2726 27.1469 20.2626 27.1303 20.2469 27.1219C19.5786 26.7641 18.8895 26.6249 18.1798 26.7046C17.7701 26.7506 17.3743 26.876 17.0233 27.0918C17.0148 27.0969 17.0099 27.1061 17.0099 27.116L17.0106 33.7898C17.0106 33.8049 17.0175 33.8101 17.0313 33.8057C17.2804 33.7228 17.5648 33.6482 17.8848 33.5828C18.0434 33.5506 18.191 33.5387 18.3278 33.5475C18.3956 33.5518 18.3968 33.5625 18.3305 33.5796C16.3492 34.0924 14.3492 34.841 12.4836 35.8227C11.9624 36.0968 11.4386 36.3987 11.019 36.7739C10.986 36.8033 10.9979 36.8592 11.04 36.8711C11.0849 36.8838 11.137 36.8913 11.1972 36.8941C12.1058 36.933 12.8944 36.9802 13.7192 36.9762C15.6265 36.9679 17.4755 36.8072 19.2655 36.4951C20.0278 36.3622 20.872 36.2194 21.7975 36.0663C22.3701 35.9715 22.9104 35.8953 23.4182 35.8374C23.875 35.7855 24.2796 35.7684 24.6322 35.787C24.6909 35.7902 24.7457 35.8112 24.7966 35.8505C24.8074 35.8589 24.8093 35.8688 24.802 35.8803C24.7802 35.9148 24.7525 35.9426 24.7192 35.9635C24.5414 36.0766 24.3375 36.2 24.1076 36.334C24.0129 36.3892 23.9508 36.4439 23.9217 36.4983C23.7918 36.7406 24.1264 36.8216 24.2877 36.8517C24.5039 36.8925 24.7208 36.9231 24.938 36.9433C25.5021 36.996 26.0927 37.0119 26.7097 36.9913C28.2537 36.9393 29.7977 36.7576 31.3417 36.4454C31.8299 36.3467 32.3339 36.3264 32.8113 36.4938C33.0539 36.5791 33.295 36.691 33.5444 36.7735C33.6763 36.8171 33.7778 36.8449 33.8487 36.8568C34.9252 37.0404 35.9925 37.0436 37.0509 36.8663C37.2728 36.829 37.5009 36.7866 37.7358 36.7385C38.2202 36.6398 38.6843 36.6362 39.128 36.7278C39.3177 36.7671 39.5036 36.8119 39.6864 36.8615C39.7715 36.8845 39.8619 36.8913 39.9581 36.8817C39.9936 36.8782 40.012 36.8361 39.9913 36.806ZM19.2065 28.9104C19.2065 28.9176 19.2011 28.9231 19.1942 28.9231H17.9058C17.8989 28.9231 17.8936 28.9176 17.8936 28.9104V28.0973C17.8936 27.6582 18.1783 27.3024 18.5297 27.3024H18.5703C18.9217 27.3024 19.2065 27.6582 19.2065 28.0973V28.9104ZM24.8939 21.6845H24.9276C25.5814 21.6821 26.1133 22.3497 26.116 23.1755L26.1194 24.112C26.1194 24.1188 26.114 24.1243 26.1075 24.1243L23.7308 24.133C23.7242 24.133 23.7189 24.1275 23.7189 24.1207L23.7155 23.1842C23.7128 22.3584 24.2405 21.6868 24.8939 21.6845ZM25.7592 27.7296C25.7592 27.7348 25.7554 27.7387 25.7504 27.7387L24.0627 27.7451C24.0581 27.7451 24.0538 27.7407 24.0538 27.7359L24.0535 27.5638C24.0516 27.01 24.4287 26.5598 24.8958 26.5582H24.9096C25.3767 26.5567 25.7569 27.0041 25.7588 27.5574L25.7592 27.7296ZM26.9744 32.9849C26.974 33.0016 26.9656 33.0087 26.9495 33.0068C25.5676 32.8235 24.201 32.8239 22.8494 33.0075C22.8348 33.0095 22.8272 33.0028 22.8268 32.9877C22.8095 32.4629 22.8264 31.9822 22.877 31.5454C22.9931 30.5451 23.4606 29.4221 24.5329 29.2024C25.135 29.079 25.65 29.2214 26.0781 29.6288C26.5536 30.0817 26.7874 30.7878 26.8843 31.4463C26.9606 31.9616 26.9905 32.4745 26.9744 32.9849ZM31.8375 28.9073C31.8375 28.916 31.831 28.9227 31.8226 28.9227H30.5464C30.538 28.9227 30.5315 28.916 30.5315 28.9073V28.1314C30.5315 27.6756 30.8155 27.306 31.1653 27.306H31.2037C31.5536 27.306 31.8375 27.6757 31.8375 28.1314L31.8375 28.9073Z" fill="#133D3C"/>
<path d="M16.8611 26.7086C17.7663 26.2516 18.7527 26.1592 19.7085 26.4615C19.8913 26.5194 20.0687 26.6122 20.2419 26.6971C20.4343 26.7919 20.6068 26.7848 20.7596 26.6765C20.9582 26.5352 20.9704 26.3004 20.8624 26.0759C20.1749 24.6499 19.4916 23.2326 18.8121 21.8241C18.7343 21.6627 18.6561 21.5076 18.578 21.358C18.5676 21.3382 18.5573 21.3382 18.5473 21.3584C17.7989 22.8768 17.0589 24.3881 16.3265 25.8926C16.2027 26.1465 16.102 26.2925 16.2119 26.5201C16.3315 26.7665 16.6389 26.8208 16.8611 26.7086Z" fill="#133D3C"/>
<path d="M29.2427 26.7637C29.3224 26.7633 29.45 26.7225 29.6251 26.6404C30.1697 26.3853 30.7423 26.2683 31.3427 26.2901C31.7486 26.3052 32.2 26.3996 32.5882 26.5761C32.7507 26.6499 32.9174 26.7578 33.0941 26.7621C33.3305 26.7673 33.5321 26.5837 33.5413 26.3318C33.5436 26.2687 33.5156 26.1771 33.4574 26.0561C32.7473 24.5805 31.9961 23.0137 31.2044 21.3561C31.1983 21.343 31.1803 21.343 31.1737 21.3561C30.4081 22.9324 29.6531 24.5036 28.8752 26.0629C28.8277 26.1585 28.8005 26.2394 28.7939 26.3056C28.7671 26.5686 29.0078 26.7641 29.2427 26.7637Z" fill="#133D3C"/>
</svg>
