<svg width="166" height="50" viewBox="0 0 166 50" fill="none" xmlns="http://www.w3.org/2000/svg">
<path d="M65.904 35V15.232H70.3V35H65.904ZM69.264 27.244V23.464H79.148V27.244H69.264ZM69.264 19.012V15.232H79.596V19.012H69.264ZM88.0756 35.308C86.825 35.308 85.7143 35.056 84.7436 34.552C83.7916 34.0293 83.045 33.32 82.5036 32.424C81.9623 31.5093 81.6916 30.464 81.6916 29.288V21.392H85.9756V29.232C85.9756 29.6987 86.0503 30.1 86.1996 30.436C86.3676 30.772 86.6103 31.0333 86.9276 31.22C87.245 31.4067 87.6276 31.5 88.0756 31.5C88.7103 31.5 89.2143 31.304 89.5876 30.912C89.961 30.5013 90.1476 29.9413 90.1476 29.232V21.392H94.4316V29.26C94.4316 30.4547 94.161 31.5093 93.6196 32.424C93.0783 33.32 92.3316 34.0293 91.3796 34.552C90.4276 35.056 89.3263 35.308 88.0756 35.308ZM106.109 35V27.244C106.109 26.5347 105.885 25.9653 105.437 25.536C105.008 25.088 104.457 24.864 103.785 24.864C103.319 24.864 102.908 24.9667 102.553 25.172C102.199 25.3587 101.919 25.6387 101.713 26.012C101.508 26.3667 101.405 26.7773 101.405 27.244L99.7534 26.432C99.7534 25.368 99.9867 24.4347 100.453 23.632C100.92 22.8293 101.564 22.2133 102.385 21.784C103.225 21.336 104.168 21.112 105.213 21.112C106.221 21.112 107.108 21.3547 107.873 21.84C108.657 22.3067 109.273 22.932 109.721 23.716C110.169 24.5 110.393 25.3587 110.393 26.292V35H106.109ZM97.1214 35V21.392H101.405V35H97.1214ZM114.717 35V20.216C114.717 19.1147 114.959 18.1253 115.445 17.248C115.949 16.352 116.649 15.652 117.545 15.148C118.441 14.6253 119.505 14.364 120.737 14.364C121.67 14.364 122.482 14.5227 123.173 14.84C123.882 15.1387 124.498 15.5587 125.021 16.1L122.333 18.788C122.146 18.6013 121.931 18.4613 121.689 18.368C121.465 18.256 121.194 18.2 120.877 18.2C120.298 18.2 119.841 18.368 119.505 18.704C119.169 19.04 119.001 19.4973 119.001 20.076V35H114.717ZM111.721 25.032V21.392H122.921V25.032H111.721ZM130.258 35.28C129.008 35.28 127.888 34.972 126.899 34.356C125.928 33.74 125.153 32.9 124.575 31.836C124.015 30.772 123.735 29.5587 123.735 28.196C123.735 26.8333 124.015 25.62 124.575 24.556C125.153 23.492 125.928 22.652 126.899 22.036C127.888 21.42 129.008 21.112 130.258 21.112C131.173 21.112 131.995 21.2893 132.723 21.644C133.469 21.9987 134.076 22.4933 134.543 23.128C135.009 23.744 135.271 24.4533 135.327 25.256V31.136C135.271 31.9387 135.009 32.6573 134.543 33.292C134.095 33.908 133.497 34.3933 132.751 34.748C132.004 35.1027 131.173 35.28 130.258 35.28ZM131.127 31.416C132.041 31.416 132.779 31.1173 133.339 30.52C133.899 29.904 134.179 29.1293 134.179 28.196C134.179 27.5613 134.048 27.0013 133.787 26.516C133.544 26.0307 133.189 25.6573 132.723 25.396C132.275 25.116 131.752 24.976 131.155 24.976C130.557 24.976 130.025 25.116 129.559 25.396C129.111 25.6573 128.747 26.0307 128.467 26.516C128.205 27.0013 128.075 27.5613 128.075 28.196C128.075 28.812 128.205 29.3627 128.467 29.848C128.728 30.3333 129.092 30.716 129.559 30.996C130.025 31.276 130.548 31.416 131.127 31.416ZM134.011 35V31.332L134.655 28.028L134.011 24.724V21.392H138.211V35H134.011ZM141.227 35V21.392H145.511V35H141.227ZM143.383 19.516C142.711 19.516 142.151 19.292 141.703 18.844C141.274 18.3773 141.059 17.8173 141.059 17.164C141.059 16.492 141.274 15.932 141.703 15.484C142.151 15.036 142.711 14.812 143.383 14.812C144.055 14.812 144.606 15.036 145.035 15.484C145.464 15.932 145.679 16.492 145.679 17.164C145.679 17.8173 145.464 18.3773 145.035 18.844C144.606 19.292 144.055 19.516 143.383 19.516ZM148.528 35V21.392H152.812V35H148.528ZM152.812 27.524L151.02 26.124C151.374 24.5373 151.972 23.3053 152.812 22.428C153.652 21.5507 154.818 21.112 156.312 21.112C156.965 21.112 157.534 21.2147 158.02 21.42C158.524 21.6067 158.962 21.9053 159.336 22.316L156.788 25.536C156.601 25.3307 156.368 25.172 156.088 25.06C155.808 24.948 155.49 24.892 155.136 24.892C154.426 24.892 153.857 25.116 153.428 25.564C153.017 25.9933 152.812 26.6467 152.812 27.524Z" fill="#426463"/>
<path d="M161.47 35.308C160.742 35.308 160.135 35.056 159.65 34.552C159.164 34.048 158.922 33.4413 158.922 32.732C158.922 31.9853 159.164 31.3693 159.65 30.884C160.135 30.38 160.742 30.128 161.47 30.128C162.216 30.128 162.823 30.38 163.29 30.884C163.775 31.3693 164.018 31.9853 164.018 32.732C164.018 33.4413 163.775 34.048 163.29 34.552C162.823 35.056 162.216 35.308 161.47 35.308Z" fill="#F4B72A"/>
<circle cx="25" cy="25" r="25" fill="#F4B72A"/>
<path d="M21.7825 20.3359C22.1401 20.6512 22.4953 20.3573 22.8467 20.2185C24.3348 19.6294 25.8098 19.6584 27.2718 20.3053C27.4129 20.3676 27.5777 20.4664 27.7175 20.4803C27.9547 20.5044 28.1348 20.4235 28.2579 20.2383C28.3456 20.1058 28.3644 19.9273 28.2954 19.7829C27.2542 17.6072 26.2249 15.4748 25.2078 13.3848C25.1484 13.263 25.0852 13.1381 25.0177 13.0099C25.0104 12.9964 24.9916 12.9968 24.9852 13.0103C23.8496 15.3216 22.7483 17.56 21.681 19.7262C21.5782 19.9344 21.6108 20.1843 21.7825 20.3359Z" fill="#133D3C"/>
<path d="M39.9913 36.805C39.9676 36.7705 39.9381 36.74 39.9024 36.7126C39.6184 36.4944 39.3421 36.3024 39.0727 36.137C38.4695 35.7661 37.8345 35.4246 37.1677 35.112C35.7234 34.4353 34.2506 33.9006 32.7495 33.5084C32.7454 33.5072 32.7434 33.5048 32.7434 33.5004L32.7449 27.1388C32.7449 27.115 32.7323 27.0936 32.712 27.0825C31.7125 26.5442 30.4697 26.5335 29.4829 27.1206C29.4672 27.1301 29.4576 27.1471 29.4576 27.1658L29.4615 28.2586C29.4615 28.2772 29.453 28.2843 29.4358 28.2804C28.7946 28.1344 28.1447 28.0178 27.4867 27.9305C27.476 27.929 27.4679 27.9194 27.4679 27.9083C27.4637 25.5803 27.4637 23.2979 27.4676 21.0611C27.4679 21.0195 27.4634 20.9787 27.4542 20.939C27.4507 20.9259 27.4434 20.9164 27.4316 20.9104C26.5563 20.4768 25.6388 20.2678 24.6796 20.2841C23.8695 20.298 23.1027 20.505 22.3796 20.9061C22.3742 20.9092 22.3707 20.9152 22.3707 20.9216L22.3715 27.9012C22.3715 27.9103 22.3673 27.9151 22.3589 27.9163C21.6783 28.0047 20.9865 28.1285 20.2841 28.2879C20.278 28.2895 20.2718 28.2844 20.2718 28.278L20.2726 27.1646C20.2726 27.1459 20.2626 27.1293 20.2469 27.121C19.5786 26.7632 18.8895 26.624 18.1798 26.7037C17.7701 26.7497 17.3743 26.875 17.0233 27.0908C17.0148 27.096 17.0099 27.1051 17.0099 27.115L17.0106 33.7889C17.0106 33.8039 17.0175 33.8091 17.0313 33.8047C17.2804 33.7218 17.5648 33.6473 17.8848 33.5818C18.0434 33.5497 18.191 33.5378 18.3278 33.5465C18.3956 33.5509 18.3968 33.5616 18.3305 33.5786C16.3492 34.0915 14.3492 34.84 12.4836 35.8218C11.9624 36.0959 11.4386 36.3977 11.019 36.773C10.986 36.8023 10.9979 36.8583 11.04 36.8702C11.0849 36.8828 11.137 36.8904 11.1972 36.8932C12.1058 36.932 12.8944 36.9792 13.7192 36.9753C15.6265 36.9669 17.4755 36.8063 19.2655 36.4941C20.0278 36.3613 20.872 36.2185 21.7975 36.0653C22.3701 35.9705 22.9104 35.8944 23.4182 35.8365C23.875 35.7845 24.2796 35.7674 24.6322 35.7861C24.6909 35.7892 24.7457 35.8103 24.7966 35.8496C24.8074 35.8579 24.8093 35.8678 24.802 35.8793C24.7802 35.9138 24.7525 35.9416 24.7192 35.9626C24.5414 36.0756 24.3375 36.199 24.1076 36.3331C24.0129 36.3882 23.9508 36.4429 23.9217 36.4973C23.7918 36.7396 24.1264 36.8206 24.2877 36.8507C24.5039 36.8916 24.7208 36.9221 24.938 36.9423C25.5021 36.9951 26.0927 37.0109 26.7097 36.9903C28.2537 36.9383 29.7977 36.7566 31.3417 36.4445C31.8299 36.3457 32.3339 36.3255 32.8113 36.4929C33.0539 36.5781 33.295 36.69 33.5444 36.7725C33.6763 36.8162 33.7778 36.8439 33.8487 36.8558C34.9252 37.0395 35.9925 37.0426 37.0509 36.8653C37.2728 36.8281 37.5009 36.7856 37.7358 36.7376C38.2202 36.6388 38.6843 36.6353 39.128 36.7269C39.3177 36.7662 39.5036 36.811 39.6864 36.8605C39.7715 36.8835 39.8619 36.8903 39.9581 36.8808C39.9936 36.8772 40.012 36.8352 39.9913 36.805ZM19.2065 28.9095C19.2065 28.9166 19.2011 28.9222 19.1942 28.9222H17.9058C17.8989 28.9222 17.8936 28.9166 17.8936 28.9095V28.0963C17.8936 27.6572 18.1783 27.3014 18.5297 27.3014H18.5703C18.9217 27.3014 19.2065 27.6572 19.2065 28.0963V28.9095ZM24.8939 21.6835H24.9276C25.5814 21.6811 26.1133 22.3487 26.116 23.1746L26.1194 24.111C26.1194 24.1178 26.114 24.1233 26.1075 24.1233L23.7308 24.1321C23.7242 24.1321 23.7189 24.1265 23.7189 24.1198L23.7155 23.1832C23.7128 22.3575 24.2405 21.6859 24.8939 21.6835ZM25.7592 27.7286C25.7592 27.7338 25.7554 27.7377 25.7504 27.7377L24.0627 27.7441C24.0581 27.7441 24.0538 27.7397 24.0538 27.735L24.0535 27.5628C24.0516 27.0091 24.4287 26.5589 24.8958 26.5573H24.9096C25.3767 26.5557 25.7569 27.0031 25.7588 27.5565L25.7592 27.7286ZM26.9744 32.984C26.974 33.0006 26.9656 33.0078 26.9495 33.0058C25.5676 32.8226 24.201 32.8229 22.8494 33.0066C22.8348 33.0086 22.8272 33.0018 22.8268 32.9867C22.8095 32.462 22.8264 31.9812 22.877 31.5445C22.9931 30.5441 23.4606 29.4211 24.5329 29.2014C25.135 29.078 25.65 29.2204 26.0781 29.6278C26.5536 30.0808 26.7874 30.7869 26.8843 31.4453C26.9606 31.9606 26.9905 32.4735 26.9744 32.984ZM31.8375 28.9063C31.8375 28.915 31.831 28.9218 31.8226 28.9218H30.5464C30.538 28.9218 30.5315 28.915 30.5315 28.9063V28.1304C30.5315 27.6747 30.8155 27.305 31.1653 27.305H31.2037C31.5536 27.305 31.8375 27.6747 31.8375 28.1304L31.8375 28.9063Z" fill="#133D3C"/>
<path d="M16.8614 26.7092C17.7666 26.2522 18.753 26.1598 19.7087 26.462C19.8915 26.5199 20.069 26.6128 20.2422 26.6977C20.4345 26.7925 20.607 26.7853 20.7599 26.677C20.9584 26.5358 20.9707 26.301 20.8626 26.0765C20.1751 24.6505 19.4918 23.2332 18.8124 21.8247C18.7346 21.6632 18.6564 21.5081 18.5782 21.3586C18.5679 21.3387 18.5575 21.3387 18.5475 21.359C17.7991 22.8774 17.0591 24.3887 16.3268 25.8932C16.203 26.1471 16.1022 26.293 16.2122 26.5207C16.3318 26.7671 16.6391 26.8214 16.8614 26.7092Z" fill="#133D3C"/>
<path d="M29.2428 26.7651C29.3225 26.7647 29.4502 26.7238 29.6253 26.6418C30.1699 26.3867 30.7424 26.2697 31.3429 26.2915C31.7487 26.3066 32.2001 26.401 32.5883 26.5775C32.7508 26.6513 32.9175 26.7592 33.0942 26.7635C33.3306 26.7687 33.5322 26.585 33.5414 26.3332C33.5437 26.2701 33.5158 26.1785 33.4575 26.0575C32.7474 24.5819 31.9963 23.0151 31.2045 21.3575C31.1984 21.3444 31.1804 21.3444 31.1739 21.3575C30.4082 22.9338 29.6532 24.505 28.8753 26.0642C28.8278 26.1599 28.8006 26.2408 28.794 26.307C28.7672 26.5699 29.0079 26.7655 29.2428 26.7651Z" fill="#133D3C"/>
</svg>
