<svg width="220" height="220" viewBox="0 0 220 220" fill="none" xmlns="http://www.w3.org/2000/svg">
<path d="M141.428 110.001C141.428 127.358 127.357 141.429 110 141.429C92.6423 141.429 78.5713 127.358 78.5713 110.001C78.5713 92.6433 92.6423 78.5723 110 78.5723C127.357 78.5723 141.428 92.6433 141.428 110.001Z" fill="#F4B72A"/>
<path fill-rule="evenodd" clip-rule="evenodd" d="M119.743 108.689C116.678 108.689 113.884 105.781 113.884 102.587V101.277H111.37V102.587C111.37 104.91 112.348 107.089 113.883 108.689H98.3711V111.308H113.883C112.348 112.909 111.37 115.088 111.37 117.411V118.72H113.884V117.411C113.884 114.217 116.678 111.308 119.743 111.308H121V108.689H119.743Z" fill="white"/>
<path d="M176 110C176 73.5492 146.451 44 110 44C73.5492 44 44 73.5492 44 110C44 146.451 73.5492 176 110 176V220C49.2487 220 0 170.751 0 110C0 49.2487 49.2487 0 110 0C170.751 0 220 49.2487 220 110C220 170.751 170.751 220 110 220V176C146.451 176 176 146.451 176 110Z" fill="#F4B72A"/>
<path d="M124.016 15.6858L127.533 16.0051L120.765 24.4335L120.032 31.787L117.053 31.5165L117.786 24.163L112.806 14.668L116.323 14.9873L119.585 21.1984L124.016 15.6858Z" fill="white"/>
<path d="M132.586 34.5292C131.504 34.2217 130.6 33.6755 129.872 32.8904C129.152 32.1076 128.666 31.1917 128.413 30.1426C128.168 29.0958 128.215 28.0302 128.554 26.9456C128.808 26.1304 129.199 25.4109 129.727 24.7873C130.256 24.1562 130.872 23.6471 131.573 23.2601C132.284 22.8679 133.044 22.6198 133.853 22.5159C134.662 22.412 135.47 22.4748 136.277 22.7043C137.194 22.965 137.975 23.3904 138.618 23.9805C139.272 24.5654 139.765 25.2552 140.097 26.0499C140.429 26.8447 140.588 27.688 140.574 28.5798C140.56 29.4716 140.347 30.3473 139.933 31.2069L131.34 28.7637C131.319 29.2138 131.381 29.6427 131.527 30.0506C131.675 30.451 131.909 30.8067 132.23 31.1179C132.554 31.4215 132.957 31.6462 133.441 31.7918C133.94 31.9419 134.429 31.9589 134.909 31.8429C135.399 31.7217 135.845 31.4981 136.245 31.1722L138.969 32.6551C138.181 33.514 137.213 34.1265 136.066 34.4926C134.922 34.8512 133.762 34.8635 132.586 34.5292ZM131.886 26.6839L137.67 28.3283C137.724 27.855 137.666 27.3988 137.496 26.9596C137.336 26.5151 137.086 26.1265 136.746 25.7937C136.407 25.4609 136.002 25.2277 135.531 25.094C135.061 24.9603 134.592 24.9451 134.125 25.0484C133.66 25.1441 133.229 25.3352 132.832 25.6215C132.446 25.9025 132.131 26.2566 131.886 26.6839Z" fill="white"/>
<path d="M157.092 31.4266L159.727 32.7812L153.91 43.0875L151.275 41.7329L151.877 40.3939C151.322 40.7025 150.718 40.8752 150.066 40.9121C149.425 40.9459 148.773 40.7925 148.11 40.452C147.311 40.0412 146.644 39.512 146.108 38.8644C145.573 38.2168 145.182 37.5019 144.936 36.7196C144.698 35.941 144.615 35.1407 144.689 34.3188C144.77 33.5006 145.026 32.7101 145.456 31.9475C145.871 31.2123 146.402 30.5939 147.047 30.0924C147.699 29.5946 148.419 29.2332 149.205 29.0081C149.992 28.7831 150.798 28.7052 151.622 28.7746C152.447 28.8439 153.244 29.0766 154.015 29.4726C154.728 29.839 155.279 30.3177 155.67 30.9087C156.068 31.5034 156.334 32.1361 156.466 32.8069L157.092 31.4266ZM149.413 37.9967C149.974 38.2854 150.546 38.4068 151.13 38.3609C151.713 38.315 152.255 38.1282 152.756 37.8006C153.26 37.466 153.668 37.024 153.978 36.4743C154.292 35.9177 154.455 35.3498 154.466 34.7705C154.481 34.1843 154.345 33.6444 154.057 33.1507C153.776 32.6606 153.358 32.2731 152.804 31.9882C152.25 31.7032 151.664 31.5797 151.049 31.6176C150.444 31.6524 149.877 31.8263 149.347 32.1391C148.825 32.4556 148.406 32.8922 148.092 33.4487C147.778 34.0053 147.63 34.5806 147.648 35.1747C147.665 35.7688 147.825 36.3164 148.127 36.8176C148.437 37.3224 148.865 37.7154 149.413 37.9967Z" fill="white"/>
<path d="M157.906 45.7367L165.481 36.5291L167.833 38.2952L167.168 39.1213C167.769 39.0362 168.376 39.0698 168.989 39.2223C169.607 39.3686 170.179 39.6396 170.707 40.0353C171.06 40.3007 171.373 40.6152 171.646 40.9787L168.854 42.5472C168.686 42.2718 168.48 42.0424 168.235 41.8591C167.856 41.5744 167.436 41.4027 166.974 41.3441C166.524 41.2843 166.082 41.3346 165.648 41.4952C165.225 41.6545 164.865 41.9151 164.566 42.277L160.258 47.5028L157.906 45.7367Z" fill="white"/>
<path d="M169.032 55.2299C168.624 54.7602 168.293 54.2485 168.038 53.6947C167.795 53.1413 167.653 52.5824 167.613 52.0182C167.573 51.4539 167.659 50.9153 167.871 50.4023L170.39 51.4506C170.338 51.6258 170.32 51.8517 170.334 52.1281C170.355 52.3992 170.424 52.68 170.542 52.9704C170.666 53.2665 170.854 53.5423 171.107 53.7979C171.32 54.0137 171.552 54.1914 171.802 54.331C172.064 54.4708 172.319 54.5415 172.568 54.543C172.822 54.5502 173.053 54.4601 173.261 54.2728C173.482 54.0747 173.578 53.8483 173.552 53.5936C173.536 53.3392 173.449 53.0745 173.29 52.7995C173.142 52.5248 172.994 52.2612 172.846 52.0086C172.426 51.3673 172.105 50.7068 171.883 50.027C171.667 49.3529 171.606 48.7052 171.7 48.084C171.806 47.4632 172.127 46.9119 172.663 46.4301C173.252 45.9002 173.907 45.5902 174.627 45.5001C175.353 45.4157 176.067 45.5076 176.77 45.7759C177.479 46.0499 178.108 46.4651 178.658 47.0217C179.326 47.6975 179.788 48.4504 180.046 49.2803C180.315 50.1105 180.345 50.9311 180.134 51.7423L177.493 51.0135C177.557 50.8055 177.579 50.577 177.558 50.328C177.542 50.0736 177.484 49.8207 177.382 49.5694C177.285 49.3127 177.145 49.0797 176.961 48.8702C176.72 48.6039 176.466 48.3925 176.199 48.2359C175.932 48.0793 175.663 47.9999 175.391 47.9978C175.125 48.0013 174.873 48.1101 174.635 48.3242C174.409 48.5276 174.323 48.7654 174.378 49.0374C174.439 49.3042 174.558 49.5836 174.734 49.8756C174.916 50.1733 175.08 50.4651 175.228 50.7508C175.549 51.4058 175.8 52.0644 175.982 52.7265C176.17 53.3943 176.214 54.0249 176.114 54.6183C176.015 55.2118 175.707 55.7303 175.19 56.1739C174.612 56.6932 173.944 56.9835 173.184 57.0448C172.43 57.1008 171.682 56.9693 170.94 56.6502C170.204 56.3368 169.568 55.8634 169.032 55.2299Z" fill="white"/>
<path d="M180.538 68.6841L195.771 61.1172L200.744 70.2342L198.089 71.553L194.498 64.9697L191.408 66.5047L194.257 71.7278L191.602 73.0466L188.753 67.8235L184.575 69.899L188.166 76.4824L185.511 77.8012L180.538 68.6841Z" fill="white"/>
<path d="M187.213 81.4097L194.399 83.8311L198.988 78.0864L200.046 81.4623L197.371 84.8159L201.539 86.229L202.597 89.6049L195.457 87.2071L190.844 92.9955L189.786 89.6196L192.505 86.2043L188.271 84.7857L187.213 81.4097Z" fill="white"/>
<path d="M185.751 99.7023L185.484 96.8573L203.811 95.2947L204.078 98.1397L202.526 98.272C203.115 98.6056 203.607 99.0338 204.001 99.5566C204.404 100.086 204.64 100.724 204.71 101.471C204.79 102.326 204.697 103.137 204.432 103.904C204.168 104.671 203.764 105.359 203.222 105.97C202.689 106.587 202.05 107.084 201.305 107.461C200.561 107.846 199.745 108.076 198.857 108.152C197.969 108.227 197.12 108.139 196.308 107.887C195.497 107.643 194.767 107.262 194.12 106.746C193.481 106.236 192.96 105.626 192.557 104.916C192.154 104.206 191.912 103.424 191.832 102.569C191.762 101.822 191.872 101.155 192.162 100.566C192.46 99.9843 192.869 99.4793 193.387 99.0512L185.751 99.7023ZM201.835 101.68C201.78 101.09 201.567 100.575 201.198 100.136C200.837 99.6971 200.375 99.3682 199.813 99.1497C199.25 98.9313 198.643 98.8498 197.992 98.9054C197.34 98.961 196.754 99.1442 196.233 99.455C195.72 99.7651 195.322 100.167 195.04 100.661C194.766 101.155 194.657 101.697 194.712 102.288C194.768 102.886 194.978 103.421 195.343 103.891C195.707 104.362 196.172 104.722 196.737 104.971C197.31 105.22 197.927 105.316 198.587 105.26C199.238 105.204 199.819 105.006 200.329 104.665C200.839 104.324 201.229 103.891 201.5 103.366C201.78 102.849 201.892 102.287 201.835 101.68Z" fill="white"/>
<path d="M191.78 118.202C191.911 117.132 192.319 116.188 193.003 115.368C193.687 114.557 194.549 113.942 195.588 113.523C196.626 113.113 197.734 112.973 198.912 113.104C199.798 113.203 200.608 113.447 201.342 113.835C202.085 114.224 202.716 114.715 203.237 115.307C203.764 115.908 204.151 116.58 204.398 117.323C204.645 118.065 204.719 118.836 204.621 119.634C204.51 120.541 204.206 121.348 203.707 122.054C203.216 122.769 202.589 123.352 201.826 123.801C201.063 124.25 200.22 124.545 199.297 124.686C198.374 124.826 197.434 124.777 196.475 124.536L197.516 116.037C197.048 116.094 196.616 116.227 196.22 116.434C195.832 116.642 195.505 116.924 195.239 117.28C194.982 117.636 194.819 118.054 194.752 118.533C194.684 119.029 194.75 119.492 194.953 119.923C195.162 120.363 195.47 120.743 195.875 121.063L194.814 123.879C193.792 123.286 192.993 122.482 192.417 121.467C191.85 120.453 191.637 119.365 191.78 118.202ZM199.757 116.192L199.056 121.913C199.554 121.882 200.015 121.749 200.439 121.513C200.87 121.286 201.228 120.984 201.513 120.607C201.798 120.231 201.969 119.81 202.026 119.345C202.083 118.879 202.018 118.436 201.831 118.015C201.652 117.594 201.38 117.222 201.017 116.898C200.66 116.584 200.24 116.348 199.757 116.192Z" fill="white"/>
<path d="M190.318 128.587L202.092 131.871L201.25 134.611L200.199 134.329C200.505 134.83 200.698 135.38 200.778 135.98C200.866 136.582 200.815 137.19 200.626 137.804C200.5 138.216 200.31 138.61 200.058 138.987L197.494 137.098C197.699 136.846 197.846 136.578 197.933 136.294C198.069 135.852 198.079 135.416 197.965 134.985C197.855 134.564 197.642 134.191 197.324 133.866C197.012 133.551 196.624 133.329 196.161 133.199L189.476 131.327L190.318 128.587Z" fill="white"/>
<path d="M198.202 143.267L197.044 145.901L185.732 141.374L186.89 138.739L198.202 143.267ZM199.073 145.189C199.243 144.801 199.519 144.526 199.9 144.366C200.289 144.208 200.687 144.211 201.094 144.374C201.494 144.534 201.771 144.801 201.925 145.176C202.08 145.551 202.073 145.929 201.905 146.31C201.738 146.692 201.461 146.958 201.076 147.108C200.687 147.266 200.293 147.265 199.894 147.105C199.486 146.942 199.204 146.676 199.046 146.309C198.896 145.944 198.905 145.571 199.073 145.189Z" fill="white"/>
<path d="M181.08 149.457C181.66 148.534 182.44 147.834 183.417 147.356C184.391 146.885 185.441 146.663 186.569 146.69C187.692 146.724 188.762 147.032 189.779 147.614C190.543 148.052 191.176 148.592 191.678 149.235C192.187 149.881 192.551 150.576 192.769 151.321C192.991 152.076 193.054 152.84 192.958 153.613C192.863 154.387 192.598 155.118 192.165 155.808C191.672 156.59 191.047 157.206 190.288 157.654C189.532 158.113 188.709 158.397 187.82 158.507C186.931 158.617 186.035 158.554 185.134 158.32C184.232 158.085 183.396 157.67 182.626 157.075L187.241 149.738C186.79 149.606 186.339 149.557 185.889 149.591C185.445 149.628 185.026 149.757 184.631 149.976C184.242 150.2 183.914 150.517 183.646 150.927C183.369 151.352 183.23 151.8 183.229 152.273C183.23 152.756 183.347 153.223 183.578 153.674L181.396 155.824C180.72 154.881 180.339 153.835 180.252 152.684C180.172 151.537 180.448 150.461 181.08 149.457ZM189.216 150.76L186.11 155.698C186.577 155.865 187.055 155.925 187.543 155.877C188.034 155.84 188.49 155.705 188.913 155.474C189.335 155.242 189.672 154.926 189.925 154.524C190.177 154.123 190.309 153.693 190.32 153.235C190.339 152.782 190.252 152.336 190.06 151.898C189.871 151.471 189.589 151.092 189.216 150.76Z" fill="white"/>
<path d="M173.521 171.414L167.773 166.449L169.781 164.331L174.947 168.793C175.305 169.102 175.709 169.299 176.159 169.382C176.615 169.471 177.063 169.447 177.501 169.31C177.941 169.184 178.322 168.95 178.646 168.609C178.97 168.268 179.178 167.879 179.271 167.444C179.365 167.02 179.343 166.595 179.205 166.171C179.067 165.757 178.82 165.396 178.462 165.087L173.296 160.625L175.305 158.508L184.407 166.354L182.399 168.472L181.581 167.782C181.629 168.359 181.552 168.935 181.35 169.508C181.155 170.087 180.832 170.613 180.382 171.087C179.784 171.718 179.074 172.153 178.253 172.39C177.437 172.634 176.612 172.673 175.775 172.508C174.939 172.355 174.188 171.99 173.521 171.414Z" fill="white"/>
<path d="M160.611 176.64L157.578 177.085C157.564 176.175 157.755 175.297 158.151 174.453C158.547 173.608 159.146 172.896 159.948 172.316C160.847 171.665 161.844 171.292 162.938 171.197C164.025 171.106 165.084 171.27 166.115 171.69C167.144 172.121 168.017 172.787 168.733 173.689C169.276 174.373 169.655 175.103 169.87 175.877C170.09 176.658 170.156 177.433 170.069 178.201C169.98 178.981 169.74 179.712 169.349 180.396C168.958 181.08 168.427 181.665 167.756 182.15C166.954 182.73 166.074 183.088 165.114 183.223C164.155 183.359 163.214 183.291 162.29 183.019L163.566 180.362C163.992 180.446 164.416 180.443 164.837 180.354C165.252 180.269 165.623 180.109 165.949 179.874C166.418 179.534 166.743 179.103 166.923 178.581C167.109 178.065 167.152 177.525 167.052 176.96C166.958 176.402 166.723 175.887 166.348 175.414C165.977 174.947 165.521 174.592 164.978 174.348C164.44 174.11 163.886 174.007 163.315 174.037C162.745 174.068 162.225 174.253 161.756 174.593C161.417 174.838 161.148 175.139 160.951 175.498C160.758 175.862 160.645 176.243 160.611 176.64Z" fill="white"/>
<path d="M147.133 180.011C148.146 179.537 149.199 179.353 150.292 179.459C151.377 179.569 152.385 179.928 153.316 180.535C154.24 181.146 154.963 181.959 155.485 182.976C155.877 183.74 156.101 184.521 156.156 185.321C156.215 186.128 156.125 186.9 155.884 187.638C155.64 188.387 155.258 189.061 154.737 189.661C154.216 190.261 153.578 190.737 152.821 191.091C151.962 191.493 151.087 191.685 150.194 191.668C149.298 191.661 148.446 191.473 147.637 191.104C146.828 190.734 146.112 190.218 145.489 189.553C144.865 188.889 144.4 188.107 144.093 187.207L152.145 183.442C151.841 183.098 151.49 182.823 151.094 182.617C150.7 182.419 150.275 182.309 149.818 182.288C149.365 182.274 148.909 182.37 148.45 182.576C147.976 182.789 147.604 183.093 147.334 183.489C147.06 183.895 146.891 184.348 146.829 184.846L143.773 185.519C143.742 184.378 144.018 183.301 144.601 182.29C145.187 181.286 146.031 180.526 147.133 180.011ZM153.221 185.325L147.802 187.859C148.098 188.242 148.465 188.539 148.902 188.752C149.336 188.975 149.795 189.099 150.282 189.124C150.768 189.149 151.231 189.058 151.672 188.852C152.112 188.646 152.468 188.354 152.738 187.975C153.012 187.604 153.193 187.185 153.281 186.718C153.365 186.261 153.345 185.797 153.221 185.325Z" fill="white"/>
<path d="M129.223 196.646L131.083 197.499L130.17 199.301L132.225 199.549L131.978 201.508L129.894 201.242L130.268 203.188L128.241 203.543L127.867 201.597L126.042 202.547L125.058 200.803L126.912 199.871L125.388 198.496L126.81 197.069L128.312 198.46L129.223 196.646Z" fill="white"/>
<path d="M97.052 204.426L93.5318 204.141L100.207 195.646L100.86 188.286L103.842 188.527L103.189 195.887L108.272 205.332L104.752 205.048L101.423 198.869L97.052 204.426Z" fill="white"/>
<path d="M88.2768 185.669C89.3616 185.966 90.2722 186.503 91.0085 187.281C91.737 188.056 92.2334 188.967 92.4977 190.014C92.7542 191.058 92.7191 192.124 92.3926 193.212C92.1471 194.03 91.7641 194.753 91.2435 195.382C90.7207 196.018 90.111 196.534 89.4143 196.928C88.7074 197.327 87.9501 197.583 87.1424 197.695C86.3347 197.807 85.5259 197.752 84.7162 197.531C83.7964 197.279 83.0116 196.862 82.3616 196.278C81.7015 195.7 81.201 195.015 80.8601 194.224C80.5192 193.432 80.3508 192.591 80.3548 191.699C80.3589 190.807 80.5628 189.929 80.9667 189.065L89.5868 191.422C89.6028 190.972 89.5358 190.543 89.3855 190.137C89.2331 189.738 88.9946 189.385 88.6702 189.077C88.3436 188.777 87.9377 188.556 87.4525 188.415C86.9516 188.27 86.4619 188.258 85.9833 188.379C85.4945 188.505 85.0518 188.733 84.655 189.063L81.9147 187.607C82.6938 186.741 83.6547 186.119 84.7973 185.741C85.9377 185.371 87.0975 185.347 88.2768 185.669ZM89.0629 193.507L83.2612 191.921C83.2125 192.395 83.2757 192.85 83.4506 193.288C83.6154 193.731 83.8695 194.117 84.213 194.446C84.5565 194.776 84.9641 195.005 85.4358 195.134C85.9074 195.263 86.3764 195.273 86.8427 195.165C87.3066 195.065 87.7353 194.869 88.1287 194.579C88.5119 194.294 88.8234 193.937 89.0629 193.507Z" fill="white"/>
<path d="M63.8023 189.019L61.1525 187.691L66.8563 177.327L69.506 178.655L68.9182 180C69.4698 179.686 70.0716 179.507 70.7237 179.464C71.3646 179.424 72.0181 179.571 72.6842 179.905C73.4878 180.307 74.1609 180.83 74.7035 181.472C75.246 182.114 75.6445 182.825 75.8989 183.605C76.146 184.381 76.2372 185.181 76.1724 186.003C76.1004 186.822 75.8533 187.615 75.4313 188.382C75.0244 189.121 74.5011 189.745 73.8613 190.253C73.2142 190.757 72.4987 191.126 71.7147 191.359C70.9307 191.592 70.126 191.678 69.3006 191.616C68.4752 191.555 67.6752 191.331 66.9005 190.942C66.1838 190.583 65.6267 190.11 65.2293 189.523C64.8247 188.932 64.5525 188.302 64.4129 187.633L63.8023 189.019ZM71.409 182.373C70.8443 182.09 70.2706 181.974 69.6879 182.026C69.1052 182.078 68.5653 182.27 68.0682 182.602C67.5673 182.942 67.1647 183.388 66.8605 183.941C66.5525 184.5 66.3961 185.07 66.3913 185.649C66.3827 186.236 66.525 186.774 66.8184 187.265C67.1045 187.752 67.5262 188.135 68.0837 188.415C68.6412 188.694 69.2276 188.812 69.8431 188.768C70.4475 188.727 71.0127 188.548 71.5388 188.229C72.0576 187.908 72.4711 187.467 72.7791 186.907C73.0871 186.348 73.229 185.771 73.2048 185.177C73.1807 184.583 73.0147 184.037 72.7069 183.539C72.3919 183.037 71.9592 182.649 71.409 182.373Z" fill="white"/>
<path d="M62.836 174.714L55.3619 183.996L52.9905 182.253L53.6468 181.421C53.0469 181.512 52.4396 181.484 51.825 181.338C51.2053 181.198 50.6298 180.932 50.0985 180.542C49.7421 180.28 49.4256 179.969 49.1491 179.608L51.9232 178.012C52.0945 178.286 52.3033 178.513 52.5495 178.694C52.9318 178.975 53.3541 179.142 53.8162 179.196C54.2669 179.252 54.7085 179.197 55.1408 179.032C55.5618 178.868 55.9194 178.604 56.2138 178.239L60.4646 172.971L62.836 174.714Z" fill="white"/>
<path d="M51.6059 165.331C52.0187 165.797 52.3555 166.305 52.6162 166.857C52.8654 167.408 53.0132 167.965 53.0597 168.529C53.1062 169.093 53.026 169.632 52.8189 170.147L50.289 169.124C50.3388 168.948 50.3549 168.722 50.3373 168.446C50.3139 168.175 50.2414 167.895 50.12 167.606C49.9929 167.311 49.8018 167.037 49.5466 166.784C49.3312 166.57 49.0976 166.395 48.8459 166.258C48.5826 166.12 48.3266 166.052 48.0779 166.053C47.8235 166.048 47.5932 166.141 47.3869 166.33C47.1689 166.53 47.0747 166.758 47.1043 167.012C47.1223 167.266 47.2124 167.53 47.3746 167.804C47.5253 168.077 47.6762 168.339 47.8273 168.59C48.254 169.227 48.582 169.885 48.8113 170.562C49.0349 171.234 49.1028 171.881 49.0151 172.503C48.9158 173.125 48.601 173.679 48.0707 174.166C47.4874 174.702 46.8361 175.019 46.117 175.116C45.3922 175.207 44.6768 175.123 43.9707 174.861C43.2589 174.594 42.6251 174.185 42.0694 173.634C41.3947 172.965 40.9239 172.217 40.6572 171.39C40.3789 170.562 40.3404 169.742 40.5419 168.929L43.191 169.631C43.129 169.84 43.11 170.068 43.1339 170.317C43.1519 170.571 43.2133 170.824 43.3182 171.074C43.4171 171.33 43.5599 171.561 43.7466 171.769C43.99 172.033 44.246 172.242 44.5148 172.396C44.7835 172.55 45.0538 172.626 45.3256 172.626C45.5918 172.62 45.8427 172.508 46.0784 172.292C46.3023 172.086 46.3852 171.848 46.3271 171.576C46.263 171.31 46.1414 171.032 45.9622 170.742C45.7772 170.446 45.6096 170.156 45.4591 169.871C45.131 169.22 44.8724 168.564 44.6833 167.903C44.4885 167.237 44.4375 166.607 44.5305 166.013C44.6234 165.418 44.926 164.897 45.4382 164.448C46.0098 163.923 46.6751 163.626 47.4341 163.558C48.1872 163.494 48.9366 163.618 49.6822 163.93C50.4221 164.236 51.0633 164.703 51.6059 165.331Z" fill="white"/>
<path d="M39.9548 151.996L24.8057 159.715L19.7332 150.648L22.3735 149.303L26.0363 155.85L29.1094 154.284L26.2034 149.09L28.8437 147.744L31.7497 152.939L35.9049 150.822L32.2421 144.274L34.8824 142.929L39.9548 151.996Z" fill="white"/>
<path d="M33.1376 139.337L25.9254 136.988L21.4002 142.779L20.3053 139.414L22.9431 136.034L18.7593 134.662L17.6643 131.297L24.8305 133.623L29.3799 127.789L30.4748 131.154L27.793 134.596L32.0426 135.972L33.1376 139.337Z" fill="white"/>
<path d="M34.401 121.03L34.6983 123.872L16.3896 125.616L16.0923 122.774L17.6424 122.626C17.0493 122.299 16.553 121.875 16.1535 121.356C15.7452 120.831 15.502 120.195 15.424 119.45C15.3346 118.595 15.4182 117.783 15.6746 117.014C15.9311 116.244 16.327 115.552 16.8626 114.936C17.3891 114.313 18.0227 113.81 18.7632 113.426C19.503 113.034 20.3163 112.795 21.2033 112.711C22.0902 112.626 22.9409 112.706 23.7554 112.95C24.5691 113.186 25.3026 113.559 25.9559 114.07C26.6003 114.573 27.1279 115.178 27.5387 115.884C27.9495 116.589 28.1995 117.37 28.2889 118.224C28.3669 118.969 28.2643 119.638 27.981 120.23C27.6888 120.814 27.2859 121.323 26.7724 121.756L34.401 121.03ZM18.296 119.211C18.3577 119.801 18.5757 120.314 18.95 120.749C19.3161 121.185 19.7814 121.509 20.3461 121.722C20.9108 121.935 21.5186 122.01 22.1696 121.948C22.8206 121.886 23.4049 121.697 23.9224 121.381C24.4319 121.066 24.8249 120.66 25.1017 120.163C25.3703 119.667 25.4737 119.123 25.412 118.533C25.3494 117.935 25.1335 117.403 24.7641 116.936C24.3948 116.469 23.9262 116.114 23.3582 115.87C22.7822 115.627 22.1646 115.537 21.5055 115.6C20.8545 115.662 20.2759 115.866 19.7697 116.212C19.2635 116.558 18.8778 116.995 18.6124 117.522C18.3381 118.042 18.2326 118.605 18.296 119.211Z" fill="white"/>
<path d="M28.1719 102.588C28.0526 103.659 27.6549 104.607 26.979 105.433C26.304 106.252 25.4491 106.875 24.4145 107.304C23.3808 107.725 22.2743 107.875 21.0952 107.756C20.2088 107.666 19.3962 107.43 18.6574 107.049C17.9105 106.667 17.2737 106.183 16.747 105.596C16.213 105 15.8187 104.332 15.564 103.592C15.3092 102.852 15.2264 102.082 15.3155 101.283C15.4166 100.375 15.7124 99.5654 16.2029 98.8539C16.6861 98.1338 17.3068 97.5454 18.0649 97.0887C18.823 96.6319 19.6627 96.3286 20.584 96.1788C21.5053 96.029 22.4466 96.0696 23.4077 96.3005L22.4596 104.81C22.9271 104.747 23.3576 104.611 23.7512 104.399C24.1367 104.187 24.4604 103.902 24.7223 103.544C24.9761 103.186 25.1339 102.766 25.1956 102.286C25.2591 101.79 25.1873 101.327 24.9801 100.898C24.7658 100.461 24.4541 100.084 24.0453 99.7674L25.0757 96.9407C26.1045 97.5238 26.9122 98.32 27.4987 99.3291C28.0772 100.337 28.3016 101.424 28.1719 102.588ZM20.217 104.677L20.8551 98.9493C20.3577 98.9851 19.8983 99.123 19.4768 99.3627C19.0481 99.5939 18.6934 99.8993 18.4126 100.279C18.1318 100.659 17.9655 101.081 17.9136 101.547C17.8617 102.012 17.9316 102.455 18.1234 102.875C18.307 103.294 18.5824 103.663 18.9497 103.983C19.3098 104.294 19.7322 104.525 20.217 104.677Z" fill="white"/>
<path d="M29.5171 92.1938L17.7075 89.0284L18.5197 86.2792L19.5738 86.5507C19.262 86.0533 19.0628 85.5051 18.9764 84.9061C18.8821 84.305 18.9259 83.6965 19.1079 83.0806C19.2299 82.6675 19.4149 82.2713 19.6629 81.892L22.2477 83.7551C22.0453 84.0088 21.902 84.2783 21.8176 84.5638C21.6867 85.0069 21.681 85.4433 21.8005 85.8727C21.9144 86.2926 22.132 86.6633 22.4533 86.9849C22.7689 87.2969 23.159 87.5153 23.6233 87.6403L30.3293 89.4446L29.5171 92.1938Z" fill="white"/>
<path d="M21.4776 77.5829L22.6063 74.9375L33.9671 79.3522L32.8383 81.9977L21.4776 77.5829ZM20.5856 75.669C20.4191 76.0593 20.1462 76.3367 19.767 76.5011C19.3803 76.6626 18.9824 76.6639 18.5734 76.505C18.172 76.349 17.892 76.0843 17.7335 75.7109C17.5749 75.3375 17.5774 74.9593 17.7408 74.5762C17.9043 74.1931 18.1778 73.9244 18.5615 73.7702C18.9483 73.6087 19.3424 73.606 19.7438 73.7619C20.1528 73.9209 20.4381 74.1834 20.5997 74.5496C20.7538 74.9128 20.7491 75.2859 20.5856 75.669Z" fill="white"/>
<path d="M38.526 71.2289C37.9553 72.1581 37.1838 72.8663 36.2114 73.3536C35.2432 73.8342 34.1952 74.0667 33.0674 74.0509C31.9438 74.0284 30.8704 73.7311 29.8475 73.1588C29.0785 72.7286 28.4395 72.1948 27.9306 71.5573C27.4146 70.9158 27.0432 70.2241 26.8164 69.4821C26.5868 68.7295 26.5155 67.9659 26.6025 67.1914C26.6896 66.4169 26.9461 65.6829 27.3721 64.9895C27.8559 64.2017 28.4748 63.58 29.2286 63.1242C29.9796 62.6578 30.799 62.3654 31.687 62.2469C32.5749 62.1285 33.471 62.182 34.3752 62.4074C35.2795 62.6328 36.1198 63.0395 36.8961 63.6276L32.3616 71.0101C32.8146 71.1368 33.266 71.1813 33.7158 71.1434C34.1585 71.1016 34.5765 70.969 34.9696 70.7457C35.3556 70.5184 35.6804 70.198 35.9439 69.7845C36.2156 69.3576 36.3496 68.9079 36.3459 68.4354C36.3394 67.9523 36.2179 67.4863 35.9817 67.0376L38.1401 64.8662C38.8261 65.8018 39.2188 66.8447 39.3181 67.9948C39.4103 69.141 39.1463 70.219 38.526 71.2289ZM30.3754 70.0075L33.4273 65.0387C32.9585 64.876 32.4804 64.8211 31.9929 64.8741C31.5024 64.9163 31.0474 65.0553 30.6278 65.2909C30.2081 65.5266 29.8742 65.8464 29.6261 66.2504C29.378 66.6543 29.2508 67.0852 29.2445 67.5431C29.2311 67.9969 29.3228 68.4418 29.5196 68.8775C29.7135 69.3026 29.9988 69.6793 30.3754 70.0075Z" fill="white"/>
<path d="M45.8499 49.1969L51.6513 54.1044L49.666 56.2419L44.4521 51.8314C44.091 51.526 43.6849 51.3337 43.2339 51.2546C42.7767 51.1703 42.3296 51.1988 41.8924 51.34C41.4546 51.4702 41.0756 51.7076 40.7556 52.0522C40.4356 52.3968 40.2314 52.7872 40.1431 53.2235C40.054 53.6488 40.0808 54.0729 40.2234 54.4959C40.3652 54.908 40.6167 55.2667 40.9778 55.5721L46.1917 59.9826L44.2064 62.1201L35.0187 54.3639L37.0041 52.2264L37.8292 52.9087C37.7754 52.3313 37.8462 51.7551 38.0416 51.1799C38.2309 50.5996 38.5479 50.07 38.9927 49.5911C39.584 48.9545 40.2889 48.5132 41.1076 48.2671C41.9201 48.0159 42.7455 47.9684 43.5838 48.1248C44.4213 48.2701 45.1767 48.6275 45.8499 49.1969Z" fill="white"/>
<path d="M58.6974 43.8523L61.7249 43.3771C61.7493 44.2869 61.5679 45.166 61.1808 46.0146C60.7937 46.8633 60.2025 47.5814 59.4071 48.169C58.5148 48.8284 57.5223 49.2113 56.4297 49.3178C55.3436 49.4195 54.2828 49.2657 53.2474 48.8562C52.2134 48.4358 51.3334 47.7782 50.6075 46.8834C50.0568 46.2046 49.6698 45.479 49.4464 44.7064C49.218 43.9277 49.1434 43.1537 49.2226 42.3845C49.3033 41.6044 49.5353 40.8704 49.9184 40.1827C50.3016 39.4949 50.8262 38.905 51.4922 38.4129C52.2876 37.8252 53.1641 37.4588 54.122 37.3137C55.0798 37.1685 56.0221 37.2274 56.9489 37.4901L55.7012 40.159C55.2746 40.0794 54.8511 40.0863 54.4305 40.1799C54.0165 40.2687 53.6478 40.4325 53.3245 40.6714C52.8589 41.0154 52.5388 41.4494 52.364 41.9733C52.1842 42.4911 52.1471 43.0317 52.2526 43.5953C52.3532 44.1527 52.5937 44.6658 52.9742 45.1348C53.3496 45.5976 53.81 45.9484 54.3553 46.1871C54.8955 46.4195 55.4508 46.5176 56.0211 46.4811C56.5913 46.4447 57.1093 46.2545 57.5748 45.9105C57.9111 45.6621 58.1761 45.3577 58.3698 44.9974C58.5586 44.6309 58.6678 44.2492 58.6974 43.8523Z" fill="white"/>
<path d="M72.1389 40.343C71.1308 40.827 70.0798 41.0214 68.9861 40.9263C67.8997 40.8276 66.8876 40.4792 65.9498 39.8811C65.0193 39.2795 64.2877 38.4732 63.7548 37.4623C63.3542 36.7024 63.1218 35.9229 63.0576 35.1238C62.9897 34.3177 63.0718 33.5445 63.3039 32.804C63.5397 32.0531 63.9147 31.3751 64.4288 30.7701C64.9429 30.1651 65.5762 29.682 66.3286 29.3207C67.1833 28.9104 68.0569 28.7094 68.9493 28.7178C69.8453 28.7157 70.6997 28.8952 71.5125 29.2562C72.3253 29.6173 73.0471 30.1269 73.6778 30.7851C74.3085 31.4433 74.7823 32.2205 75.0991 33.1167L67.0888 36.9624C67.3969 37.3037 67.7505 37.5751 68.1497 37.7766C68.5451 37.9711 68.9715 38.0766 69.4287 38.093C69.8822 38.1024 70.3372 38.0019 70.7938 37.7914C71.2651 37.5739 71.6336 37.2659 71.8996 36.8674C72.1692 36.4584 72.3326 36.0043 72.3898 35.5051L75.4381 34.8017C75.4812 35.9428 75.217 37.0219 74.6455 38.0389C74.0702 39.0489 73.2347 39.8169 72.1389 40.343ZM65.9923 35.0908L71.3837 32.5024C71.0828 32.1227 70.7127 31.8286 70.2733 31.6202C69.8375 31.4014 69.3764 31.282 68.89 31.2622C68.4035 31.2424 67.9411 31.3378 67.5028 31.5482C67.0645 31.7586 66.7123 32.0544 66.4463 32.4354C66.1767 32.8095 66.0004 33.2305 65.9175 33.6984C65.8382 34.1558 65.8631 34.6199 65.9923 35.0908Z" fill="white"/>
<path d="M89.8796 23.5266L88.0106 22.6922L88.9044 20.8811L86.8465 20.654L87.0724 18.6923L89.159 18.9379L88.7641 16.9957L90.7872 16.6211L91.1821 18.5633L92.997 17.5952L93.9993 19.3294L92.1557 20.279L93.6944 21.6397L92.288 23.0806L90.771 21.704L89.8796 23.5266Z" fill="white"/>
</svg>
