<svg width="270" height="270" viewBox="0 0 270 270" fill="none" xmlns="http://www.w3.org/2000/svg">
<path fill-rule="evenodd" clip-rule="evenodd" d="M65.2536 204.746V207.209C65.2536 212.587 69.66 216.994 75.0384 216.994H75.5136V217.037H88.8624C81.972 252.612 125.95 246.002 134.957 270C143.964 246.002 187.942 252.612 181.051 217.037H192.65V216.994H194.962C200.34 216.994 204.746 212.587 204.746 207.209V204.746H207.209C212.587 204.746 216.994 200.362 216.994 194.962V194.486H217.015V181.159C252.59 188.05 246.002 144.072 270 135.043C246.002 126.036 252.59 82.0584 217.015 88.9488V77.3496H216.994V75.0384C216.994 69.66 212.587 65.2752 207.209 65.2752H204.746V62.8128C204.746 57.4344 200.34 53.028 194.962 53.028H192.65V52.9848H181.051C187.942 17.4096 143.964 24.0192 134.957 0C125.95 24.0192 81.972 17.4096 88.8624 52.9848H75.5136V53.028H75.0384C69.66 53.028 65.2536 57.4344 65.2536 62.8128V65.2752H62.7912C57.4128 65.2752 53.0064 69.66 53.0064 75.0384V77.3496H52.9848V88.9488C17.4096 82.0584 23.9976 126.036 0 135.043C23.9976 144.072 17.4096 188.05 52.9848 181.159V194.486H53.0064V194.962C53.0064 200.362 57.4128 204.746 62.7912 204.746H65.2536Z" fill="#133D3C" fill-opacity="0.04"/>
</svg>
