<svg width="225" height="224" viewBox="0 0 225 224" fill="none" xmlns="http://www.w3.org/2000/svg">
<path d="M106.231 2.10269C110.603 -1.39665 117.314 -0.242666 121.2 3.46224C128.921 11.1711 136.642 18.8799 144.353 26.5934C146.336 28.7565 149.446 29.5134 152.285 29.4807C163.05 29.49 173.815 29.49 184.58 29.4807C187.419 29.4573 190.314 30.3637 192.535 32.1531C194.995 34.1807 195.677 37.5539 195.682 40.5954C195.687 51.1915 195.682 61.7923 195.687 72.3931C195.635 75.0936 196.524 77.78 197.922 80.0646C205.825 88.0537 213.808 95.9635 221.758 103.906C224.129 106.032 225.195 109.405 224.971 112.526C224.339 116.133 222.562 119.594 219.887 122.127C212.639 129.368 205.376 136.605 198.142 143.861C196.398 145.529 195.649 148.028 195.687 150.397C195.663 161.937 195.724 173.477 195.654 185.017C194.611 190.193 189.808 194.179 184.608 194.678C175.241 194.697 165.874 194.678 156.507 194.688C153.458 194.585 150.386 194.847 147.398 195.403C145.939 195.823 144.929 197.014 143.89 198.042C137.184 204.747 130.478 211.456 123.763 218.151C120.826 221.005 117.197 223.617 113.007 224C108.144 223.762 104.304 220.29 101.087 216.969C94.3902 210.283 87.7122 203.579 80.9969 196.912C79.2525 195.104 76.6103 194.678 74.2066 194.697C63.1328 194.683 52.059 194.678 40.9852 194.697C35.8083 194.949 30.5894 190.791 30.3696 185.47C30.3416 172.412 30.3696 159.358 30.3556 146.3C21.1196 137.082 11.8976 127.845 2.6523 118.632C0.510482 116.824 -0.0881033 113.801 0.0101021 111.129C0.0428373 108.98 1.15116 107.017 2.65697 105.546C10.7613 97.4445 18.8702 89.3479 26.9792 81.2513C28.1343 80.0879 29.4671 78.9433 29.9347 77.3128C30.4211 75.5561 30.3088 73.7153 30.3509 71.9119C30.3696 60.8533 30.3462 49.7993 30.3509 38.7406C30.3135 36.414 31.2114 34.1107 32.7078 32.34C34.4288 30.4478 37.0336 29.4527 39.5729 29.4807C51.264 29.49 62.9598 29.49 74.6556 29.4807C76.2736 29.6068 77.6766 28.7098 79.1684 28.2519C80.1738 27.9856 80.9688 27.2942 81.689 26.584C89.8774 18.4314 98.0191 10.232 106.231 2.10269Z" fill="#F9F9F9"/>
</svg>
