<svg width="225" height="225" viewBox="0 0 225 225" fill="none" xmlns="http://www.w3.org/2000/svg">
<path d="M225 112.5C225 98.1615 213.363 86.5245 199.024 86.5245H175.205L192.063 69.6664C202.219 59.5099 202.219 43.0674 192.063 32.937C181.907 22.8065 165.464 22.7805 155.334 32.937L138.476 49.7951V25.9755C138.476 11.637 126.838 0 112.5 0C98.1615 0 86.5245 11.637 86.5245 25.9755V49.7951L69.6664 32.937C59.5099 22.7805 43.0674 22.7805 32.937 32.937C22.8065 43.0934 22.7805 59.5359 32.937 69.6664L49.7951 86.5245H25.9755C11.637 86.5245 0 98.1615 0 112.5C0 126.839 11.637 138.476 25.9755 138.476H49.7951L32.937 155.334C22.7805 165.49 22.7805 181.933 32.937 192.063C43.0934 202.219 59.5359 202.219 69.6664 192.063L86.5245 175.205V199.024C86.5245 213.363 98.1615 225 112.5 225C126.838 225 138.476 213.363 138.476 199.024V175.205L155.334 192.063C165.49 202.219 181.933 202.219 192.063 192.063C202.219 181.907 202.219 165.464 192.063 155.334L175.205 138.476H199.024C213.363 138.476 225 126.839 225 112.5Z" fill="#F9F9F9"/>
</svg>
