<svg width="225" height="225" viewBox="0 0 225 225" fill="none" xmlns="http://www.w3.org/2000/svg">
<path d="M214.307 90.3655C203.919 82.1228 198.623 69.3373 200.14 56.1613C201.131 47.5426 198.183 39.0817 192.05 32.9502C185.914 26.8157 177.454 23.867 168.837 24.8601C155.657 26.3748 142.876 21.0816 134.634 10.6941C129.242 3.8975 121.175 0 112.5 0C103.825 0 95.7579 3.8975 90.3655 10.6933C82.1228 21.08 69.3419 26.3748 56.1644 24.8608C47.5457 23.8655 39.0848 26.8157 32.951 32.9495C26.8165 39.0818 23.8678 47.5426 24.8593 56.1629C26.3764 69.3365 21.0808 82.122 10.691 90.3662C3.8975 95.7587 0 103.826 0 112.5C0 121.173 3.89673 129.241 10.6926 134.634C21.0808 142.878 26.3764 155.663 24.8593 168.839C23.8678 177.457 26.8165 185.918 32.9495 192.05C39.0848 198.184 47.5518 201.135 56.1621 200.14C69.3373 198.624 82.1228 203.918 90.3655 214.306C95.7572 221.102 103.824 225 112.5 225C121.175 225 129.242 221.102 134.634 214.307C142.878 203.92 155.659 198.626 168.836 200.139C177.455 201.13 185.915 198.184 192.049 192.051C198.184 185.918 201.132 177.457 200.141 168.838C198.624 155.663 203.92 142.877 214.309 134.634C221.103 129.241 225 121.174 225 112.5C225 103.825 221.102 95.7587 214.307 90.3655Z" fill="#F9F9F9"/>
</svg>
