<svg width="270" height="270" viewBox="0 0 270 270" fill="none" xmlns="http://www.w3.org/2000/svg">
<path d="M127.477 2.52562C132.724 -1.67757 140.777 -0.291475 145.44 4.15863C154.705 13.418 163.97 22.6774 173.224 31.9424C175.603 34.5406 179.335 35.4497 182.742 35.4104C195.66 35.4216 208.578 35.4216 221.496 35.4104C224.903 35.3824 228.376 36.471 231.042 38.6203C233.994 41.0558 234.813 45.1075 234.819 48.7607C234.824 61.4882 234.819 74.2212 234.824 86.9542C234.762 90.1978 235.829 93.4246 237.507 96.1687C246.99 105.765 256.57 115.265 266.11 124.805C268.955 127.359 270.234 131.41 269.965 135.159C269.207 139.491 267.075 143.65 263.865 146.691C255.167 155.389 246.452 164.082 237.77 172.797C235.677 174.8 234.779 177.803 234.824 180.648C234.796 194.509 234.869 208.37 234.785 222.231C233.533 228.449 227.77 233.235 221.53 233.836C210.29 233.858 199.049 233.836 187.809 233.847C184.15 233.724 180.463 234.038 176.877 234.706C175.126 235.211 173.914 236.642 172.669 237.876C164.621 245.929 156.574 253.988 148.516 262.029C144.991 265.458 140.637 268.595 135.609 269.055C129.772 268.769 125.165 264.599 121.304 260.609C113.268 252.579 105.255 244.526 97.1962 236.518C95.1031 234.347 91.9324 233.836 89.048 233.858C75.7594 233.842 62.4708 233.836 49.1822 233.858C42.97 234.161 36.7073 229.167 36.4435 222.775C36.4099 207.09 36.4435 191.411 36.4267 175.726C25.3435 164.654 14.2772 153.56 3.18276 142.494C0.612579 140.322 -0.105724 136.691 0.0121225 133.481C0.0514047 130.9 1.38139 128.543 3.18837 126.775C12.9135 117.044 22.6443 107.319 32.375 97.5941C33.7611 96.1968 35.3605 94.8219 35.9216 92.8634C36.5053 90.7534 36.3706 88.5424 36.4211 86.3762C36.4435 73.0932 36.4155 59.8159 36.4211 46.5329C36.3762 43.7382 37.4537 40.9716 39.2494 38.8448C41.3145 36.572 44.4403 35.3767 47.4874 35.4104C61.5168 35.4216 75.5518 35.4216 89.5867 35.4104C91.5284 35.5619 93.2119 34.4845 95.002 33.9345C96.2086 33.6147 97.1626 32.7841 98.0268 31.9311C107.853 22.1386 117.623 12.29 127.477 2.52562Z" fill="#133D3C" fill-opacity="0.04"/>
</svg>
