<svg width="270" height="270" viewBox="0 0 270 270" fill="none" xmlns="http://www.w3.org/2000/svg">
<path d="M257.168 108.439C244.703 98.5473 238.347 83.2048 240.168 67.3936C241.358 57.0511 237.819 46.8981 230.46 39.5403C223.097 32.1788 212.945 28.6404 202.605 29.8321C186.788 31.6498 171.452 25.2979 161.56 12.8329C155.09 4.677 145.41 0 135 0C124.59 0 114.91 4.677 108.439 12.832C98.5473 25.2961 83.2103 31.6498 67.3973 29.833C57.0548 28.6386 46.9018 32.1788 39.5412 39.5394C32.1797 46.8981 28.6413 57.0511 29.8312 67.3954C31.6516 83.2039 25.297 98.5464 12.8292 108.44C4.677 114.91 0 124.591 0 135C0 145.408 4.67608 155.089 12.8311 161.561C25.297 171.454 31.6516 186.795 29.8312 202.606C28.6413 212.949 32.1798 223.102 39.5394 230.46C46.9018 237.821 57.0621 241.361 67.3945 240.168C83.2048 238.348 98.5473 244.702 108.439 257.167C114.909 265.322 124.589 270 135 270C145.41 270 155.09 265.323 161.561 257.168C171.454 244.704 186.791 238.351 202.603 240.167C212.946 241.356 223.098 237.821 230.459 230.461C237.82 223.102 241.359 212.949 240.169 202.605C238.348 186.796 244.704 171.453 257.171 161.56C265.323 155.09 270 145.409 270 135C270 124.59 265.322 114.91 257.168 108.439Z" fill="#133D3C" fill-opacity="0.04"/>
</svg>
