<svg width="270" height="270" viewBox="0 0 270 270" fill="none" xmlns="http://www.w3.org/2000/svg">
<path d="M270 135C270 117.794 256.036 103.829 238.829 103.829H210.246L230.476 83.5996C242.663 71.4119 242.663 51.6809 230.476 39.5244C218.288 27.3678 198.557 27.3366 186.4 39.5244L166.171 59.7541V31.1706C166.171 13.9644 152.206 0 135 0C117.794 0 103.829 13.9644 103.829 31.1706V59.7541L83.5996 39.5244C71.4119 27.3366 51.6809 27.3366 39.5244 39.5244C27.3678 51.7121 27.3366 71.4431 39.5244 83.5996L59.7541 103.829H31.1706C13.9644 103.829 0 117.794 0 135C0 152.206 13.9644 166.171 31.1706 166.171H59.7541L39.5244 186.4C27.3366 198.588 27.3366 218.319 39.5244 230.476C51.7121 242.663 71.4431 242.663 83.5996 230.476L103.829 210.246V238.829C103.829 256.036 117.794 270 135 270C152.206 270 166.171 256.036 166.171 238.829V210.246L186.4 230.476C198.588 242.663 218.319 242.663 230.476 230.476C242.663 218.288 242.663 198.557 230.476 186.4L210.246 166.171H238.829C256.036 166.171 270 152.206 270 135Z" fill="#133D3C" fill-opacity="0.04"/>
</svg>
