<svg width="225" height="225" viewBox="0 0 225 225" fill="none" xmlns="http://www.w3.org/2000/svg">
<path d="M223.564 110.399L204.372 98.7622C203.735 98.376 203.123 97.4632 202.995 96.7288C202.75 95.3267 202.469 93.9373 202.159 92.557C201.996 91.8288 202.214 90.7531 202.656 90.1532L215.965 72.0664C217.29 70.2644 216.572 68.5249 214.361 68.1824L192.184 64.7485C191.446 64.6343 190.533 64.0248 190.133 63.395C189.331 62.1336 188.496 60.8973 187.635 59.6784C187.205 59.0689 186.993 57.9936 187.169 57.2684L192.518 35.4462C193.051 33.2719 191.72 31.9434 189.547 32.4747L167.724 37.8233C166.999 38.0014 165.922 37.7873 165.314 37.3574C164.159 36.5415 162.987 35.7523 161.794 34.9896C161.166 34.5878 160.559 33.6733 160.447 32.9359L157.069 10.7494C156.733 8.53791 154.995 7.8158 153.19 9.13666L135.071 22.3966C134.469 22.8372 133.393 23.0517 132.665 22.8873C131.211 22.5594 129.745 22.2606 128.267 22.0024C127.532 21.8745 126.621 21.2631 126.234 20.6252L114.6 1.43483C113.44 -0.478276 111.559 -0.478276 110.399 1.43483L98.7622 20.6264C98.376 21.2642 97.4631 21.8756 96.7288 22.0036C95.3267 22.2491 93.9373 22.5303 92.557 22.8398C91.8288 23.0026 90.7531 22.7851 90.1532 22.343L72.068 9.03591C70.266 7.71045 68.5264 8.42796 68.1839 10.6399L64.75 32.8153C64.6358 33.5531 64.0263 34.4659 63.3966 34.8659C62.1355 35.6681 60.8977 36.5024 59.6799 37.3639C59.0704 37.7938 57.9951 38.0064 57.27 37.8298L35.4482 32.4801C33.2738 31.9468 31.9453 33.2772 32.4766 35.4512L37.8252 57.2734C38.0037 57.999 37.7892 59.0754 37.3594 59.6838C36.5453 60.8387 35.7546 62.0106 34.9915 63.2035C34.5897 63.8321 33.6753 64.4385 32.9378 64.5512L10.7498 67.9284C8.53829 68.2644 7.81618 70.0024 9.13704 71.8079L22.397 89.9257C22.8375 90.5275 23.0521 91.6028 22.8877 92.331C22.5598 93.7844 22.261 95.2505 22.0028 96.7292C21.8749 97.4635 21.2635 98.3749 20.6256 98.7626L1.43483 110.399C-0.478276 111.558 -0.478276 113.44 1.43483 114.6L20.6264 126.236C21.2642 126.622 21.8756 127.535 22.0036 128.27C22.2491 129.672 22.5303 131.061 22.8398 132.441C23.0026 133.17 22.7851 134.245 22.343 134.845L9.034 152.932C7.70854 154.734 8.42605 156.473 10.6376 156.816L32.8149 160.25C33.5527 160.364 34.4656 160.973 34.8655 161.603C35.6677 162.864 36.502 164.102 37.3636 165.32C37.7934 165.929 38.006 167.005 37.8294 167.73L32.4801 189.552C31.9468 191.726 33.2772 193.055 35.4512 192.523L57.2734 187.175C57.999 186.996 59.0754 187.211 59.6834 187.641C60.8387 188.457 62.0106 189.245 63.2031 190.009C63.8317 190.41 64.4382 191.325 64.5508 192.062L67.928 214.255C68.264 216.466 70.002 217.188 71.8075 215.868L89.9268 202.608C90.5286 202.167 91.6039 201.951 92.3322 202.117C93.786 202.445 95.2516 202.744 96.7303 203.002C97.4647 203.13 98.376 203.741 98.7637 204.379L110.4 223.571C111.56 225.484 113.441 225.484 114.601 223.571L126.238 204.379C126.624 203.741 127.537 203.13 128.271 203.002C129.673 202.756 131.063 202.475 132.443 202.166C133.171 202.003 134.247 202.22 134.847 202.663L152.934 215.969C154.736 217.297 156.475 216.578 156.818 214.367L160.252 192.191C160.366 191.453 160.975 190.54 161.605 190.14C162.866 189.338 164.104 188.503 165.322 187.642C165.931 187.212 167.006 186.999 167.732 187.176L189.554 192.525C191.728 193.057 193.057 191.727 192.525 189.553L187.177 167.731C186.999 167.006 187.213 165.929 187.643 165.321C188.457 164.166 189.248 162.994 190.01 161.801C190.412 161.173 191.327 160.566 192.064 160.454L214.257 157.076C216.468 156.739 217.19 155.002 215.87 153.197L202.61 135.077C202.169 134.476 201.955 133.4 202.119 132.672C202.447 131.219 202.746 129.753 203.004 128.274C203.132 127.54 203.743 126.628 204.381 126.241L223.573 114.604C225.477 113.44 225.477 111.558 223.564 110.399Z" fill="#F9F9F9"/>
</svg>
