<svg width="270" height="270" viewBox="0 0 270 270" fill="none" xmlns="http://www.w3.org/2000/svg">
<path d="M268.277 132.478L245.247 118.515C244.482 118.051 243.748 116.956 243.594 116.075C243.3 114.392 242.962 112.725 242.59 111.068C242.396 110.195 242.657 108.904 243.187 108.184L259.157 86.4797C260.748 84.3173 259.887 82.2298 257.233 81.8189L230.62 77.6981C229.735 77.5612 228.64 76.8298 228.159 76.074C227.197 74.5603 226.196 73.0768 225.162 71.6141C224.646 70.8827 224.391 69.5923 224.603 68.7221L231.021 42.5355C231.661 39.9263 230.065 38.332 227.456 38.9696L201.269 45.3879C200.399 45.6017 199.106 45.3447 198.377 44.8289C196.991 43.8498 195.584 42.9028 194.153 41.9875C193.399 41.5053 192.671 40.408 192.536 39.5231L188.483 12.8993C188.08 10.2455 185.994 9.37896 183.828 10.964L162.085 26.8759C161.362 27.4046 160.072 27.662 159.198 27.4648C157.454 27.0713 155.694 26.7127 153.92 26.4029C153.039 26.2494 151.946 25.5157 151.48 24.7503L137.52 1.72179C136.128 -0.573931 133.87 -0.573931 132.478 1.72179L118.515 24.7517C118.051 25.5171 116.956 26.2507 116.075 26.4043C114.392 26.6989 112.725 27.0364 111.068 27.4078C110.195 27.6032 108.904 27.3421 108.184 26.8116L86.4816 10.8431C84.3192 9.25254 82.2317 10.1136 81.8207 12.7678L77.7 39.3783C77.563 40.2637 76.8316 41.3591 76.0759 41.8391C74.5626 42.8017 73.0773 43.8029 71.6159 44.8367C70.8845 45.3525 69.5942 45.6076 68.724 45.3957L42.5378 38.9761C39.9286 38.3362 38.3343 39.9327 38.9719 42.5415L45.3902 68.7281C45.6044 69.5988 45.347 70.8905 44.8312 71.6205C43.8544 73.0065 42.9056 74.4127 41.9898 75.8442C41.5076 76.5986 40.4103 77.3263 39.5254 77.4614L12.8998 81.5141C10.2459 81.9172 9.37942 84.0029 10.9645 86.1694L26.8764 107.911C27.405 108.633 27.6625 109.923 27.4653 110.797C27.0718 112.541 26.7132 114.301 26.4034 116.075C26.2498 116.956 25.5162 118.05 24.7508 118.515L1.72179 132.478C-0.573931 133.87 -0.573931 136.128 1.72179 137.52L24.7517 151.484C25.5171 151.947 26.2507 153.042 26.4043 153.924C26.6989 155.606 27.0364 157.273 27.4078 158.93C27.6032 159.804 27.3421 161.094 26.8116 161.814L10.8408 183.518C9.25025 185.68 10.1113 187.768 12.7651 188.179L39.3778 192.3C40.2632 192.437 41.3587 193.168 41.8386 193.924C42.8012 195.437 43.8024 196.922 44.8363 198.384C45.3521 199.115 45.6072 200.405 45.3953 201.276L38.9761 227.462C38.3362 230.071 39.9327 231.666 42.5415 231.028L68.7281 224.61C69.5988 224.396 70.8905 224.653 71.62 225.169C73.0065 226.148 74.4127 227.095 75.8437 228.01C76.5981 228.492 77.3258 229.59 77.4609 230.475L81.5136 257.106C81.9168 259.76 84.0024 260.626 86.169 259.042L107.912 243.129C108.634 242.601 109.925 242.342 110.799 242.541C112.543 242.934 114.302 243.293 116.076 243.602C116.958 243.756 118.051 244.489 118.516 245.255L132.48 268.285C133.872 270.581 136.13 270.581 137.522 268.285L151.485 245.255C151.949 244.489 153.044 243.756 153.926 243.602C155.608 243.308 157.275 242.97 158.932 242.599C159.805 242.404 161.096 242.664 161.816 243.195L183.52 259.163C185.683 260.756 187.77 259.893 188.181 257.241L192.302 230.629C192.439 229.743 193.17 228.648 193.926 228.167C195.44 227.205 196.925 226.204 198.386 225.17C199.117 224.654 200.408 224.399 201.278 224.611L227.465 231.03C230.074 231.669 231.668 230.073 231.03 227.464L224.612 201.277C224.398 200.407 224.655 199.115 225.171 198.385C226.148 196.999 227.097 195.592 228.013 194.161C228.495 193.407 229.592 192.68 230.477 192.545L257.109 188.491C259.762 188.086 260.628 186.003 259.044 183.837L243.132 162.093C242.603 161.371 242.346 160.08 242.543 159.207C242.937 157.462 243.295 155.703 243.605 153.929C243.759 153.047 244.492 151.954 245.257 151.489L268.287 137.525C270.573 136.128 270.573 133.87 268.277 132.478Z" fill="#133D3C" fill-opacity="0.04"/>
</svg>
