<svg width="225" height="232" viewBox="0 0 225 232" fill="none" xmlns="http://www.w3.org/2000/svg">
<path d="M0.167974 149.61C-0.155656 150.812 -0.016958 152.06 0.630302 153.123L23.9779 193.577C25.2724 195.796 28.0926 196.536 30.3118 195.288L84.4043 164.034V226.541C84.4043 229.084 86.4848 231.164 89.0276 231.164H135.769C138.312 231.164 140.392 229.084 140.392 226.541V164.034L194.485 195.288C195.548 195.889 196.843 196.074 197.998 195.75C199.201 195.426 200.218 194.64 200.819 193.577L224.166 153.123C225.461 150.904 224.675 148.084 222.502 146.836L168.363 115.582L222.502 84.3288C223.519 83.7277 224.305 82.7106 224.629 81.5086C224.952 80.3527 224.767 79.0582 224.166 77.9949L200.819 37.5411C199.524 35.3219 196.704 34.5822 194.485 35.8767L140.392 67.0839V4.62329C140.392 2.08048 138.312 0 135.769 0H89.0276C86.4848 0 84.4043 2.08048 84.4043 4.62329V67.0839L30.3118 35.8767C28.0926 34.5822 25.2724 35.3219 23.9779 37.5411L0.630302 77.9949C-0.016958 79.0582 -0.155656 80.3527 0.167974 81.5086C0.491604 82.7106 1.23133 83.7277 2.29469 84.3288L56.4334 115.582L2.29469 146.836C1.23133 147.437 0.491604 148.454 0.167974 149.61Z" fill="#F9F9F9"/>
</svg>
