<svg width="225" height="225" viewBox="0 0 225 225" fill="none" xmlns="http://www.w3.org/2000/svg">
<path fill-rule="evenodd" clip-rule="evenodd" d="M54.378 170.622V172.674C54.378 177.156 58.05 180.828 62.532 180.828H62.928V180.864H74.052C68.31 210.51 104.958 205.002 112.464 225C119.97 205.002 156.618 210.51 150.876 180.864H160.542V180.828H162.468C166.95 180.828 170.622 177.156 170.622 172.674V170.622H172.674C177.156 170.622 180.828 166.968 180.828 162.468V162.072H180.846V150.966C210.492 156.708 205.002 120.06 225 112.536C205.002 105.03 210.492 68.382 180.846 74.124V64.458H180.828V62.532C180.828 58.05 177.156 54.396 172.674 54.396H170.622V52.344C170.622 47.862 166.95 44.19 162.468 44.19H160.542V44.154H150.876C156.618 14.508 119.97 20.016 112.464 0C104.958 20.016 68.31 14.508 74.052 44.154H62.928V44.19H62.532C58.05 44.19 54.378 47.862 54.378 52.344V54.396H52.326C47.844 54.396 44.172 58.05 44.172 62.532V64.458H44.154V74.124C14.508 68.382 19.998 105.03 0 112.536C19.998 120.06 14.508 156.708 44.154 150.966V162.072H44.172V162.468C44.172 166.968 47.844 170.622 52.326 170.622H54.378Z" fill="#F9F9F9"/>
</svg>
