<svg width="263" height="270" viewBox="0 0 263 270" fill="none" xmlns="http://www.w3.org/2000/svg">
<path d="M0.196194 174.744C-0.181806 176.148 -0.0198069 177.606 0.736193 178.848L28.0062 226.098C29.5182 228.69 32.8122 229.554 35.4042 228.096L98.5842 191.592V264.6C98.5842 267.57 101.014 270 103.984 270H158.578C161.548 270 163.978 267.57 163.978 264.6V191.592L227.158 228.096C228.4 228.798 229.912 229.014 231.262 228.636C232.666 228.258 233.854 227.34 234.556 226.098L261.826 178.848C263.338 176.256 262.42 172.962 259.882 171.504L196.648 135L259.882 98.496C261.07 97.794 261.988 96.606 262.366 95.202C262.744 93.852 262.528 92.34 261.826 91.098L234.556 43.848C233.044 41.256 229.75 40.392 227.158 41.904L163.978 78.354V5.4C163.978 2.43 161.548 0 158.578 0H103.984C101.014 0 98.5842 2.43 98.5842 5.4V78.354L35.4042 41.904C32.8122 40.392 29.5182 41.256 28.0062 43.848L0.736193 91.098C-0.0198069 92.34 -0.181806 93.852 0.196194 95.202C0.574194 96.606 1.43819 97.794 2.68019 98.496L65.9142 135L2.68019 171.504C1.43819 172.206 0.574194 173.394 0.196194 174.744Z" fill="#133D3C" fill-opacity="0.04"/>
</svg>
