<svg width="24" height="18" viewBox="0 0 24 18" fill="none" xmlns="http://www.w3.org/2000/svg">
<path d="M21.8427 1.45588C23.191 2.91176 24 4.5 24 7.14706C24 11.7794 20.6292 15.8824 15.9101 18L14.6966 16.2794C19.1461 13.8971 20.0899 10.8529 20.3595 8.86765C19.6854 9.2647 18.7416 9.39706 17.7978 9.2647C15.3708 9 13.4831 7.14706 13.4831 4.63235C13.4831 3.44117 14.0225 2.25 14.8315 1.32353C15.7753 0.397057 16.8539 -1.28262e-06 18.2022 -1.40049e-06C19.6854 -1.53015e-06 21.0337 0.661761 21.8427 1.45588ZM8.35955 1.45588C9.70786 2.91176 10.5169 4.5 10.5169 7.14706C10.5169 11.7794 7.14607 15.8824 2.42697 18L1.21349 16.2794C5.66292 13.8971 6.60674 10.8529 6.8764 8.86765C6.20225 9.26471 5.25843 9.39706 4.31461 9.26471C1.88764 9 9.58554e-07 7.14706 7.38712e-07 4.63235C6.34576e-07 3.44118 0.539326 2.25 1.34831 1.32353C2.15731 0.397058 3.37079 -1.03886e-07 4.7191 -2.21759e-07C6.20225 -3.5142e-07 7.55056 0.661762 8.35955 1.45588Z" fill="#133D3C"/>
</svg>
