<svg width="10" height="7" viewBox="0 0 10 7" fill="none" xmlns="http://www.w3.org/2000/svg">
<path fill-rule="evenodd" clip-rule="evenodd" d="M7.71217 1.92647C8.04503 1.46014 8.67417 0.958126 9.5307 0.540204C9.75328 0.431597 9.65287 0.0949742 9.40716 0.126055C7.60752 0.353694 6.44108 1.14187 5.8041 2.31397C5.5672 2.74991 5.41835 3.21392 5.33909 3.68759C5.28682 3.9999 5.27302 4.23428 5.27302 4.50498C5.27302 5.71467 6.25366 6.69531 7.46335 6.69531C8.67304 6.69531 9.65368 5.71467 9.65368 4.50498C9.65368 3.2953 8.65739 2.31397 7.51249 2.31397C7.57289 2.14813 7.5874 2.10127 7.71217 1.92647ZM2.89345 1.92647C3.2263 1.46014 3.85545 0.958126 4.71197 0.540204C4.93456 0.431597 4.83415 0.0949742 4.58844 0.126055C2.7888 0.353694 1.62235 1.14187 0.985379 2.31397C0.74847 2.74991 0.599627 3.21392 0.520362 3.68759C0.468099 3.9999 0.454297 4.23428 0.454297 4.50498C0.454297 5.71467 1.43494 6.69531 2.64463 6.69531C3.85431 6.69531 4.83495 5.71467 4.83495 4.50498C4.83495 3.2953 3.83867 2.31397 2.69377 2.31397C2.75417 2.14813 2.76868 2.10127 2.89345 1.92647Z" fill="black"/>
</svg>
