<svg width="101" height="28" viewBox="0 0 101 28" fill="none" xmlns="http://www.w3.org/2000/svg">
<path d="M8.77012e-05 10.6999L11.1431 10.6999L14.5733 2.552e-06L18.0237 10.6999L29.1667 10.6794L20.1549 17.3001L23.6054 28L14.5936 21.3792L5.58174 28L9.01192 17.3001L8.77012e-05 10.6999Z" fill="#00B67A"/>
<path d="M8.24036 19.7186L9.01164 17.2998L14.573 21.3789L8.24036 19.7186Z" fill="#005128"/>
<path d="M33.1819 10L42.3747 10L42.3747 11.6635L38.7551 11.6635L38.7551 21.041L36.7712 21.041L36.7712 11.6635L33.1667 11.6635L33.1819 10ZM41.9809 13.0473L43.6771 13.0473L43.6771 14.5931L43.7074 14.5931C43.768 14.3722 43.874 14.1661 44.0255 13.96C44.1769 13.7539 44.3587 13.5626 44.5858 13.4006C44.7979 13.224 45.0402 13.0915 45.3128 12.9884C45.5702 12.8854 45.8428 12.8265 46.1154 12.8265C46.3275 12.8265 46.4789 12.8412 46.5546 12.8412C46.6304 12.8559 46.7212 12.8707 46.7969 12.8707L46.7969 14.5636C46.6758 14.5342 46.5395 14.5195 46.4032 14.5047C46.2669 14.49 46.1457 14.4753 46.0094 14.4753C45.7065 14.4753 45.4188 14.5342 45.1462 14.6519C44.8736 14.7697 44.6464 14.9464 44.4344 15.1672C44.2375 15.4027 44.0709 15.6824 43.9497 16.021C43.8286 16.3596 43.768 16.7571 43.768 17.1987L43.768 20.9968L41.9507 20.9968L41.9809 13.0473ZM55.1265 21.041L53.3394 21.041L53.3394 19.9222L53.3092 19.9222C53.082 20.3344 52.7488 20.6435 52.3096 20.8938C51.8704 21.1441 51.4161 21.2618 50.9617 21.2618C49.8865 21.2618 49.0989 21.0116 48.6143 20.4816C48.1297 19.9663 47.8874 19.1714 47.8874 18.1262L47.8874 13.0473L49.7047 13.0473L49.7047 17.9495C49.7047 18.6562 49.841 19.1567 50.1288 19.4364C50.4014 19.7308 50.7951 19.878 51.2949 19.878C51.6735 19.878 51.9916 19.8191 52.249 19.7014C52.5065 19.5836 52.7185 19.4364 52.87 19.245C53.0365 19.0536 53.1426 18.8181 53.2183 18.5531C53.294 18.2881 53.3243 17.9937 53.3243 17.6845L53.3243 13.0473L55.1417 13.0473L55.1417 21.041L55.1265 21.041ZM58.216 18.4795C58.2766 18.9947 58.4735 19.3481 58.8218 19.5689C59.1701 19.775 59.5942 19.878 60.0788 19.878C60.2454 19.878 60.4423 19.8633 60.6543 19.8339C60.8663 19.8044 61.0784 19.7603 61.2601 19.6866C61.457 19.613 61.6084 19.51 61.7296 19.3628C61.8507 19.2156 61.9113 19.0389 61.8962 18.8181C61.881 18.5973 61.8053 18.4059 61.6387 18.2587C61.4721 18.1115 61.2752 18.0084 61.0329 17.9054C60.7906 17.817 60.5029 17.7434 60.1848 17.6845C59.8668 17.6257 59.5488 17.5521 59.2156 17.4784C58.8824 17.4048 58.5492 17.3165 58.2312 17.2135C57.9131 17.1104 57.6405 16.9779 57.3831 16.7865C57.1408 16.6099 56.9287 16.3891 56.7924 16.1094C56.641 15.8297 56.5653 15.5058 56.5653 15.0936C56.5653 14.6519 56.6713 14.2986 56.8984 14.0042C57.1105 13.7098 57.3982 13.4742 57.7314 13.2976C58.0646 13.1209 58.4432 12.9884 58.8521 12.9148C59.261 12.8412 59.6548 12.8118 60.0182 12.8118C60.4423 12.8118 60.8512 12.8559 61.2298 12.9443C61.6084 13.0326 61.9719 13.1651 62.2748 13.3712C62.5928 13.5626 62.8503 13.8275 63.0472 14.1367C63.2592 14.4458 63.3804 14.8286 63.4409 15.2702L61.5478 15.2702C61.457 14.8433 61.2601 14.5636 60.9572 14.4164C60.6392 14.2692 60.2908 14.1956 59.8819 14.1956C59.7608 14.1956 59.5942 14.2103 59.4276 14.225C59.2459 14.2545 59.0944 14.2839 58.9278 14.3428C58.7764 14.4017 58.6401 14.49 58.5341 14.5931C58.4281 14.6961 58.3675 14.8433 58.3675 15.02C58.3675 15.2408 58.4432 15.4027 58.5946 15.5352C58.7461 15.6677 58.943 15.7708 59.2004 15.8738C59.4427 15.9621 59.7305 16.0358 60.0485 16.0946C60.3666 16.1535 60.6998 16.2271 61.0329 16.3007C61.3661 16.3743 61.6842 16.4627 62.0022 16.5657C62.3202 16.6688 62.608 16.8013 62.8503 16.9926C63.0926 17.1693 63.3046 17.3901 63.4561 17.6551C63.6075 17.9201 63.6832 18.2587 63.6832 18.6414C63.6832 19.1125 63.5772 19.51 63.3501 19.8486C63.1229 20.1725 62.8351 20.4522 62.4868 20.6583C62.1385 20.8644 61.7296 21.0116 61.3055 21.1146C60.8663 21.2029 60.4423 21.2618 60.0182 21.2618C59.5033 21.2618 59.0187 21.2029 58.5795 21.0852C58.1403 20.9674 57.7465 20.7907 57.4285 20.5699C57.1105 20.3344 56.853 20.0547 56.6713 19.7014C56.4895 19.3628 56.3835 18.9506 56.3684 18.4648L58.2009 18.4648L58.2009 18.4795L58.216 18.4795ZM64.1982 13.0473L65.5763 13.0473L65.5763 10.633L67.3937 10.633L67.3937 13.0326L69.0293 13.0326L69.0293 14.3428L67.3937 14.3428L67.3937 18.612C67.3937 18.8034 67.4088 18.9506 67.424 19.0978C67.4391 19.2303 67.4846 19.3481 67.53 19.4364C67.5906 19.5247 67.6814 19.5983 67.7875 19.6425C67.9086 19.6866 68.0601 19.7161 68.2721 19.7161C68.3932 19.7161 68.5295 19.7161 68.6507 19.7014C68.7719 19.6866 68.9082 19.6719 69.0293 19.6425L69.0293 21.0116C68.8324 21.041 68.6356 21.0557 68.4387 21.0705C68.2418 21.0999 68.0601 21.0999 67.848 21.0999C67.3634 21.0999 66.9848 21.0557 66.697 20.9674C66.4093 20.8791 66.1821 20.7466 66.0155 20.5846C65.8489 20.408 65.7429 20.2019 65.6823 19.9516C65.6218 19.7014 65.5915 19.3922 65.5763 19.0683L65.5763 14.3575L64.1982 14.3575L64.1982 13.0179L64.1982 13.0473ZM70.3015 13.0473L72.0128 13.0473L72.0128 14.1367L72.0431 14.1367C72.3006 13.6656 72.6489 13.3417 73.1032 13.1356C73.5576 12.9295 74.0422 12.8265 74.5874 12.8265C75.2386 12.8265 75.799 12.9296 76.2836 13.1651C76.7682 13.3859 77.162 13.6803 77.48 14.0778C77.7981 14.4606 78.0404 14.9169 78.1918 15.4322C78.3433 15.9474 78.4342 16.5068 78.4342 17.081C78.4342 17.6257 78.3584 18.1409 78.2221 18.6414C78.0707 19.142 77.8587 19.5983 77.5709 19.9811C77.2832 20.3638 76.9197 20.673 76.4653 20.9085C76.011 21.1441 75.4961 21.2618 74.8903 21.2618C74.6328 21.2618 74.3602 21.2324 74.1028 21.1882C73.8453 21.1441 73.5879 21.0705 73.3455 20.9674C73.1032 20.8644 72.8761 20.7319 72.6792 20.5699C72.4672 20.408 72.3006 20.2166 72.1643 20.0105L72.134 20.0105L72.134 24L70.3166 24L70.3166 13.0473L70.3015 13.0473ZM76.6471 17.0515C76.6471 16.6982 76.6016 16.3449 76.4956 16.0063C76.4048 15.6677 76.2533 15.3733 76.0564 15.1083C75.8596 14.8433 75.6172 14.6372 75.3446 14.4753C75.0569 14.3134 74.7237 14.2397 74.3602 14.2397C73.603 14.2397 73.0275 14.49 72.6337 15.0053C72.2551 15.5205 72.0582 16.2124 72.0582 17.0662C72.0582 17.4784 72.1037 17.8465 72.2097 18.1851C72.3157 18.5237 72.452 18.8181 72.664 19.0683C72.8609 19.3186 73.1032 19.51 73.391 19.6572C73.6787 19.8044 73.9968 19.878 74.3754 19.878C74.7994 19.878 75.1326 19.7897 75.4204 19.6278C75.7081 19.4658 75.9353 19.245 76.1322 18.9947C76.3139 18.7298 76.4502 18.4353 76.5259 18.0967C76.6016 17.7434 76.6471 17.4048 76.6471 17.0515ZM79.8426 10L81.66 10L81.66 11.6635L79.8426 11.6635L79.8426 10ZM79.8426 13.0473L81.66 13.0473L81.66 21.041L79.8426 21.041L79.8426 13.0473ZM83.2804 10L85.0978 10L85.0978 21.041L83.2804 21.041L83.2804 10ZM90.6407 21.2618C89.9895 21.2618 89.3989 21.1588 88.884 20.938C88.3691 20.7171 87.945 20.4374 87.5815 20.0694C87.2332 19.7014 86.9606 19.245 86.7789 18.7298C86.5971 18.2145 86.4911 17.6404 86.4911 17.0368C86.4911 16.4332 86.582 15.8738 86.7789 15.3586C86.9606 14.8433 87.2332 14.4017 87.5815 14.0189C87.9299 13.6509 88.3691 13.3565 88.884 13.1504C89.3989 12.9443 89.9895 12.8265 90.6408 12.8265C91.292 12.8265 91.8826 12.9296 92.3975 13.1504C92.9125 13.3565 93.3365 13.6509 93.7 14.0189C94.0483 14.387 94.3209 14.8433 94.5026 15.3586C94.6844 15.8738 94.7904 16.4332 94.7904 17.0368C94.7904 17.6551 94.6995 18.2145 94.5026 18.7298C94.3058 19.245 94.0483 19.6866 93.7 20.0694C93.3516 20.4374 92.9125 20.7319 92.3975 20.938C91.8826 21.1441 91.3071 21.2618 90.6407 21.2618ZM90.6408 19.8633C91.0345 19.8633 91.398 19.775 91.6857 19.613C91.9886 19.4511 92.2158 19.2303 92.4127 18.9653C92.6096 18.7003 92.7459 18.3912 92.8367 18.0673C92.9276 17.7287 92.973 17.3901 92.973 17.0368C92.973 16.6982 92.9276 16.3596 92.8367 16.021C92.7459 15.6824 92.6096 15.388 92.4127 15.123C92.2158 14.858 91.9735 14.6519 91.6857 14.49C91.3828 14.3281 91.0345 14.2398 90.6408 14.2398C90.247 14.2398 89.8835 14.3281 89.5958 14.49C89.2929 14.6519 89.0657 14.8728 88.8688 15.123C88.672 15.388 88.5356 15.6824 88.4448 16.021C88.3539 16.3596 88.3085 16.6982 88.3085 17.0368C88.3085 17.3901 88.3539 17.7287 88.4448 18.0673C88.5356 18.4059 88.672 18.7003 88.8688 18.9653C89.0657 19.2303 89.308 19.4511 89.5958 19.613C89.8987 19.7897 90.247 19.8633 90.6408 19.8633ZM95.3356 13.0473L96.7138 13.0473L96.7138 10.633L98.5311 10.633L98.5311 13.0326L100.167 13.0326L100.167 14.3428L98.5311 14.3428L98.5311 18.612C98.5311 18.8034 98.5463 18.9506 98.5614 19.0978C98.5766 19.2303 98.622 19.3481 98.6674 19.4364C98.728 19.5247 98.8189 19.5983 98.9249 19.6425C99.046 19.6867 99.1975 19.7161 99.4095 19.7161C99.5307 19.7161 99.667 19.7161 99.7881 19.7014C99.9093 19.6866 100.046 19.6719 100.167 19.6425L100.167 21.0116C99.9699 21.041 99.773 21.0557 99.5761 21.0705C99.3792 21.0999 99.1975 21.0999 98.9855 21.0999C98.5008 21.0999 98.1222 21.0557 97.8345 20.9674C97.5467 20.8791 97.3195 20.7466 97.153 20.5847C96.9864 20.408 96.8804 20.2019 96.8198 19.9516C96.7592 19.7014 96.7289 19.3922 96.7138 19.0683L96.7138 14.3575L95.3356 14.3575L95.3356 13.0179L95.3356 13.0473Z" fill="black"/>
</svg>
