<svg width="120" height="120" viewBox="0 0 120 120" fill="none" xmlns="http://www.w3.org/2000/svg">
<circle cx="60" cy="60" r="20" fill="#133D3C"/>
<path fill-rule="evenodd" clip-rule="evenodd" d="M66.1996 59.1669C64.2492 59.1669 62.4716 57.316 62.4716 55.2835V54.4502H60.8716V55.2835C60.8716 56.7619 61.494 58.1485 62.4708 59.1669H52.5996V60.8335H62.4708C61.494 61.8519 60.8716 63.2385 60.8716 64.7169V65.5502H62.4716V64.7169C62.4716 62.6844 64.2492 60.8335 66.1996 60.8335H66.9996V59.1669H66.1996Z" fill="white"/>
<circle cx="60" cy="60" r="48" stroke="#133D3C" stroke-width="24"/>
<path d="M67.6448 8.55519L69.5631 8.72936L65.872 13.3267L65.4721 17.3377L63.8469 17.1901L64.2468 13.1791L61.5303 8L63.4486 8.17418L65.2279 11.562L67.6448 8.55519Z" fill="white"/>
<path d="M72.3194 18.8339C71.7295 18.6662 71.2361 18.3682 70.8391 17.94C70.4465 17.513 70.1812 17.0134 70.0434 16.4412C69.9098 15.8702 69.9353 15.2889 70.12 14.6974C70.2588 14.2527 70.4721 13.8603 70.7598 13.5201C71.0487 13.1759 71.3844 12.8982 71.7668 12.6871C72.1547 12.4731 72.5693 12.3378 73.0106 12.2812C73.4518 12.2245 73.8926 12.2588 74.3329 12.3839C74.833 12.5261 75.2586 12.7582 75.6096 13.0801C75.9661 13.3991 76.235 13.7753 76.4161 14.2088C76.5973 14.6423 76.6841 15.1023 76.6765 15.5887C76.669 16.0752 76.5524 16.5528 76.3269 17.0217L71.6395 15.6891C71.6281 15.9345 71.6621 16.1685 71.7416 16.391C71.8223 16.6094 71.9502 16.8034 72.1253 16.9731C72.3017 17.1388 72.5218 17.2613 72.7855 17.3407C73.0578 17.4226 73.3249 17.4319 73.5867 17.3686C73.854 17.3025 74.0968 17.1805 74.3152 17.0028L75.8011 17.8116C75.371 18.2801 74.8431 18.6142 74.2176 18.8139C73.5934 19.0095 72.9606 19.0162 72.3194 18.8339ZM71.9378 14.5546L75.0927 15.4516C75.1221 15.1934 75.0904 14.9445 74.9976 14.705C74.9104 14.4625 74.7741 14.2506 74.5888 14.069C74.4034 13.8875 74.1825 13.7603 73.926 13.6874C73.6695 13.6145 73.4138 13.6062 73.1588 13.6625C72.9051 13.7147 72.6701 13.8189 72.4538 13.9751C72.2431 14.1284 72.0711 14.3216 71.9378 14.5546Z" fill="white"/>
<path d="M85.6866 17.1413L87.1239 17.8802L83.9509 23.5018L82.5136 22.7629L82.8422 22.0325C82.5395 22.2009 82.2102 22.2951 81.8543 22.3152C81.5045 22.3336 81.1489 22.25 80.7876 22.0642C80.3517 21.8402 79.9877 21.5515 79.6956 21.1983C79.4036 20.8451 79.1905 20.4551 79.0564 20.0284C78.9263 19.6037 78.8813 19.1672 78.9216 18.7189C78.9657 18.2726 79.1052 17.8414 79.34 17.4254C79.5664 17.0244 79.8555 16.6871 80.2075 16.4136C80.5635 16.142 80.9559 15.9449 81.3849 15.8221C81.8139 15.6994 82.2534 15.6569 82.7032 15.6947C83.153 15.7326 83.588 15.8595 84.0082 16.0755C84.397 16.2753 84.698 16.5364 84.9113 16.8588C85.1284 17.1832 85.2731 17.5283 85.3452 17.8942L85.6866 17.1413ZM81.4979 20.725C81.8042 20.8825 82.1165 20.9487 82.4346 20.9236C82.7527 20.8986 83.0483 20.7967 83.3215 20.618C83.5967 20.4355 83.8189 20.1944 83.9882 19.8946C84.1595 19.591 84.2482 19.2812 84.2543 18.9652C84.2625 18.6455 84.1881 18.351 84.031 18.0817C83.8779 17.8144 83.6502 17.603 83.3478 17.4476C83.0454 17.2922 82.7262 17.2248 82.3903 17.2455C82.0604 17.2645 81.751 17.3593 81.4622 17.5299C81.1773 17.7026 80.9491 17.9407 80.7778 18.2443C80.6064 18.5478 80.5256 18.8616 80.5352 19.1857C80.5448 19.5098 80.6321 19.8085 80.797 20.0818C80.9658 20.3572 81.1995 20.5716 81.4979 20.725Z" fill="white"/>
<path d="M86.1303 24.9475L90.2621 19.9252L91.5452 20.8885L91.1822 21.3391C91.51 21.2927 91.841 21.311 92.1754 21.3942C92.5126 21.474 92.8249 21.6218 93.1124 21.8377C93.3052 21.9824 93.4759 22.154 93.6246 22.3523L92.1021 23.2078C92.0102 23.0576 91.8977 22.9325 91.7645 22.8324C91.5577 22.6771 91.3284 22.5835 91.0766 22.5516C90.8311 22.5189 90.59 22.5464 90.3531 22.634C90.1226 22.7209 89.926 22.863 89.7633 23.0604L87.4134 25.9109L86.1303 24.9475Z" fill="white"/>
<path d="M92.1994 30.1255C91.977 29.8693 91.7963 29.5901 91.6574 29.2881C91.5247 28.9862 91.4474 28.6814 91.4254 28.3736C91.4034 28.0658 91.4503 27.772 91.5663 27.4922L92.9401 28.064C92.9119 28.1596 92.9018 28.2828 92.9098 28.4336C92.9209 28.5814 92.9588 28.7346 93.0233 28.893C93.0909 29.0545 93.1935 29.205 93.3312 29.3444C93.4474 29.4621 93.5738 29.559 93.7103 29.6351C93.8531 29.7114 93.9923 29.75 94.128 29.7508C94.2667 29.7547 94.3928 29.7056 94.5064 29.6034C94.6265 29.4954 94.6793 29.3719 94.6647 29.2329C94.6563 29.0942 94.6087 28.9498 94.5219 28.7998C94.4413 28.65 94.3606 28.5062 94.2797 28.3684C94.0507 28.0186 93.8757 27.6583 93.7547 27.2875C93.6367 26.9198 93.6035 26.5665 93.655 26.2277C93.7128 25.8891 93.8878 25.5883 94.1799 25.3256C94.5013 25.0365 94.8584 24.8674 95.2512 24.8183C95.647 24.7722 96.0367 24.8224 96.4203 24.9687C96.807 25.1182 97.1502 25.3447 97.45 25.6483C97.8141 26.0169 98.0664 26.4275 98.207 26.8802C98.3539 27.333 98.37 27.7807 98.2553 28.2231L96.8145 27.8256C96.8496 27.7122 96.8614 27.5875 96.8498 27.4517C96.8415 27.3129 96.8095 27.175 96.7538 27.0379C96.7013 26.8979 96.6248 26.7708 96.5242 26.6565C96.393 26.5113 96.2546 26.396 96.1089 26.3105C95.9633 26.2251 95.8163 26.1818 95.668 26.1806C95.5228 26.1826 95.3853 26.2419 95.2555 26.3587C95.1321 26.4697 95.0855 26.5993 95.1156 26.7478C95.149 26.8932 95.2137 27.0456 95.3097 27.2049C95.4088 27.3673 95.4985 27.5265 95.5789 27.6823C95.754 28.0396 95.8912 28.3988 95.9904 28.7599C96.0927 29.1242 96.1168 29.4682 96.0626 29.7919C96.0083 30.1156 95.8402 30.3984 95.5582 30.6404C95.2433 30.9236 94.8787 31.0819 94.4643 31.1154C94.0532 31.146 93.6452 31.0742 93.2404 30.9002C92.8386 30.7292 92.4916 30.471 92.1994 30.1255Z" fill="white"/>
<path d="M98.4752 37.4639L106.784 33.3364L109.497 38.3094L108.048 39.0287L106.09 35.4378L104.404 36.2751L105.958 39.124L104.51 39.8434L102.956 36.9944L100.677 38.1265L102.636 41.7174L101.188 42.4368L98.4752 37.4639Z" fill="white"/>
<path d="M102.116 44.4043L106.036 45.7251L108.539 42.5916L109.116 44.433L107.657 46.2623L109.931 47.033L110.508 48.8744L106.613 47.5665L104.096 50.7239L103.52 48.8824L105.003 47.0196L102.693 46.2457L102.116 44.4043Z" fill="white"/>
<path d="M101.318 54.3833L101.173 52.8315L111.17 51.9791L111.315 53.531L110.468 53.6031C110.79 53.7851 111.058 54.0187 111.273 54.3038C111.493 54.5928 111.621 54.9408 111.66 55.3478C111.703 55.8142 111.653 56.2566 111.508 56.6749C111.364 57.0933 111.144 57.4689 110.848 57.8018C110.557 58.1386 110.209 58.4098 109.802 58.6154C109.397 58.8252 108.952 58.9508 108.467 58.9921C107.983 59.0333 107.52 58.9853 107.077 58.8478C106.634 58.7146 106.236 58.507 105.883 58.2251C105.535 57.9471 105.251 57.6145 105.031 57.2272C104.811 56.84 104.679 56.4131 104.635 55.9467C104.597 55.5397 104.657 55.1756 104.815 54.8544C104.978 54.5371 105.201 54.2617 105.484 54.0281L101.318 54.3833ZM110.092 55.4623C110.061 55.1401 109.946 54.8593 109.744 54.6201C109.547 54.3804 109.295 54.2011 108.988 54.0819C108.682 53.9627 108.351 53.9183 107.995 53.9486C107.64 53.9789 107.32 54.0789 107.036 54.2484C106.756 54.4176 106.539 54.6369 106.385 54.9065C106.236 55.1756 106.176 55.4713 106.206 55.7936C106.237 56.12 106.352 56.4116 106.55 56.6682C106.749 56.9247 107.002 57.1211 107.311 57.2572C107.623 57.3929 107.96 57.4455 108.32 57.4148C108.675 57.3845 108.992 57.2763 109.27 57.0902C109.548 56.904 109.761 56.6679 109.909 56.3818C110.062 56.0995 110.123 55.793 110.092 55.4623Z" fill="white"/>
<path d="M104.607 64.4748C104.679 63.8914 104.901 63.3762 105.275 62.9292C105.648 62.4865 106.118 62.1511 106.685 61.9228C107.251 61.6988 107.855 61.6227 108.498 61.6943C108.981 61.7482 109.422 61.881 109.823 62.0928C110.228 62.3051 110.573 62.5728 110.857 62.8959C111.144 63.2237 111.355 63.5901 111.49 63.9951C111.624 64.4002 111.665 64.8204 111.612 65.2559C111.551 65.7506 111.385 66.1906 111.113 66.5761C110.845 66.9662 110.503 67.2838 110.087 67.5288C109.671 67.7738 109.211 67.9347 108.708 68.0114C108.204 68.0882 107.691 68.0609 107.168 67.9298L107.736 63.2937C107.481 63.3252 107.245 63.3975 107.029 63.5106C106.818 63.6241 106.639 63.7778 106.494 63.9717C106.354 64.166 106.265 64.394 106.229 64.6556C106.191 64.9257 106.228 65.1784 106.338 65.4136C106.452 65.6535 106.62 65.8607 106.841 66.0354L106.262 67.5716C105.705 67.248 105.269 66.8094 104.955 66.2558C104.646 65.7027 104.53 65.109 104.607 64.4748ZM108.958 63.3786L108.576 66.4989C108.848 66.482 109.099 66.4093 109.331 66.2808C109.566 66.1571 109.761 65.9924 109.917 65.7869C110.072 65.5813 110.165 65.3517 110.196 65.0981C110.227 64.8444 110.192 64.6025 110.09 64.3726C109.992 64.1431 109.844 63.9402 109.646 63.7638C109.451 63.5921 109.222 63.4637 108.958 63.3786Z" fill="white"/>
<path d="M103.81 70.1388L110.232 71.9301L109.773 73.4251L109.199 73.2713C109.367 73.5443 109.472 73.8444 109.515 74.1716C109.563 74.4999 109.536 74.8316 109.433 75.1665C109.364 75.3912 109.26 75.6063 109.123 75.8118L107.724 74.7814C107.836 74.6441 107.916 74.4979 107.964 74.3427C108.038 74.1017 108.044 73.8637 107.981 73.6288C107.921 73.3992 107.805 73.1958 107.632 73.0187C107.461 72.8468 107.25 72.7255 106.997 72.6548L103.351 71.6338L103.81 70.1388Z" fill="white"/>
<path d="M108.11 78.1457L107.479 79.5825L101.309 77.1131L101.94 75.6763L108.11 78.1457ZM108.585 79.1945C108.678 78.9825 108.829 78.8327 109.037 78.745C109.249 78.6591 109.466 78.6605 109.688 78.7494C109.906 78.8367 110.057 78.9826 110.141 79.1871C110.225 79.3916 110.222 79.5979 110.13 79.8059C110.039 80.014 109.888 80.159 109.678 80.2411C109.466 80.3271 109.251 80.3264 109.033 80.2392C108.811 80.1503 108.657 80.0055 108.571 79.805C108.489 79.606 108.494 79.4025 108.585 79.1945Z" fill="white"/>
<path d="M98.7709 81.5225C99.0877 81.0188 99.5127 80.6367 100.046 80.3761C100.577 80.1193 101.15 79.9982 101.765 80.0129C102.378 80.0313 102.961 80.1993 103.516 80.5169C103.933 80.7557 104.278 81.0504 104.552 81.4008C104.829 81.7535 105.028 82.1328 105.147 82.5387C105.268 82.9505 105.302 83.3673 105.25 83.7893C105.198 84.2113 105.054 84.6102 104.817 84.9861C104.549 85.4132 104.207 85.7489 103.794 85.9934C103.381 86.2437 102.933 86.3988 102.448 86.4586C101.963 86.5183 101.474 86.4843 100.982 86.3565C100.49 86.2286 100.034 86.0022 99.6146 85.6773L102.132 81.6753C101.885 81.6037 101.64 81.577 101.394 81.5952C101.152 81.6156 100.923 81.6856 100.708 81.8053C100.496 81.9272 100.317 82.1002 100.171 82.3243C100.02 82.5557 99.9441 82.8002 99.9433 83.0579C99.944 83.3215 100.007 83.5763 100.134 83.8223L98.9434 84.9949C98.5748 84.4809 98.3669 83.91 98.3196 83.2821C98.2761 82.6565 98.4265 82.0699 98.7709 81.5225ZM103.209 82.2329L101.515 84.9264C101.77 85.0177 102.03 85.0502 102.296 85.024C102.564 85.0036 102.813 84.9303 103.043 84.804C103.274 84.6778 103.458 84.5052 103.595 84.2862C103.733 84.0672 103.805 83.8328 103.811 83.5832C103.821 83.3357 103.774 83.0926 103.669 82.8538C103.566 82.6209 103.413 82.4139 103.209 82.2329Z" fill="white"/>
<path d="M94.6475 93.4997L91.5123 90.7918L92.6078 89.6366L95.4255 92.0704C95.6207 92.2389 95.841 92.346 96.0865 92.3915C96.3354 92.44 96.5794 92.4269 96.8187 92.3522C97.0583 92.2835 97.2664 92.1561 97.443 91.9699C97.6196 91.7837 97.7333 91.5718 97.784 91.3344C97.8351 91.1029 97.823 90.8714 97.7478 90.6399C97.6728 90.4144 97.5378 90.2174 97.3427 90.0489L94.525 87.6151L95.6205 86.46L100.586 90.74L99.4902 91.8952L99.0442 91.5185C99.0701 91.8338 99.0281 92.1477 98.9181 92.4603C98.8114 92.7758 98.6354 93.063 98.3899 93.3218C98.0637 93.6658 97.6765 93.9027 97.2286 94.0325C96.7839 94.1651 96.3334 94.1866 95.8771 94.0968C95.4212 94.013 95.0113 93.8139 94.6475 93.4997Z" fill="white"/>
<path d="M87.6062 96.3471L85.9521 96.5899C85.9442 96.0936 86.0483 95.615 86.2645 95.1543C86.4807 94.6935 86.8075 94.305 87.2448 93.9888C87.7354 93.634 88.279 93.4306 88.8755 93.3784C89.4685 93.3288 90.0462 93.4184 90.6085 93.6474C91.17 93.8823 91.646 94.2457 92.0366 94.7377C92.333 95.1109 92.5398 95.5088 92.657 95.9314C92.777 96.3573 92.813 96.7799 92.7653 97.199C92.7166 97.624 92.5857 98.0231 92.3726 98.3962C92.1596 98.7692 91.8699 99.0881 91.5037 99.3529C91.0665 99.6691 90.5862 99.8642 90.0629 99.9382C89.5396 100.012 89.026 99.975 88.5221 99.8267L89.2185 98.3778C89.4506 98.4235 89.6817 98.422 89.9116 98.3732C90.138 98.327 90.34 98.2397 90.5178 98.1111C90.7738 97.926 90.951 97.6911 91.0494 97.4063C91.1506 97.1248 91.174 96.8301 91.1198 96.5222C91.0683 96.2176 90.9402 95.9364 90.7354 95.6786C90.5334 95.4241 90.2844 95.2303 89.9884 95.0972C89.6951 94.9675 89.3928 94.911 89.0816 94.9278C88.7703 94.9446 88.4867 95.0455 88.2307 95.2306C88.0458 95.3643 87.8995 95.5289 87.7917 95.7243C87.6865 95.9232 87.6247 96.1308 87.6062 96.3471Z" fill="white"/>
<path d="M80.254 98.1876C80.8067 97.9291 81.3811 97.8288 81.9771 97.8867C82.5691 97.9465 83.119 98.142 83.6269 98.4734C84.1308 98.8066 84.525 99.2503 84.8096 99.8046C85.0235 100.221 85.1456 100.648 85.1759 101.084C85.2081 101.524 85.1586 101.945 85.0276 102.348C84.8944 102.756 84.6859 103.124 84.4018 103.451C84.1178 103.778 83.7695 104.038 83.3569 104.231C82.8883 104.45 82.4106 104.555 81.9239 104.546C81.4352 104.542 80.9703 104.439 80.5291 104.238C80.0879 104.037 79.6973 103.755 79.3573 103.392C79.0172 103.03 78.7635 102.603 78.596 102.113L82.9881 100.059C82.8222 99.8712 82.6309 99.7213 82.4144 99.6092C82.1999 99.5009 81.968 99.4411 81.7187 99.4296C81.4714 99.422 81.2226 99.4744 80.9723 99.5867C80.714 99.7027 80.5111 99.8687 80.3637 100.085C80.2142 100.306 80.1223 100.553 80.0881 100.825L78.4213 101.192C78.4046 100.569 78.5552 99.9822 78.873 99.4306C79.1928 98.8829 79.6531 98.4685 80.254 98.1876ZM83.575 101.086L80.6188 102.468C80.7807 102.677 80.9808 102.839 81.2192 102.955C81.4556 103.077 81.7063 103.145 81.9715 103.158C82.2367 103.172 82.4895 103.122 82.7299 103.01C82.9702 102.897 83.164 102.738 83.3114 102.532C83.4607 102.329 83.5594 102.1 83.6074 101.846C83.6534 101.597 83.6426 101.343 83.575 101.086Z" fill="white"/>
<path d="M70.4854 107.261L71.4999 107.726L71.0017 108.709L72.1228 108.844L71.988 109.913L70.8513 109.767L71.0553 110.829L69.9496 111.022L69.7457 109.961L68.7501 110.479L68.2136 109.528L69.2248 109.02L68.3936 108.269L69.1692 107.491L69.9884 108.25L70.4854 107.261Z" fill="white"/>
<path d="M52.9373 111.506L51.0173 111.35L54.6581 106.717L55.0142 102.702L56.641 102.833L56.2848 106.848L59.0576 112L57.1375 111.845L55.3213 108.475L52.9373 111.506Z" fill="white"/>
<path d="M48.1509 101.274C48.7426 101.436 49.2393 101.729 49.6409 102.153C50.0383 102.576 50.309 103.073 50.4532 103.644C50.5931 104.213 50.574 104.795 50.3959 105.388C50.262 105.834 50.053 106.229 49.7691 106.572C49.484 106.919 49.1514 107.2 48.7713 107.415C48.3858 107.633 47.9727 107.772 47.5321 107.833C47.0916 107.894 46.6504 107.865 46.2088 107.744C45.7071 107.607 45.2789 107.379 44.9244 107.061C44.5644 106.745 44.2914 106.372 44.1054 105.94C43.9195 105.508 43.8276 105.049 43.8298 104.563C43.832 104.076 43.9433 103.597 44.1636 103.126L48.8654 104.412C48.8742 104.166 48.8376 103.933 48.7557 103.711C48.6725 103.493 48.5424 103.301 48.3655 103.133C48.1873 102.969 47.9659 102.849 47.7013 102.772C47.4281 102.693 47.1609 102.686 46.8999 102.752C46.6333 102.821 46.3918 102.945 46.1754 103.125L44.6807 102.331C45.1056 101.858 45.6297 101.519 46.253 101.313C46.875 101.111 47.5077 101.098 48.1509 101.274ZM48.5797 105.549L45.4151 104.684C45.3886 104.942 45.423 105.191 45.5184 105.43C45.6083 105.671 45.7469 105.882 45.9343 106.061C46.1216 106.241 46.344 106.366 46.6012 106.436C46.8585 106.507 47.1143 106.512 47.3686 106.454C47.6217 106.399 47.8555 106.292 48.0701 106.134C48.2792 105.978 48.449 105.784 48.5797 105.549Z" fill="white"/>
<path d="M34.8015 103.101L33.3562 102.377L36.4673 96.7237L37.9127 97.4482L37.592 98.1818C37.8929 98.0105 38.2212 97.9129 38.5768 97.8893C38.9264 97.8674 39.2829 97.9475 39.6462 98.1296C40.0845 98.3493 40.4517 98.6343 40.7476 98.9846C41.0436 99.3348 41.2609 99.7227 41.3996 100.148C41.5344 100.571 41.5842 101.007 41.5488 101.456C41.5096 101.903 41.3748 102.335 41.1446 102.754C40.9227 103.157 40.6372 103.497 40.2882 103.774C39.9353 104.049 39.545 104.25 39.1174 104.377C38.6897 104.504 38.2508 104.551 37.8006 104.518C37.3504 104.485 36.914 104.362 36.4915 104.15C36.1005 103.954 35.7966 103.696 35.5799 103.376C35.3592 103.054 35.2107 102.71 35.1346 102.345L34.8015 103.101ZM38.9506 99.4758C38.6426 99.3214 38.3297 99.2584 38.0118 99.2866C37.694 99.3148 37.3995 99.4196 37.1284 99.601C36.8551 99.7862 36.6356 100.03 36.4696 100.331C36.3016 100.636 36.2163 100.947 36.2137 101.263C36.209 101.583 36.2866 101.877 36.4466 102.144C36.6027 102.41 36.8328 102.619 37.1368 102.772C37.4409 102.924 37.7608 102.988 38.0965 102.964C38.4262 102.942 38.7345 102.844 39.0214 102.67C39.3044 102.495 39.5299 102.254 39.6979 101.949C39.8659 101.644 39.9434 101.329 39.9302 101.005C39.917 100.681 39.8265 100.384 39.6586 100.112C39.4867 99.8383 39.2507 99.6263 38.9506 99.4758Z" fill="white"/>
<path d="M34.2741 95.2997L30.1973 100.363L28.9038 99.4122L29.2618 98.958C28.9346 99.0077 28.6034 98.9926 28.2681 98.9128C27.9301 98.8363 27.6161 98.6916 27.3263 98.4786C27.132 98.3358 26.9594 98.166 26.8085 97.9692L28.3216 97.0986C28.4151 97.2479 28.529 97.3719 28.6633 97.4706C28.8718 97.6238 29.1021 97.7151 29.3542 97.7446C29.6001 97.7748 29.8409 97.7449 30.0767 97.655C30.3063 97.5658 30.5014 97.4217 30.662 97.2227L32.9806 94.3491L34.2741 95.2997Z" fill="white"/>
<path d="M28.1489 90.181C28.3741 90.435 28.5578 90.7123 28.7 91.013C28.8359 91.3135 28.9166 91.6176 28.9419 91.9251C28.9673 92.2326 28.9235 92.5269 28.8106 92.8078L27.4306 92.2496C27.4578 92.1538 27.4666 92.0305 27.457 91.8798C27.4442 91.7321 27.4047 91.5793 27.3385 91.4215C27.2691 91.2607 27.1649 91.1113 27.0257 90.9732C26.9082 90.8567 26.7808 90.761 26.6435 90.6862C26.4999 90.6114 26.3602 90.5742 26.2246 90.5747C26.0858 90.5722 25.9602 90.6225 25.8477 90.7258C25.7288 90.8351 25.6774 90.9591 25.6935 91.0978C25.7033 91.2365 25.7525 91.3804 25.841 91.5296C25.9232 91.6786 26.0055 91.8216 26.0879 91.9586C26.3206 92.3061 26.4995 92.6646 26.6246 93.0342C26.7466 93.4007 26.7836 93.7536 26.7358 94.0929C26.6816 94.4321 26.5099 94.7346 26.2207 95.0002C25.9025 95.2924 25.5472 95.465 25.155 95.5181C24.7597 95.568 24.3694 95.5217 23.9843 95.3792C23.596 95.2336 23.2503 95.0105 22.9472 94.7099C22.5792 94.3449 22.3224 93.9368 22.1769 93.4855C22.0251 93.0341 22.0041 92.5867 22.114 92.1431L23.559 92.5264C23.5252 92.6402 23.5148 92.7649 23.5278 92.9006C23.5377 93.0393 23.5712 93.1769 23.6284 93.3134C23.6823 93.4529 23.7602 93.5793 23.8621 93.6925C23.9948 93.8365 24.1345 93.9504 24.2811 94.0344C24.4276 94.1184 24.5751 94.1602 24.7233 94.1599C24.8685 94.1565 25.0054 94.0958 25.134 93.9778C25.2561 93.8656 25.3013 93.7355 25.2696 93.5874C25.2346 93.4422 25.1683 93.2905 25.0705 93.1321C24.9697 92.9707 24.8782 92.8125 24.7962 92.6574C24.6172 92.3019 24.4761 91.9441 24.373 91.5839C24.2667 91.2207 24.2389 90.877 24.2896 90.5528C24.3403 90.2286 24.5053 89.9441 24.7847 89.6993C25.0965 89.413 25.4594 89.2511 25.8734 89.2135C26.2842 89.1789 26.6929 89.2466 27.0996 89.4166C27.5032 89.5836 27.853 89.8384 28.1489 90.181Z" fill="white"/>
<path d="M21.7937 82.9059L13.5305 87.1162L10.7637 82.1707L12.2039 81.4369L14.2018 85.008L15.878 84.154L14.2929 81.3207L15.7331 80.5869L17.3182 83.4202L19.5846 82.2653L17.5867 78.6942L19.0269 77.9604L21.7937 82.9059Z" fill="white"/>
<path d="M18.0749 76.0021L14.141 74.7208L11.6728 77.8793L11.0755 76.0438L12.5143 74.2L10.2322 73.4521L9.63501 71.6166L13.5438 72.8853L16.0253 69.7028L16.6225 71.5384L15.1597 73.416L17.4777 74.1666L18.0749 76.0021Z" fill="white"/>
<path d="M18.7639 66.0167L18.926 67.567L8.93946 68.5185L8.77728 66.9682L9.62281 66.8877C9.29928 66.7089 9.02857 66.478 8.81069 66.195C8.58793 65.9082 8.45529 65.5615 8.41275 65.1549C8.364 64.6889 8.40957 64.2461 8.54945 63.8264C8.68933 63.4066 8.90533 63.0288 9.19743 62.693C9.48465 62.3533 9.83023 62.0787 10.2342 61.8691C10.6376 61.6552 11.0813 61.5253 11.5651 61.4792C12.0489 61.4331 12.5129 61.4766 12.9572 61.6096C13.401 61.7385 13.8011 61.9421 14.1574 62.2204C14.5089 62.4949 14.7967 62.8247 15.0208 63.2098C15.2448 63.5949 15.3812 64.0204 15.43 64.4863C15.4725 64.8929 15.4165 65.2576 15.262 65.5804C15.1026 65.8993 14.8829 66.1769 14.6028 66.4132L18.7639 66.0167ZM9.9793 65.0249C10.013 65.3468 10.1319 65.6264 10.336 65.8636C10.5357 66.1013 10.7895 66.2781 11.0976 66.3942C11.4056 66.5103 11.7371 66.5515 12.0922 66.5177C12.4473 66.4838 12.766 66.3807 13.0483 66.2084C13.3261 66.0365 13.5405 65.815 13.6915 65.5439C13.838 65.2733 13.8944 64.977 13.8608 64.6551C13.8266 64.3289 13.7088 64.0385 13.5074 63.7839C13.3059 63.5293 13.0503 63.3355 12.7405 63.2025C12.4263 63.0698 12.0894 63.0206 11.7299 63.0549C11.3748 63.0887 11.0593 63.2001 10.7832 63.3889C10.5071 63.5778 10.2966 63.816 10.1519 64.1036C10.0023 64.3874 9.94474 64.6945 9.9793 65.0249Z" fill="white"/>
<path d="M15.3663 55.956C15.3012 56.5402 15.0843 57.0576 14.7156 57.5082C14.3474 57.9545 13.8812 58.2946 13.3168 58.5285C12.753 58.7581 12.1495 58.8402 11.5063 58.775C11.0228 58.7259 10.5796 58.5975 10.1766 58.3896C9.76919 58.1813 9.42184 57.9171 9.13455 57.5968C8.84329 57.2719 8.6282 56.9076 8.48926 56.5039C8.35032 56.1003 8.30513 55.6804 8.35371 55.2444C8.40889 54.7492 8.57024 54.3075 8.83777 53.9194C9.10133 53.5266 9.43987 53.2057 9.85339 52.9565C10.2669 52.7074 10.7249 52.542 11.2275 52.4603C11.73 52.3786 12.2434 52.4007 12.7676 52.5267L12.2505 57.1681C12.5055 57.1341 12.7404 57.0594 12.955 56.9442C13.1653 56.8286 13.3419 56.6731 13.4847 56.4779C13.6232 56.2821 13.7092 56.0533 13.7429 55.7913C13.7775 55.5208 13.7383 55.2686 13.6254 55.0345C13.5084 54.7957 13.3384 54.5901 13.1154 54.4177L13.6775 52.8758C14.2386 53.1939 14.6792 53.6282 14.9991 54.1786C15.3147 54.7286 15.437 55.3211 15.3663 55.956ZM11.0273 57.0954L11.3754 53.9714C11.104 53.991 10.8534 54.0662 10.6235 54.1969C10.3897 54.323 10.1962 54.4896 10.043 54.6967C9.88989 54.9037 9.79916 55.1343 9.77087 55.3882C9.74257 55.6422 9.78071 55.8837 9.88529 56.1126C9.98543 56.3411 10.1357 56.5426 10.336 56.717C10.5324 56.8868 10.7629 57.0129 11.0273 57.0954Z" fill="white"/>
<path d="M16.1002 50.2873L9.65858 48.5607L10.1016 47.0612L10.6766 47.2092C10.5065 46.9379 10.3978 46.6389 10.3507 46.3122C10.2992 45.9843 10.3232 45.6524 10.4224 45.3165C10.489 45.0911 10.5899 44.875 10.7252 44.6682L12.135 45.6844C12.0246 45.8228 11.9465 45.9698 11.9005 46.1255C11.829 46.3672 11.8259 46.6052 11.8911 46.8395C11.9532 47.0685 12.0719 47.2707 12.2472 47.4461C12.4194 47.6163 12.6321 47.7354 12.8854 47.8036L16.5432 48.7878L16.1002 50.2873Z" fill="white"/>
<path d="M11.7151 42.3182L12.3308 40.8752L18.5276 43.2832L17.9119 44.7262L11.7151 42.3182ZM11.2286 41.2742C11.1378 41.4871 10.9889 41.6384 10.7821 41.7281C10.5712 41.8162 10.3541 41.8169 10.131 41.7302C9.91209 41.6451 9.75937 41.5007 9.67289 41.2971C9.58641 41.0934 9.58774 40.8871 9.6769 40.6781C9.76605 40.4692 9.91527 40.3226 10.1246 40.2385C10.3355 40.1504 10.5505 40.1489 10.7694 40.234C10.9925 40.3207 11.1481 40.4639 11.2363 40.6636C11.3203 40.8617 11.3178 41.0653 11.2286 41.2742Z" fill="white"/>
<path d="M21.014 38.8517C20.7027 39.3585 20.2819 39.7448 19.7515 40.0106C19.2234 40.2727 18.6518 40.3995 18.0366 40.3909C17.4237 40.3786 16.8382 40.2164 16.2803 39.9043C15.8608 39.6697 15.5123 39.3785 15.2347 39.0308C14.9532 38.6809 14.7507 38.3036 14.627 37.8989C14.5017 37.4883 14.4628 37.0718 14.5103 36.6494C14.5578 36.2269 14.6977 35.8266 14.93 35.4483C15.1939 35.0186 15.5315 34.6795 15.9427 34.4309C16.3523 34.1765 16.7993 34.017 17.2836 33.9524C17.768 33.8878 18.2567 33.917 18.75 34.0399C19.2432 34.1629 19.7015 34.3847 20.1249 34.7055L17.6516 38.7323C17.8987 38.8014 18.1449 38.8257 18.3902 38.805C18.6317 38.7822 18.8597 38.7099 19.0741 38.5881C19.2847 38.4641 19.4619 38.2893 19.6056 38.0638C19.7538 37.8309 19.8269 37.5856 19.8249 37.3279C19.8213 37.0644 19.7551 36.8102 19.6262 36.5655L20.8035 35.3811C21.1777 35.8914 21.3919 36.4602 21.446 37.0876C21.4964 37.7128 21.3523 38.3008 21.014 38.8517ZM16.5682 38.1854L18.2329 35.4752C17.9772 35.3864 17.7164 35.3565 17.4505 35.3854C17.183 35.4084 16.9348 35.4842 16.7059 35.6128C16.477 35.7413 16.2949 35.9157 16.1595 36.1361C16.0242 36.3564 15.9548 36.5915 15.9513 36.8412C15.9441 37.0888 15.9941 37.3314 16.1014 37.5691C16.2072 37.8009 16.3628 38.0064 16.5682 38.1854Z" fill="white"/>
<path d="M25.009 26.8354L28.1735 29.5122L27.0906 30.6781L24.2466 28.2724C24.0496 28.1058 23.8281 28.0009 23.5821 27.9578C23.3328 27.9118 23.0888 27.9273 22.8504 28.0044C22.6116 28.0754 22.4049 28.2049 22.2303 28.3928C22.0558 28.5808 21.9444 28.7937 21.8962 29.0317C21.8477 29.2637 21.8623 29.495 21.94 29.7258C22.0174 29.9505 22.1546 30.1462 22.3515 30.3128L25.1955 32.7185L24.1126 33.8844L19.1011 29.6537L20.184 28.4878L20.6341 28.86C20.6047 28.5451 20.6434 28.2307 20.7499 27.917C20.8532 27.6005 21.0261 27.3116 21.2688 27.0504C21.5913 26.7032 21.9758 26.4625 22.4223 26.3282C22.8655 26.1912 23.3157 26.1653 23.773 26.2506C24.2298 26.3299 24.6418 26.5248 25.009 26.8354Z" fill="white"/>
<path d="M32.0168 23.9182L33.6681 23.6591C33.6814 24.1553 33.5825 24.6348 33.3714 25.0977C33.1602 25.5606 32.8377 25.9523 32.4039 26.2728C31.9172 26.6325 31.3758 26.8413 30.7799 26.8994C30.1874 26.9549 29.6088 26.871 29.044 26.6476C28.48 26.4183 28.0001 26.0597 27.6041 25.5716C27.3037 25.2013 27.0926 24.8055 26.9708 24.3841C26.8462 23.9593 26.8055 23.5372 26.8487 23.1176C26.8927 22.6921 27.0192 22.2918 27.2282 21.9166C27.4372 21.5415 27.7234 21.2197 28.0867 20.9513C28.5205 20.6307 28.9986 20.4309 29.5211 20.3517C30.0435 20.2726 30.5575 20.3046 31.063 20.4479L30.3825 21.9037C30.1498 21.8603 29.9188 21.8641 29.6894 21.9151C29.4635 21.9635 29.2624 22.0529 29.0861 22.1832C28.8322 22.3708 28.6575 22.6075 28.5622 22.8933C28.4641 23.1757 28.4439 23.4707 28.5014 23.778C28.5563 24.0821 28.6875 24.362 28.895 24.6178C29.0998 24.8702 29.3509 25.0616 29.6483 25.1917C29.943 25.3186 30.2459 25.372 30.5569 25.3522C30.868 25.3323 31.1505 25.2285 31.4045 25.0409C31.5879 24.9054 31.7324 24.7394 31.8381 24.5428C31.9411 24.3429 32.0006 24.1347 32.0168 23.9182Z" fill="white"/>
<path d="M39.3482 22.0049C38.7983 22.2689 38.2251 22.3749 37.6285 22.323C37.0359 22.2692 36.4839 22.0792 35.9724 21.7529C35.4648 21.4248 35.0657 20.985 34.7751 20.4336C34.5566 20.0191 34.4298 19.5939 34.3948 19.158C34.3577 18.7183 34.4025 18.2966 34.5292 17.8927C34.6578 17.4831 34.8623 17.1133 35.1427 16.7833C35.4231 16.4533 35.7685 16.1897 36.179 15.9927C36.6452 15.7689 37.1217 15.6592 37.6084 15.6638C38.0971 15.6627 38.5632 15.7606 39.0065 15.9575C39.4499 16.1545 39.8436 16.4325 40.1876 16.7915C40.5317 17.1505 40.7901 17.5744 40.9629 18.0632L36.5936 20.1609C36.7617 20.3471 36.9546 20.4951 37.1723 20.605C37.388 20.7111 37.6205 20.7686 37.8699 20.7776C38.1173 20.7827 38.3655 20.7279 38.6146 20.6131C38.8716 20.4944 39.0726 20.3264 39.2177 20.1091C39.3647 19.886 39.4539 19.6383 39.4851 19.366L41.1478 18.9823C41.1713 19.6048 41.0272 20.1934 40.7155 20.7481C40.4017 21.299 39.9459 21.7179 39.3482 22.0049ZM35.9956 19.14L38.9363 17.7282C38.7722 17.521 38.5703 17.3606 38.3306 17.247C38.0929 17.1276 37.8414 17.0625 37.5761 17.0517C37.3107 17.0409 37.0585 17.0929 36.8194 17.2077C36.5804 17.3225 36.3883 17.4838 36.2432 17.6916C36.0961 17.8957 35.9999 18.1253 35.9547 18.3805C35.9115 18.63 35.9251 18.8832 35.9956 19.14Z" fill="white"/>
<path d="M49.0251 12.833L48.0056 12.3779L48.4931 11.39L47.3706 11.2661L47.4938 10.1961L48.632 10.3301L48.4166 9.27071L49.5201 9.06637L49.7355 10.1257L50.7254 9.59768L51.2722 10.5436L50.2666 11.0616L51.1058 11.8038L50.3387 12.5898L49.5113 11.8389L49.0251 12.833Z" fill="white"/>
</svg>
